<svg id="Layer_1" data-name="Layer 1" xmlns="http://www.w3.org/2000/svg" viewBox="0 0 841.89 595.28"><defs><style>.cls-1{fill:#fff;}</style></defs><title>BUNDERRA_Logo_White_Reversed_RGB</title><path class="cls-1" d="M530.2,353.75c-8,0-11,7.92-11,14.82,0,7.32,2.88,14.59,11.32,14.59,8.26,0,10.77-7.78,10.77-14.73S538.37,353.75,530.2,353.75Z"/><polygon class="cls-1" points="325.43 371.14 335.69 371.14 330.58 357.99 325.43 371.14"/><path class="cls-1" d="M607.27,282.65l-13.1-8.95-16.38-6.44-7.25,9.66s-17.44,13.4-22.82,15.31-33.32,11.34-45.38,14.5c-6.92,1.82-29,6.06-46.55,9.35a101.1,101.1,0,0,1,12.5,4.39c11.11,4.5,32.3,6.32,32.3,6.32s-22,.34-34.3-3.49S445,317.23,445,317.23h0l-6.6-1.63c-4.26-1.07-8.35-2.09-12.11-3-9.29-2.21-20.19-3.6-29.8-4.83-10.82-1.38-20.17-2.58-24.7-4.57-6.42-2.82-28.08-4.26-42.41-5.22-3.73-.25-7-.46-9.44-.67-9.58-.79-18.48-1.81-21.08-3.19-.7-.37-1.49-.79-2.62-1.29-.88-.4-2-.88-3.25-1.44-6.15-2.71-7.05-8-13.19-11.34-2.19-1.19-7.71-4.77-10.4-6.22a64.87,64.87,0,0,1-12.71-8.65c-1.14-.9-3.31-3.56-4.88-2.67-1.11.64-4.55,1.9-5.33,2.45a53.69,53.69,0,0,1-6.89,5.54c-3.74,2.5-5.75,7.46-8,8.61q-.84,8.86-.85,18a188.89,188.89,0,0,0,355.61,88.79l1-1.9a2.49,2.49,0,0,1,.11-.29l0,0c7.46-14.42,16.22-46.16,16-46.14a189.24,189.24,0,0,0,4.34-40.25Q607.84,289.92,607.27,282.65ZM313.84,383.3h-.61l-1.11-2.37a15.4,15.4,0,0,1-10.25,3.49c-9.42,0-15.83-6.1-15.83-15.61s6.83-16.32,16.24-16.32a15.87,15.87,0,0,1,9.42,2.89l.74-2.19h.7l.37,9.18h-1.07c-.78-5.17-4.4-8.81-9.79-8.81-8.3,0-10.81,8.25-10.81,15.25s2.7,14.54,10.91,14.54c6.49,0,8.86-4.66,10.25-10.25h.84Zm34.93.61c-2.18-.05-4.41-.14-6.59-.19s-4.5.14-6.73.19v-1.07c1.3,0,3.58,0,3.58-1.77a11.23,11.23,0,0,0-.93-3.64l-1.81-4.8H324.83l-.42,1.16c-.7,1.78-2.23,5.23-2.23,7,0,2,2.37,1.87,3.76,2v1.07c-1.72-.05-3.39-.14-5.1-.19s-3.2.14-4.83.19v-1.07c2.51-.28,3.53-1,4.46-3.31,1.3-3,2.55-5.92,3.85-8.91l7.1-18.32H333L342.37,376a33.21,33.21,0,0,0,2.41,5.12c1,1.35,2.41,1.54,4,1.73Zm26-23.59c-.28-4.57-2-5.78-6.41-5.78-1.71,0-4.5-.23-4.5,1.26v22.1c0,3.45.65,4.75,5.15,4.94v1.07c-2.55-.05-5.15-.14-7.7-.19s-4.87.14-7.37.19v-1.07c4.5-.19,5.14-1.49,5.14-4.94V355.8c0-1.4-2-1.26-3.89-1.26-4.6,0-6.82.23-7,5.78h-1.06v-7.27h28.48l.42,7.27Zm31.64,0c-.28-4.57-2-5.78-6.41-5.78-1.71,0-4.5-.23-4.5,1.26v22.1c0,3.45.65,4.75,5.15,4.94v1.07c-2.55-.05-5.15-.14-7.7-.19s-4.87.14-7.38.19v-1.07c4.51-.19,5.15-1.49,5.15-4.94V355.8c0-1.4-2-1.26-3.89-1.26-4.6,0-6.82.23-7,5.78H378.7v-7.27h28.49l.42,7.27Zm30.33,23.59c-.79-.05-1.63-.09-2.42-.19-8,.14-16,.14-24,.19v-1.07c1.48,0,3.38,0,4-1.59.46-1.26.46-4.71.46-6.2V361.91c0-1.5,0-5-.46-6.2-.61-1.59-2.51-1.59-4-1.59v-1.07c2.22,0,4.4.14,6.63.18s4.69-.14,7.05-.18v1.07c-1.48,0-3.38,0-4,1.59-.46,1.25-.46,4.7-.46,6.2V375.7c0,6,.93,6.95,6.82,6.95,2.18,0,4.68.09,6.59-1.16,2.32-1.45,2.6-3.22,3-5.83h1.16Zm28.33-.09H439.78v-1.08c1.48,0,3.39,0,4-1.58.46-1.26.46-4.71.46-6.2V362.09c0-1.49,0-4.94-.46-6.2-.6-1.58-2.51-1.58-4-1.58v-1.26h23.06v7h-1.07c-.88-5.46-3.29-5.78-8.21-5.78h-3.34c-.7,0-1-.05-1.16.18a7.62,7.62,0,0,0-.05,1.73v11c6.36.28,7.29-2.38,7.57-5.74h1.06c0,2.1-.09,4.25-.18,6.34.09,1.91.14,3.87.18,5.78h-1.06c-.65-4.89-3.11-5.13-7.57-5.13v7.65c0,1.4,0,3.59.84,4.71,1.2,1.63,4.08,1.73,5.94,1.68,4.82-.1,8-.7,8.58-6.25h1.07Zm44.36-.52h-.6l-1.12-2.37a15.38,15.38,0,0,1-10.25,3.49c-9.42,0-15.82-6.1-15.82-15.61s6.82-16.32,16.24-16.32a15.89,15.89,0,0,1,9.42,2.89l.74-2.19h.7l.37,9.18H508c-.79-5.17-4.41-8.81-9.79-8.81-8.3,0-10.81,8.25-10.81,15.25s2.69,14.54,10.9,14.54c6.5,0,8.86-4.66,10.26-10.25h.83Zm20.82,1.12c-9,0-16.84-6.48-16.84-15.85s8.08-16.08,17-16.08,16.66,6.52,16.66,15.76C547.05,377.8,539.58,384.42,530.2,384.42Zm23,0a2.66,2.66,0,0,1-.14-5.31,2.66,2.66,0,0,1,2.79,2.56A2.7,2.7,0,0,1,553.2,384.42Z"/><path class="cls-1" d="M607.56,338.47h0c-.36,2.43-1.75,7.24-5.23,18.16-2.59,8.12-6.32,19-10,26.78a192.19,192.19,0,0,0,20-85.76q0-7.56-.58-15h-.28c.37,4.88.56,9.82.56,14.7A194.09,194.09,0,0,1,607.56,338.47Z"/><path class="cls-1" d="M282.86,434.09a193,193,0,0,0,272.9,0,193.74,193.74,0,0,0,32.77-43.53,193,193,0,0,1-361.94-93.47c0-4.76.19-9.61.56-14.46h-.24q-.57,7.46-.57,15A191.71,191.71,0,0,0,282.86,434.09Z"/><path class="cls-1" d="M251,203.15a194,194,0,0,1,31.9-42,193,193,0,0,1,272.9,0,193.68,193.68,0,0,1,31.9,42h3.44a196.08,196.08,0,0,0-343.58,0H251Z"/><path class="cls-1" d="M612.29,297.64a192.19,192.19,0,0,1-20,85.76c-.37.77-.73,1.52-1.1,2.23L588.93,390l0,0c-.12.21-.24.41-.35.62a193.74,193.74,0,0,1-32.77,43.53A193,193,0,0,1,226.34,297.64q0-7.56.57-15h-3.07q-.57,7.42-.57,15c0,108.27,87.77,196,196,196s196-87.77,196-196q0-7.58-.57-15h-3.07Q612.28,290.09,612.29,297.64Z"/><path class="cls-1" d="M419.29,109.09a188.45,188.45,0,0,0-163.18,94.06h7.71A183,183,0,0,1,290.69,169a181.87,181.87,0,0,1,257.21,0,183.36,183.36,0,0,1,26.86,34.11h7.72A188.45,188.45,0,0,0,419.29,109.09Z"/><path class="cls-1" d="M231.38,273.27l.25-.34a23.74,23.74,0,0,1-4.22.38h-8.53a9.12,9.12,0,0,0,.75-4V214.69h0a9.51,9.51,0,0,0-.72-4h5.5c8.54,0,14.06,4.61,14.06,11.74,0,6.92-5.26,11.75-12.79,11.75H221v3.69h5.86c10.63,0,18.34,7.77,18.34,18.47a20.09,20.09,0,0,1-.6,4.89,26.93,26.93,0,0,1,3-1.39c.67-.29,1.81-.77,2.12-.94a5.55,5.55,0,0,1,2.75-.73,6.22,6.22,0,0,1,2.54.57,19,19,0,0,0,.16-2.4c0-8.57-6.37-18.2-16.93-20.85,6.35-2.48,10-8.21,10-13.25,0-9.17-9.08-15.34-22.6-15.34H202.44v2.94h4.23c3.78,0,3.78,0,3.78,4h0v56.34c0,4,0,4-3.78,4h-4.23v2.94h25.82l1.36-1.63A18.12,18.12,0,0,0,231.38,273.27Z"/><path class="cls-1" d="M270.3,269.6a12.55,12.55,0,0,1-1.15-5.67V213.84h0c0-4,0-4,3.78-4h5v-2.94H252.69v2.94h3.41c3.8,0,3.87,0,3.87,4h0v46.68a20.48,20.48,0,0,0,.12,2.11A60.73,60.73,0,0,0,270.3,269.6Z"/><path class="cls-1" d="M280,275.37l6.23.67,1.75.16c5.74-2.52,8.82-7.87,8.82-15.68v-45h0c0-4.57.81-5.68,4.14-5.68h4.82c3.8,0,3.87,0,3.87,4h0v56.34c0,4-.07,4-3.87,4h-3.4v2.94h18.18v-2.94h-3.41c-3.79,0-3.87,0-3.87-4V219.05h0v-.32h0l.22.42,28.2,53.31c.18.36.42.81.67,1.3l4.57.09V214.78h0c0-3.95.94-4.92,4.78-4.92h7.78c3.43,0,3.78.45,3.78,4.83h0v55.49c0,4,0,4-3.78,4h-4.22v1.21a27.63,27.63,0,0,1,4,1.55l.36.18H382c21.9,0,36.61-14.12,36.61-35.14s-14.71-35-36.61-35H333.38v2.94h5.13c3.84,0,4.78,1,4.78,4.92h0v40.44h0v.22l-.13-.23L318,206.92H284.53v2.94h4.41c3.33,0,4.14,1.11,4.14,5.68h0v45c0,8.86-4.83,13.55-14,13.55-.46,0-.91,0-1.34-.06C278.54,274.49,279.31,275,280,275.37Zm99.5-2.06h-7.7a8,8,0,0,0,.64-3.51V214.21h0a7.87,7.87,0,0,0-.65-3.5h7.71c19.07,0,29.16,10.81,29.16,31.25S398.57,273.31,379.5,273.31Z"/><path class="cls-1" d="M464.49,277.22,466,253h-3.53l-.61,8.54c-.59,8.4-4.22,11.82-12.52,11.82H433.18a8,8,0,0,0,1.05-4V242.25h2.6c4.63,0,8.78.69,8.78,9.09h0v6.25h2.91V225.11h-2.91v4.35c0,8.32-4,9-8.78,9h-2.6V214.69h0a8,8,0,0,0-1.05-4H444c8.73,0,12.48,3.69,13,12.75l.41,7.61h3.74l-1.78-27.81-2.89.19.23,3.7a10.1,10.1,0,0,0-2.31-.23H417.05v2.94h4.23c3.78,0,3.78,0,3.78,4h0v56.34c0,4,0,4-3.78,4h-4.23v2.94H459.3a10.17,10.17,0,0,0,2.31-.23l0,.29C462.71,277.17,463.67,277.19,464.49,277.22Z"/><path class="cls-1" d="M570.33,270.29c-.44-.56-.9-1.18-1.39-1.9-.89-1.3-1.89-2.88-3.05-4.81l-4.55-7.48a15.37,15.37,0,0,0-6.85-5.93c10.71-1.95,18-10.39,18-21.18,0-13.2-10.14-22.07-25.24-22.07H522.48v2.94h4.22c3.78,0,3.78,0,3.78,4h0v56.34c0,4,0,4-3.78,4h-4.22v0h-.88a7.4,7.4,0,0,1-6.15-2.47,27.05,27.05,0,0,1-2.89-3.74c-.82-1.21-1.73-2.66-2.77-4.39l-4.55-7.48a15.32,15.32,0,0,0-6.85-5.93c10.71-1.95,18-10.39,18-21.18,0-13.2-10.14-22.07-25.24-22.07H466.38v2.94h4.23c3.78,0,3.78,0,3.78,4h0v56.34c0,4,0,4-3.78,4h-4.23v2.94h27.37v-2.94h-6.32c-3.79,0-3.87,0-3.87-4V214.69h0a9.68,9.68,0,0,0-.71-4h7.59c10.44,0,16,6.32,16,18.28s-5.52,18.37-16,18.37h-5.23v3.69h2.13c3.53,0,5.18,2.08,8.12,6.8l5.47,8.79.39.63c.41.66,1.09,1.74,1.84,3,.37.61.77,1.24,1.16,1.88l.59.94,2.5,4.05h42.44v-2.94h-6.32c-3.8,0-3.87,0-3.87-4V214.69h0a9.68,9.68,0,0,0-.71-4h7.58c10.45,0,16,6.32,16,18.28s-5.52,18.37-16,18.37h-5.22v3.69h2.13c3.52,0,5.18,2.08,8.12,6.8l5.47,8.79.39.63,1.83,3c.38.61.78,1.24,1.17,1.88l.58.94c1.26,2,2.34,3.77,2.48,4,1.47-1.09,2.85-2.13,4.08-3.07Z"/><path class="cls-1" d="M582.31,264.57l2.49-5.94h34.63L624.25,271a20.24,20.24,0,0,0,1.52,3.21H620v2.94h19.46v-2.94h-1.77c-2.23,0-2.55-.59-4.4-5.21l-21.47-54.74a17.55,17.55,0,0,1-.74-5.11v-2.18h-8.76l-23.43,56.3Zm4.08-9.73,16-38.05c.13-.32.25-.64.36-.94.1.3.21.61.34.92L618,254.84Z"/><path class="cls-1" d="M393.64,281.71c-1.56.25-2.67,1.2-5.1,3.29-1,.89-2.34,2-4,3.31-3.1,2.49-10.85,6.19-18,9.35a33.18,33.18,0,0,1,6.86,1.89c4,1.76,13.08,2.92,23.59,4.27,9.72,1.24,20.73,2.65,30.22,4.9,3.83.91,8.06,2,12.16,3l3.4.85c22.09-3.12,49.95-7.28,57.86-9.45,2.59-.71,5-1.35,7.3-1.92A61.25,61.25,0,0,1,499,299l-8.4-2.44c-6.39-1.85-10.26-6.33-13.09-9.61a25.28,25.28,0,0,0-2.91-3.06,7.35,7.35,0,0,0-5.19-2c-.73-.06-1.55-.14-2.6-.28a69.75,69.75,0,0,0-7.89-.27c-4.46,0-10.18.1-16.81.21-4.52.08-9.39.16-14.38.22-2.58,0-5.25,0-7.95,0-5.85,0-11-.07-15.08-.13-2.79,0-5.2-.07-7.06-.07A38.48,38.48,0,0,0,393.64,281.71Z"/><path class="cls-1" d="M339.74,281.59c-2.15,1.32-4.83,3-8.44,4.83-4.46,2.29-9.44,4.79-13.29,6.72l2.25.2c1.91.16,4.38.33,6.54.48,3.77.12,7.44.29,10.86.51,8.23.54,15.43,1.38,20.12,2,4.89-2,19.17-8.15,23.59-11.45-4.12-.14-7.6-.33-10.38-.55-8.22-.66-8.94-.95-11-2.24a22.92,22.92,0,0,0-2.6-1.44,19.87,19.87,0,0,0-9-2.18c-.85,0-1.67,0-2.28.09C344.47,278.68,342.59,279.84,339.74,281.59Z"/><path class="cls-1" d="M309.57,292.77l.63-.31c.44-.22,10.84-5.39,19.22-9.69,3.39-1.74,5.95-3.31,8-4.58l.59-.37a17.61,17.61,0,0,0-3.79.34,35.81,35.81,0,0,0-3.76,1A69.15,69.15,0,0,1,317.23,282c-6.81.89-12.62.12-18.24-.62-2.94-.39-6-.79-9.1-.94-1.6-.08-2.95-.18-4.1-.31C292.19,290.27,304.84,292.77,309.57,292.77Z"/><path class="cls-1" d="M269.38,336.25a.2.2,0,0,1,0-.07.08.08,0,0,0,0,0Z"/><path class="cls-1" d="M279.79,341.56a.13.13,0,0,0,0-.06,0,0,0,0,1,0,0Z"/><path class="cls-1" d="M505.9,347.11v0a.13.13,0,0,1,0-.06S505.9,347.09,505.9,347.11Z"/><path class="cls-1" d="M482.89,340.43a0,0,0,0,1,0,0,.13.13,0,0,0,0,.06Z"/><path class="cls-1" d="M481.44,346.29s0,0,0,0,0,0,0,.07Z"/><path class="cls-1" d="M452.71,341.58a.06.06,0,0,0,0,0,.13.13,0,0,1,0,.06Z"/><path class="cls-1" d="M550.74,342.23a.06.06,0,0,0,0,0s0,0,0,.06S550.75,342.23,550.74,342.23Z"/><path class="cls-1" d="M544.62,348.48v0a.13.13,0,0,1,0,.06Z"/><path class="cls-1" d="M560,346.05v0s0,0,0,.06Z"/><path class="cls-1" d="M576.38,346.92a.13.13,0,0,1,0,.06v-.06Z"/><path class="cls-1" d="M596,346.92a.13.13,0,0,1,0,.06v0A0,0,0,0,0,596,346.92Z"/><path class="cls-1" d="M393.29,352.36s0,0,0,0a.13.13,0,0,0,0,.06Z"/><path class="cls-1" d="M363,350.83v0s0,0,0,.06Z"/><path class="cls-1" d="M342.62,348.32v0s0,0,0,0Z"/><path class="cls-1" d="M332.79,341.73v0s0,0,0-.06Z"/><path class="cls-1" d="M438.33,346.73v0s0,0,0-.06Z"/><path class="cls-1" d="M250.35,347.38s0,0,0-.06,0,0,0,0Z"/></svg>