<svg xmlns="http://www.w3.org/2000/svg" width="150.938" height="24.976" viewBox="0 0 150.938 24.976">
  <g id="Group_14" data-name="Group 14" transform="translate(-279.634 -749.455)">
    <path id="Path_134" data-name="Path 134" d="M279.634,772.742h1.094c1.5,0,1.656-.157,1.656-1.665V752.385c0-1.508-.156-1.665-1.656-1.665h-1.094v-.283h7.629c4.446,0,7.41,1.9,7.41,4.744a4.906,4.906,0,0,1-4.5,4.4v.126a7.212,7.212,0,0,1,6.88,6.786c0,3.927-3.783,6.534-8.631,6.534h-8.785Zm8.223-.282c3.883,0,6.472-2.387,6.472-5.969a6.331,6.331,0,0,0-6.661-6.472h-1.656v-.534h1.25c2.752,0,4.753-1.758,4.753-4.241,0-2.545-2.076-4.242-5.19-4.242h-2.532v.032a2.192,2.192,0,0,1,.531,1.633v18.128a2.113,2.113,0,0,1-.531,1.6v.063Z" transform="translate(0 0.212)" fill="#fff"/>
    <path id="Path_135" data-name="Path 135" d="M302.128,750.437v.283h-1.375c-1.5,0-1.658.157-1.658,1.665V769c0,2.41,1.324,3.708,3.785,3.708,3.353,0,5.159-1.694,5.159-4.839V752.951c0-1.508-.282-2.23-1.783-2.23H305.1v-.283h6.1v.283h-.812c-1.5,0-1.782.722-1.782,2.23v14.922c0,3.512-2,5.4-5.722,5.4s-6.223-2.162-6.223-5.4V752.385c0-1.508-.187-1.665-1.688-1.665h-.814v-.283Z" transform="translate(3.138 0.212)" fill="#fff"/>
    <path id="Path_136" data-name="Path 136" d="M309.3,772.742h.814c1.5,0,1.688-.157,1.688-1.665V752.385c0-1.508-.187-1.665-1.688-1.665H309.3v-.283h4.784l8.568,15.834a4.754,4.754,0,0,1,.563,1.163h.187c-.032-.345-.032-.786-.032-1.32V752.7c0-1.508-.5-1.979-2-1.979h-1.407v-.283H326.4v.283h-.5c-1.5,0-2,.471-2,1.979v20.923h-.249a7.722,7.722,0,0,0-.876-1.948l-9.694-17.687c-.317-.58-.625-1.194-.625-1.225H312.3c.03.345.03.817.03,1.35v16.965c0,1.508.187,1.665,1.689,1.665h.812v.283H309.3Z" transform="translate(6.411 0.212)" fill="#fff"/>
    <path id="Path_137" data-name="Path 137" d="M324.5,772.742H325.6c1.5,0,1.658-.157,1.658-1.665v-18.41c0-1.508-.157-1.947-1.658-1.947H324.5v-.283h8.817c7.337,0,12.227,4.511,12.227,11.278,0,6.786-4.89,11.31-12.227,11.31H324.5Zm7.974-.282c6.747,0,10.381-3.76,10.381-10.744,0-6.964-3.634-10.713-10.381-10.713h-3.314v.032a1.82,1.82,0,0,1,.53,1.476v18.441a1.826,1.826,0,0,1-.53,1.477v.03Z" transform="translate(9.697 0.212)" fill="#fff"/>
    <path id="Path_138" data-name="Path 138" d="M352.109,766.765v-1.727c0-3.017-1.626-3.363-3.378-3.363h-1.25v9.331a2.327,2.327,0,0,1-.687,1.634v.03h6.222c3,0,4.44-1.226,4.659-4.241l.187-2.514h.5l-.531,8.513-.281-.016.094-1.461h-.032a1.709,1.709,0,0,1-1.157.283H342.291v-.283h1.093c1.5,0,1.658-.157,1.658-1.665V752.6c0-1.508-.157-1.665-1.658-1.665h-1.093v-.283h12.475a1.7,1.7,0,0,1,1.156.283h.032l-.092-1.458.28-.02.563,8.514h-.563l-.124-2.2c-.189-3.393-1.814-4.554-4.816-4.554h-4.408v.032a2.319,2.319,0,0,1,.687,1.633v8.231h1.25c1.752,0,3.378-.314,3.378-3.33v-1.1h.281v10.085Z" transform="translate(13.542)" fill="#fff"/>
    <path id="Path_139" data-name="Path 139" d="M356.5,772.742H357.6c1.5,0,1.658-.157,1.658-1.665V752.385c0-1.508-.157-1.665-1.658-1.665H356.5v-.283h8.161c5,0,8.317,2.8,8.317,6.974,0,3.832-2.876,6.441-6.629,6.786l-.625.03v.19a4.847,4.847,0,0,1,3.471,2.167l1.564,2.482c.8,1.276,2.063,3.2,3.061,3.2a1.326,1.326,0,0,0,.894-.349l.688-.6.172.225-.687.6a4.066,4.066,0,0,1-2.582,1.208c-1.6,0-2.688-1.63-3.673-3.156l-2.189-3.393c-1.031-1.6-1.687-2.419-3.1-2.419h-.375v-.534h1.437c3.8,0,5.847-2.255,5.847-6.441,0-4.167-2.047-6.409-5.847-6.409h-3.252v.032a2.187,2.187,0,0,1,.531,1.633v18.41c0,1.508.187,1.665,1.689,1.665H365.2v.283H356.5Z" transform="translate(16.613 0.212)" fill="#fff"/>
    <path id="Path_140" data-name="Path 140" d="M372.612,772.742h1.093c1.5,0,1.659-.157,1.659-1.665V752.385c0-1.508-.157-1.665-1.659-1.665h-1.093v-.283h8.161c5,0,8.317,2.8,8.317,6.974,0,3.832-2.877,6.441-6.63,6.786l-.624.03v.19c2.053.219,3.561,2.19,5.034,4.265,1.639,2.309,3.416,4.595,6.064,4.595a3.213,3.213,0,0,0,3.431-3.381,2.893,2.893,0,0,0-2.859-3h-.537l.249-.566h10.752l-5.311-13.1a2.965,2.965,0,0,1-.249-1.256h-.282a3.906,3.906,0,0,1-.375,1.256l-7.478,17.18-.42-.41,8.453-19.566h2.414v.377a5.913,5.913,0,0,0,.282,1.822l7.378,18.159c.626,1.508.814,1.947,1.845,1.947h.25v.283H404.5v-.283h2.408v-.062c-.406-.157-.75-.943-.969-1.476l-1.746-4.3h-9.478a3.1,3.1,0,0,1,1.937,3c0,2.583-2.082,4.305-5.187,4.305-3.541,0-5.891-3.212-7.851-5.974-1.462-2.059-2.74-3.842-4.158-3.842h-.376v-.534h1.439c3.5,0,5.846-2.576,5.846-6.441,0-3.845-2.339-6.409-5.846-6.409h-3.252v.032a2.191,2.191,0,0,1,.53,1.633v18.41c0,1.508.188,1.665,1.689,1.665H381.3v.283h-8.692Z" transform="translate(20.095 0.212)" fill="#fff"/>
  </g>
</svg>
