<svg xmlns="http://www.w3.org/2000/svg" width="201.922" height="33.412" viewBox="0 0 201.922 33.412">
  <g id="Group_11" data-name="Group 11" transform="translate(-279.634 -749.455)">
    <path id="Path_134" data-name="Path 134" d="M279.634,780.276H281.1c2.008,0,2.216-.21,2.216-2.227V753.043c0-2.017-.208-2.227-2.216-2.227h-1.464v-.379H289.84c5.948,0,9.913,2.538,9.913,6.347,0,2.4-2.174,5.336-6.023,5.883v.169c5.439.377,9.2,4.791,9.2,9.078,0,5.253-5.061,8.741-11.546,8.741H279.634Zm11-.378c5.195,0,8.658-3.194,8.658-7.985,0-5.043-3.722-8.659-8.911-8.659h-2.216v-.714h1.672c3.682,0,6.358-2.352,6.358-5.673,0-3.405-2.777-5.675-6.944-5.675h-3.387v.042a2.932,2.932,0,0,1,.711,2.185v24.251a2.827,2.827,0,0,1-.711,2.143v.085Z" transform="translate(0 0.616)" fill="#fff"/>
    <path id="Path_135" data-name="Path 135" d="M304.821,750.437v.379h-1.84c-2.008,0-2.217.21-2.217,2.227v22.232c0,3.224,1.772,4.96,5.063,4.96,4.485,0,6.9-2.266,6.9-6.474V753.8c0-2.017-.377-2.984-2.385-2.984H308.8v-.379h8.156v.379h-1.087c-2.008,0-2.383.966-2.383,2.984v19.962c0,4.7-2.68,7.23-7.655,7.23-4.995,0-8.325-2.893-8.325-7.23V753.043c0-2.017-.251-2.227-2.258-2.227h-1.088v-.379Z" transform="translate(9.103 0.616)" fill="#fff"/>
    <path id="Path_136" data-name="Path 136" d="M309.3,780.276h1.088c2.008,0,2.258-.21,2.258-2.227V753.043c0-2.017-.251-2.227-2.258-2.227H309.3v-.379h6.4l11.462,21.182a6.36,6.36,0,0,1,.753,1.555h.25c-.042-.462-.042-1.051-.042-1.765V753.463c0-2.017-.669-2.647-2.676-2.647h-1.882v-.379h8.616v.379h-.669c-2.009,0-2.678.63-2.678,2.647v27.991H328.5a10.33,10.33,0,0,0-1.171-2.606l-12.968-23.662c-.425-.776-.836-1.6-.836-1.638h-.208c.041.462.041,1.093.041,1.806v22.7c0,2.017.251,2.227,2.26,2.227H316.7v.379h-7.4Z" transform="translate(18.595 0.616)" fill="#fff"/>
    <path id="Path_137" data-name="Path 137" d="M324.5,780.276h1.464c2.008,0,2.217-.21,2.217-2.227V753.421c0-2.017-.21-2.6-2.217-2.6H324.5v-.379h11.8c9.815,0,16.357,6.034,16.357,15.088,0,9.078-6.542,15.13-16.357,15.13H324.5Zm10.668-.378c9.026,0,13.887-5.03,13.887-14.374,0-9.316-4.861-14.331-13.887-14.331h-4.433v.042a2.435,2.435,0,0,1,.709,1.975v24.67a2.443,2.443,0,0,1-.709,1.977v.041Z" transform="translate(28.127 0.616)" fill="#fff"/>
    <path id="Path_138" data-name="Path 138" d="M355.425,772.612V770.3c0-4.036-2.175-4.5-4.52-4.5h-1.672v12.483a3.112,3.112,0,0,1-.919,2.186v.041h8.323c4.017,0,5.94-1.64,6.233-5.673l.251-3.363h.67l-.711,11.388-.376-.021.125-1.954h-.042a2.285,2.285,0,0,1-1.547.379H342.291v-.379h1.463c2.008,0,2.217-.21,2.217-2.227V753.659c0-2.017-.21-2.227-2.217-2.227h-1.463v-.379H358.98a2.271,2.271,0,0,1,1.547.379h.042l-.124-1.951.374-.026.753,11.39h-.753l-.166-2.943c-.252-4.539-2.427-6.093-6.443-6.093h-5.9v.042a3.1,3.1,0,0,1,.919,2.185v11.011h1.672c2.344,0,4.52-.42,4.52-4.454V759.12h.376v13.492Z" transform="translate(39.28)" fill="#fff"/>
    <path id="Path_139" data-name="Path 139" d="M356.5,780.276h1.464c2.008,0,2.217-.21,2.217-2.227V753.043c0-2.017-.21-2.227-2.217-2.227H356.5v-.379h10.918c6.693,0,11.126,3.74,11.126,9.33,0,5.126-3.848,8.616-8.868,9.078l-.836.041v.254a6.484,6.484,0,0,1,4.643,2.9l2.092,3.32c1.074,1.707,2.759,4.287,4.095,4.287a1.774,1.774,0,0,0,1.2-.467l.921-.8.229.3-.919.8a5.439,5.439,0,0,1-3.454,1.615c-2.143,0-3.6-2.18-4.913-4.222l-2.928-4.539c-1.38-2.144-2.257-3.236-4.14-3.236h-.5v-.714h1.923c5.084,0,7.822-3.016,7.822-8.616,0-5.574-2.738-8.574-7.822-8.574h-4.35v.042a2.926,2.926,0,0,1,.711,2.185v24.628c0,2.017.251,2.227,2.26,2.227h2.426v.379H356.5Z" transform="translate(48.19 0.616)" fill="#fff"/>
    <path id="Path_140" data-name="Path 140" d="M372.612,780.276h1.463c2.009,0,2.219-.21,2.219-2.227V753.043c0-2.017-.21-2.227-2.219-2.227h-1.463v-.379H383.53c6.692,0,11.126,3.74,11.126,9.33,0,5.126-3.849,8.616-8.87,9.078l-.835.041v.254c2.746.293,4.764,2.93,6.734,5.706,2.193,3.09,4.57,6.147,8.112,6.147a4.3,4.3,0,0,0,4.59-4.523,3.871,3.871,0,0,0-3.825-4.009h-.719l.333-.757H414.56l-7.1-17.527a3.967,3.967,0,0,1-.333-1.681h-.377a5.225,5.225,0,0,1-.5,1.681l-10,22.983-.561-.548,11.309-26.175h3.229v.5a7.91,7.91,0,0,0,.377,2.437l9.87,24.293c.838,2.017,1.088,2.6,2.468,2.6h.335v.379h-7.99v-.379H418.5v-.083c-.543-.21-1-1.261-1.3-1.975l-2.336-5.758h-12.68a4.154,4.154,0,0,1,2.592,4.009c0,3.456-2.785,5.759-6.939,5.759-4.738,0-7.881-4.3-10.5-7.991-1.956-2.754-3.665-5.139-5.562-5.139h-.5v-.714H383.2c4.686,0,7.821-3.446,7.821-8.616,0-5.144-3.129-8.574-7.821-8.574h-4.35v.042a2.932,2.932,0,0,1,.709,2.185v24.628c0,2.017.252,2.227,2.26,2.227h2.426v.379H372.612Z" transform="translate(58.289 0.616)" fill="#fff"/>
  </g>
</svg>
