<svg xmlns="http://www.w3.org/2000/svg" width="25.283" height="18.207" viewBox="0 0 25.283 18.207">
  <g id="Group_83" data-name="Group 83" transform="translate(0 0.002)">
    <path id="Path_255" data-name="Path 255" d="M12.262,0C3.919.083,0,1.389,0,1.389V16.6a57.516,57.516,0,0,0,13.189,1.6c8.006,0,12.094-1.433,12.094-1.433V1.347A64.647,64.647,0,0,0,12.262,0ZM23.218,15.126a34.147,34.147,0,0,1-10.071,1.18A43.291,43.291,0,0,1,2.149,15V2.991s3.245-1.053,10.24-1.1a59.428,59.428,0,0,1,10.83,1.053Z" transform="translate(0 0)" fill="#fff"/>
    <path id="Path_256" data-name="Path 256" d="M45.243,16.194a2.56,2.56,0,0,1,1.728,0v4.677a3.554,3.554,0,0,1-2.065-.126,2.223,2.223,0,0,1-1.1-1.222,3.885,3.885,0,0,1-.211-1.264h2.655Z" transform="translate(-25.228 -9.285)" fill="#fff"/>
    <path id="Path_257" data-name="Path 257" d="M21.116,8a42.875,42.875,0,0,1,4.467.337,6.487,6.487,0,0,0-3.413,5.52,6.369,6.369,0,0,0,2.865,5.183,31.4,31.4,0,0,1-4.72.295s-5.857-3.287-7.416-5.014A36.014,36.014,0,0,1,21.116,8Z" transform="translate(-7.464 -4.63)" fill="#fff"/>
    <path id="Path_258" data-name="Path 258" d="M17.513,8A39.185,39.185,0,0,0,9.38,14.363s1.222,1.643,7.248,5.014A41.041,41.041,0,0,1,8.2,18.408V8.885S11.108,8,17.513,8Z" transform="translate(-4.745 -4.63)" fill="#fff" opacity="0.5"/>
  </g>
</svg>
