<svg xmlns="http://www.w3.org/2000/svg" width="97.936" height="105.275" viewBox="0 0 97.936 105.275">
  <g id="Group_25" data-name="Group 25" transform="translate(-1435.043 -784.434)">
    <path id="Path_93" data-name="Path 93" d="M1451.167,886.485a14.625,14.625,0,0,0,0,29.251" transform="translate(0 -71.351)" fill="none" stroke="#a0cb3a" stroke-linecap="round" stroke-linejoin="round" stroke-width="3"/>
    <path id="Path_94" data-name="Path 94" d="M1564.266,815.137a14.6,14.6,0,0,1-14.625-14.575V785.938" transform="translate(-80.254 -0.003)" fill="none" stroke="#a0cb3a" stroke-linecap="round" stroke-linejoin="round" stroke-width="3"/>
    <path id="Path_95" data-name="Path 95" d="M1476.261,987.211a14.6,14.6,0,1,0,0,29.2" transform="translate(-17.807 -142.826)" fill="none" stroke="#a0cb3a" stroke-linecap="round" stroke-linejoin="round" stroke-width="3"/>
    <path id="Path_96" data-name="Path 96" d="M1713.094,966.045a14.6,14.6,0,1,0,0-29.2" transform="translate(-196.24 -107.085)" fill="none" stroke="#a0cb3a" stroke-linecap="round" stroke-linejoin="round" stroke-width="3"/>
    <path id="Path_97" data-name="Path 97" d="M1688,865.5a14.6,14.6,0,1,0,0-29.2" transform="translate(-178.433 -35.737)" fill="none" stroke="#a0cb3a" stroke-linecap="round" stroke-linejoin="round" stroke-width="3"/>
    <path id="Path_98" data-name="Path 98" d="M1600,1037.4a14.613,14.613,0,0,1,14.624,14.624V1066.6" transform="translate(-115.989 -178.439)" fill="none" stroke="#a0cb3a" stroke-linecap="round" stroke-linejoin="round" stroke-width="3"/>
    <line id="Line_44" data-name="Line 44" x1="62.043" transform="translate(1451.167 844.385)" fill="none" stroke="#a0cb3a" stroke-linecap="round" stroke-linejoin="round" stroke-width="3"/>
    <line id="Line_45" data-name="Line 45" x1="54.756" transform="translate(1451.167 815.134)" fill="none" stroke="#a0cb3a" stroke-linecap="round" stroke-linejoin="round" stroke-width="3"/>
    <path id="Path_99" data-name="Path 99" d="M1625.555,800.56h-21.9a3.652,3.652,0,0,1-3.652-3.652V785.934" transform="translate(-115.989 0)" fill="none" stroke="#a0cb3a" stroke-linecap="round" stroke-linejoin="round" stroke-width="3"/>
    <line id="Line_46" data-name="Line 46" x1="62.043" transform="translate(1454.811 829.759)" fill="none" stroke="#a0cb3a" stroke-linecap="round" stroke-linejoin="round" stroke-width="3"/>
    <line id="Line_47" data-name="Line 47" x1="58.399" transform="translate(1458.455 858.96)" fill="none" stroke="#a0cb3a" stroke-linecap="round" stroke-linejoin="round" stroke-width="3"/>
    <path id="Path_100" data-name="Path 100" d="M1512,1087.758H1533.9a3.651,3.651,0,0,1,3.651,3.651v10.974" transform="translate(-53.541 -214.174)" fill="none" stroke="#a0cb3a" stroke-linecap="round" stroke-linejoin="round" stroke-width="3"/>
  </g>
</svg>
