<svg xmlns="http://www.w3.org/2000/svg" width="111.759" height="105.896" viewBox="0 0 111.759 105.896">
  <g id="Group_68" data-name="Group 68" transform="translate(-634.104 -211.569)">
    <g id="Group_26" data-name="Group 26" transform="translate(657.311 274.27)">
      <path id="Path_101" data-name="Path 101" d="M692.028,333.039a15.664,15.664,0,0,1-8.111-4.531" transform="translate(-670.778 -306.677)" fill="none" stroke="#e72829" stroke-linecap="round" stroke-linejoin="round" stroke-width="3"/>
      <path id="Path_102" data-name="Path 102" d="M682.265,317.066c1.675-4.184,8.241-7.305,16.083-7.305,9.111,0,16.5,4.213,16.5,9.408,0,4.611-5.815,8.447-13.49,9.253" transform="translate(-670.312 -301.386)" fill="none" stroke="#e72829" stroke-linecap="round" stroke-linejoin="round" stroke-width="3"/>
      <ellipse id="Ellipse_6" data-name="Ellipse 6" cx="28.023" cy="20.847" rx="28.023" ry="20.847" fill="none" stroke="#e72829" stroke-linecap="round" stroke-linejoin="round" stroke-width="3"/>
    </g>
    <g id="Group_27" data-name="Group 27" transform="translate(636.202 259.941)">
      <path id="Path_103" data-name="Path 103" d="M645.751,281.58a17.394,17.394,0,0,1-6.232,4.093c-1.164.4-2.592-.593-3.317-1.128" transform="translate(-636.202 -279.103)" fill="none" stroke="#e72829" stroke-linecap="round" stroke-linejoin="round" stroke-width="3"/>
      <path id="Path_104" data-name="Path 104" d="M640.709,287.283s-.921,1.532.526,5.8a3.119,3.119,0,0,1-.526,2.555" transform="translate(-637.393 -280.713)" fill="none" stroke="#e72829" stroke-linecap="round" stroke-linejoin="round" stroke-width="3"/>
      <path id="Path_105" data-name="Path 105" d="M641.854,295.818a6.5,6.5,0,0,0,2.763,1.5c1.668.575,3.16.228,4.616,2.611" transform="translate(-637.797 -283.122)" fill="none" stroke="#e72829" stroke-linecap="round" stroke-linejoin="round" stroke-width="3"/>
      <path id="Path_106" data-name="Path 106" d="M650.318,297.565a15.134,15.134,0,0,0,3.292-2.015,6.049,6.049,0,0,1,5.337-1.9" transform="translate(-640.186 -282.494)" fill="none" stroke="#e72829" stroke-linecap="round" stroke-linejoin="round" stroke-width="3"/>
      <path id="Path_107" data-name="Path 107" d="M655.118,289.184a10.205,10.205,0,0,0-2.427-4.395c-2.225-2.228-3.989-3.76-3.325-6.66" transform="translate(-639.878 -278.129)" fill="none" stroke="#e72829" stroke-linecap="round" stroke-linejoin="round" stroke-width="3"/>
      <path id="Path_108" data-name="Path 108" d="M653.872,286.245a7.84,7.84,0,0,0,1.808-.373,3.058,3.058,0,0,0,1.53-1" transform="translate(-641.189 -280.033)" fill="none" stroke="#e72829" stroke-linecap="round" stroke-linejoin="round" stroke-width="3"/>
    </g>
    <g id="Group_28" data-name="Group 28" transform="translate(638.249 238.675)">
      <path id="Path_109" data-name="Path 109" d="M654,265.015a16.553,16.553,0,0,1,4.314-5.77c.953-.776,2.636-.345,3.5-.1" transform="translate(-643.272 -251.408)" fill="none" stroke="#e72829" stroke-linecap="round" stroke-linejoin="round" stroke-width="3"/>
      <path id="Path_110" data-name="Path 110" d="M658.822,256.337s.33-1.757-2.512-5.259a3.122,3.122,0,0,1-.4-2.578" transform="translate(-643.782 -248.5)" fill="none" stroke="#e72829" stroke-linecap="round" stroke-linejoin="round" stroke-width="3"/>
      <path id="Path_111" data-name="Path 111" d="M652.791,251.27a6.508,6.508,0,0,0-3.111-.44c-1.764.041-3.042.886-5.236-.843" transform="translate(-640.575 -248.92)" fill="none" stroke="#e72829" stroke-linecap="round" stroke-linejoin="round" stroke-width="3"/>
      <path id="Path_112" data-name="Path 112" d="M644.748,251.617a26.425,26.425,0,0,1-1.352,4.744A6.05,6.05,0,0,1,639.054,260" transform="translate(-639.054 -249.38)" fill="none" stroke="#e72829" stroke-linecap="round" stroke-linejoin="round" stroke-width="3"/>
      <path id="Path_113" data-name="Path 113" d="M643.7,261.721a17.7,17.7,0,0,0,3.8,2.322c2.862,1.314,4.014,1.383,4.4,4.333" transform="translate(-640.365 -252.232)" fill="none" stroke="#e72829" stroke-linecap="round" stroke-linejoin="round" stroke-width="3"/>
    </g>
    <g id="Group_29" data-name="Group 29" transform="translate(659.061 251.812)">
      <path id="Path_114" data-name="Path 114" d="M683.065,280.145a16.392,16.392,0,0,0,1.418-6.6c.462-1.054,2.048-1.414,2.876-1.576" transform="translate(-672.288 -268.262)" fill="none" stroke="#e72829" stroke-linecap="round" stroke-linejoin="round" stroke-width="3"/>
      <path id="Path_115" data-name="Path 115" d="M682.773,272.089s-.475-1.6-4.339-3.307c-1.077-.475-1.2-1.479-1.43-1.978" transform="translate(-670.577 -266.803)" fill="none" stroke="#e72829" stroke-linecap="round" stroke-linejoin="round" stroke-width="3"/>
      <path id="Path_116" data-name="Path 116" d="M675.55,269.482a6.081,6.081,0,0,0-2.779.962c-1.451.787-2.155,2.037-4.721,1.534" transform="translate(-668.05 -267.559)" fill="none" stroke="#e72829" stroke-linecap="round" stroke-linejoin="round" stroke-width="3"/>
      <path id="Path_117" data-name="Path 117" d="M670.826,272.928c-.154,4.552,3.19,6.107-.457,8.978" transform="translate(-668.704 -268.532)" fill="none" stroke="#e72829" stroke-linecap="round" stroke-linejoin="round" stroke-width="3"/>
      <path id="Path_118" data-name="Path 118" d="M672.745,281.765a5.148,5.148,0,0,0,3.787,1.306c2.944-.128,3.737-.366,5.319,1.925" transform="translate(-669.375 -271.026)" fill="none" stroke="#e72829" stroke-linecap="round" stroke-linejoin="round" stroke-width="3"/>
    </g>
    <g id="Group_30" data-name="Group 30" transform="translate(675.298 213.69)">
      <circle id="Ellipse_7" data-name="Ellipse 7" cx="24.199" cy="24.199" r="24.199" transform="translate(0 34.222) rotate(-45)" fill="none" stroke="#e72829" stroke-linecap="round" stroke-linejoin="round" stroke-width="3"/>
      <path id="Path_119" data-name="Path 119" d="M761.446,238.632a18.829,18.829,0,0,1,3.928-.089" transform="translate(-710.648 -220.681)" fill="none" stroke="#e72829" stroke-linecap="round" stroke-linejoin="round" stroke-width="3"/>
      <path id="Path_120" data-name="Path 120" d="M752.273,230.977s-1.779-2.235-1.971-3.384" transform="translate(-707.502 -217.614)" fill="none" stroke="#e72829" stroke-linecap="round" stroke-linejoin="round" stroke-width="3"/>
      <path id="Path_121" data-name="Path 121" d="M724.155,231.332s.353-3.536,1.258-4.269" transform="translate(-700.122 -217.465)" fill="none" stroke="#e72829" stroke-linecap="round" stroke-linejoin="round" stroke-width="3"/>
      <path id="Path_122" data-name="Path 122" d="M704.4,247.9a4.379,4.379,0,0,1,2.285.2" transform="translate(-694.547 -223.326)" fill="none" stroke="#e72829" stroke-linecap="round" stroke-linejoin="round" stroke-width="3"/>
      <path id="Path_123" data-name="Path 123" d="M709.084,280.363a7.349,7.349,0,0,1,.886-3.744" transform="translate(-695.867 -231.451)" fill="none" stroke="#e72829" stroke-linecap="round" stroke-linejoin="round" stroke-width="3"/>
      <path id="Path_124" data-name="Path 124" d="M742.393,295.136a12.517,12.517,0,0,1,2.839-2.774" transform="translate(-705.27 -235.895)" fill="none" stroke="#e72829" stroke-linecap="round" stroke-linejoin="round" stroke-width="3"/>
      <path id="Path_125" data-name="Path 125" d="M763.175,280.857s3.333-.629,4.4-.169" transform="translate(-711.135 -232.553)" fill="none" stroke="#e72829" stroke-linecap="round" stroke-linejoin="round" stroke-width="3"/>
      <path id="Path_126" data-name="Path 126" d="M762.631,247.891a4.937,4.937,0,0,1-1.185-2.3" transform="translate(-710.648 -222.694)" fill="none" stroke="#e72829" stroke-linecap="round" stroke-linejoin="round" stroke-width="3"/>
      <path id="Path_127" data-name="Path 127" d="M729.53,265.087a4.944,4.944,0,0,1-1.185-2.3" transform="translate(-701.305 -227.547)" fill="none" stroke="#e72829" stroke-linecap="round" stroke-linejoin="round" stroke-width="3"/>
      <path id="Path_128" data-name="Path 128" d="M732.074,249.493a4.945,4.945,0,0,1-1.185-2.3" transform="translate(-702.023 -223.146)" fill="none" stroke="#e72829" stroke-linecap="round" stroke-linejoin="round" stroke-width="3"/>
      <path id="Path_129" data-name="Path 129" d="M742.926,261.223a4.939,4.939,0,0,1,1.151-2.317" transform="translate(-705.42 -226.452)" fill="none" stroke="#e72829" stroke-linecap="round" stroke-linejoin="round" stroke-width="3"/>
      <path id="Path_130" data-name="Path 130" d="M742.684,282.589A4.941,4.941,0,0,1,744.8,281.1" transform="translate(-705.352 -232.717)" fill="none" stroke="#e72829" stroke-linecap="round" stroke-linejoin="round" stroke-width="3"/>
      <path id="Path_131" data-name="Path 131" d="M763.175,271.771a4.938,4.938,0,0,1,1.1-2.342" transform="translate(-711.135 -229.422)" fill="none" stroke="#e72829" stroke-linecap="round" stroke-linejoin="round" stroke-width="3"/>
      <path id="Path_132" data-name="Path 132" d="M729.508,235.652a4.939,4.939,0,0,1,2.519-.591" transform="translate(-701.633 -219.719)" fill="none" stroke="#e72829" stroke-linecap="round" stroke-linejoin="round" stroke-width="3"/>
      <path id="Path_133" data-name="Path 133" d="M710.2,258.7a4.938,4.938,0,0,1,2.529.549" transform="translate(-696.184 -226.391)" fill="none" stroke="#e72829" stroke-linecap="round" stroke-linejoin="round" stroke-width="3"/>
      <path id="Path_134" data-name="Path 134" d="M716.966,272.863a4.94,4.94,0,0,1,1.151-2.318" transform="translate(-698.093 -229.737)" fill="none" stroke="#e72829" stroke-linecap="round" stroke-linejoin="round" stroke-width="3"/>
      <path id="Path_135" data-name="Path 135" d="M746.349,237.045a4.94,4.94,0,0,1,1.554,2.069" transform="translate(-706.386 -220.282)" fill="none" stroke="#e72829" stroke-linecap="round" stroke-linejoin="round" stroke-width="3"/>
      <path id="Path_136" data-name="Path 136" d="M717.768,245.675a4.934,4.934,0,0,1,1.152-2.317" transform="translate(-698.32 -222.064)" fill="none" stroke="#e72829" stroke-linecap="round" stroke-linejoin="round" stroke-width="3"/>
      <path id="Path_137" data-name="Path 137" d="M728.547,283.77a4.94,4.94,0,0,1-1.533-2.084" transform="translate(-700.929 -232.882)" fill="none" stroke="#e72829" stroke-linecap="round" stroke-linejoin="round" stroke-width="3"/>
      <path id="Path_138" data-name="Path 138" d="M747.1,249.5a4.938,4.938,0,0,1-2.489-.706" transform="translate(-705.897 -223.599)" fill="none" stroke="#e72829" stroke-linecap="round" stroke-linejoin="round" stroke-width="3"/>
      <path id="Path_139" data-name="Path 139" d="M752.353,268.576a4.943,4.943,0,0,1-2.3,1.18" transform="translate(-707.431 -229.181)" fill="none" stroke="#e72829" stroke-linecap="round" stroke-linejoin="round" stroke-width="3"/>
      <path id="Path_140" data-name="Path 140" d="M759.933,256.973a4.944,4.944,0,0,1,.431,2.552" transform="translate(-710.221 -225.906)" fill="none" stroke="#e72829" stroke-linecap="round" stroke-linejoin="round" stroke-width="3"/>
    </g>
  </g>
</svg>
