<svg xmlns="http://www.w3.org/2000/svg" width="450.504" height="350.598" viewBox="0 0 450.504 350.598">
  <g id="Group_103" data-name="Group 103" transform="translate(-1627.239 -310.495)">
    <path id="Path_178" data-name="Path 178" d="M920.28,353.775q-20.427,4.167-40.223,9.906a8.77,8.77,0,0,0-6.26,9.677c12.184,76.455,87.229,140.783,163.439,137.416,2.253-.1,4.523-.262,6.768-.475,68.237-6.588,130.288-66.606,142.152-136.6a8.771,8.771,0,0,0-6.285-9.767c-7.505-2.163-15.043-4.2-22.614-6.039a8.71,8.71,0,0,0-10.595,6.784c-9.029,48.474-50.669,89.844-97.783,94.391-1.311.131-2.63.229-3.949.295-28.325,1.483-57.421-10.258-79.831-32.226-18.936-18.567-30.939-41.935-34.446-66.049A8.752,8.752,0,0,0,920.28,353.775Z" transform="translate(1037.254 -302.452) rotate(21)" fill="#ffc70a"/>
    <path id="Path_179" data-name="Path 179" d="M977.979,450.245c40.665-2.1,76.979-37.8,84.518-79.741a8.952,8.952,0,0,0-7.227-10.422A555.561,555.561,0,0,0,890.536,357a8.948,8.948,0,0,0-7.579,10.177c2.884,20.263,13.184,40.476,29.121,56.1C930.792,441.633,954.815,451.457,977.979,450.245Z" transform="matrix(0.766, 0.643, -0.643, 0.766, 1395.735, -526.877)" fill="#263778"/>
    <path id="Path_180" data-name="Path 180" d="M1311.011,372.358q-19-8.64-38.6-15.683a8.741,8.741,0,0,0-11.512,6.489c-15.084,76.775-81.731,139.8-157.45,147.125-2.654.254-5.31.443-7.98.557-84.845,3.753-165.561-63.558-181.637-147.584a8.722,8.722,0,0,0-11.595-6.416c-10.676,3.982-21.164,8.308-31.39,13.02a8.821,8.821,0,0,0-4.933,9.841c22.533,102.445,121.111,183.513,226.21,184.726,105.224,1.2,205.735-77.758,223.966-182.563A8.884,8.884,0,0,0,1311.011,372.358Z" transform="translate(761.527 96.645)" fill="#e72829"/>
  </g>
</svg>
