<svg xmlns="http://www.w3.org/2000/svg" width="180.227" height="92.289" viewBox="0 0 180.227 92.289">
  <g id="Group_3" data-name="Group 3" transform="translate(-93.976 -347.365)">
    <path id="Path_16" data-name="Path 16" d="M268.332,367.536H136.983a13.563,13.563,0,0,1-1.352,1.877h132.7a3.755,3.755,0,0,1,3.995,3.444v54.325H95.852V372.857a3.755,3.755,0,0,1,4-3.444h6.205a11.981,11.981,0,0,1-.63-1.431c-.053-.149-.095-.3-.142-.446H99.847a5.616,5.616,0,0,0-5.871,5.321v61.479a5.615,5.615,0,0,0,5.871,5.318H268.332a5.617,5.617,0,0,0,5.871-5.318V372.857A5.618,5.618,0,0,0,268.332,367.536Zm-35.819,61.791h1.824l1.644,2.8,1.677-2.8h1.689l-2.364,3.772,2.578,4.087H237.7l-1.812-3.063-1.836,3.063h-1.778l2.578-4.087Zm-7.51,0h1.824l1.644,2.8,1.678-2.8h1.688l-2.364,3.772,2.578,4.087h-1.857l-1.813-3.063-1.835,3.063h-1.779l2.578-4.087Zm-7.509,0h1.824l1.644,2.8,1.677-2.8h1.689l-2.364,3.772,2.578,4.087h-1.858l-1.812-3.063-1.836,3.063h-1.778l2.578-4.087Zm-7.51,0h1.824l1.644,2.8,1.678-2.8h1.688l-2.364,3.772,2.578,4.087h-1.857l-1.813-3.063-1.835,3.063h-1.779l2.578-4.087Zm-5.831,6.283h1.576v1.576h-1.576ZM199,429.192c2.466,0,3.851,1.666,3.851,4.042s-1.363,4.087-3.851,4.087c-2.522,0-3.85-1.678-3.85-4.087S196.5,429.192,199,429.192Zm-11.675.135h1.936l2.995,5.877h.023v-5.877h1.508v7.859h-1.925l-3.006-5.877h-.022v5.877h-1.509Zm-4.74,7.859h-1.576V435.61h1.576Zm-7.273-7.859h6.08v1.239h-2.252v6.62H177.56v-6.62h-2.252Zm-5.99,0h1.7c1.689,0,3.705-.056,3.705,2.128a1.8,1.8,0,0,1-1.622,1.824v.023c.428.033.676.461.833.81l1.261,3.074h-1.756l-.946-2.455c-.225-.585-.427-.81-1.092-.81H170.9v3.265h-1.577Zm-6.124,0h4.638v1.239H164.77V432.5h2.8v1.239h-2.8v2.206h3.085v1.239h-4.661Zm-2.95-.135a5.2,5.2,0,0,1,1.779.327l-.113,1.328a3.239,3.239,0,0,0-1.7-.416,2.625,2.625,0,0,0-2.634,2.848,2.588,2.588,0,0,0,2.668,2.8,4.4,4.4,0,0,0,1.723-.326l.067,1.317a7.977,7.977,0,0,1-1.79.248c-2.544,0-4.312-1.272-4.312-3.929C155.932,430.7,157.576,429.192,160.244,429.192Zm-12.351,0c2.466,0,3.851,1.666,3.851,4.042s-1.363,4.087-3.851,4.087c-2.522,0-3.85-1.678-3.85-4.087S145.394,429.192,147.893,429.192Zm-6.417,0a5.2,5.2,0,0,1,1.779.327l-.113,1.328a3.241,3.241,0,0,0-1.7-.416,2.625,2.625,0,0,0-2.634,2.848,2.588,2.588,0,0,0,2.668,2.8,4.389,4.389,0,0,0,1.722-.326l.068,1.317a7.978,7.978,0,0,1-1.79.248c-2.545,0-4.312-1.272-4.312-3.929C137.164,430.7,138.808,429.192,141.476,429.192Zm-9.806.135h1.779l3.084,7.859h-1.745l-.675-1.8h-3.186l-.687,1.8h-1.633Z" fill="#6c9522"/>
    <path id="Path_17" data-name="Path 17" d="M116.691,369.413H117.9a10.02,10.02,0,0,0,.3-1.877h-1.916A14.662,14.662,0,0,1,116.691,369.413Z" fill="#6c9522"/>
    <path id="Path_18" data-name="Path 18" d="M147.893,436.082c1.61,0,2.207-1.429,2.207-2.848,0-1.385-.642-2.8-2.207-2.8s-2.206,1.418-2.206,2.8C145.687,434.653,146.283,436.082,147.893,436.082Z" fill="#6c9522"/>
    <path id="Path_19" data-name="Path 19" d="M132.537,430.9h-.023l-1.137,3.242h2.3Z" fill="#6c9522"/>
    <path id="Path_20" data-name="Path 20" d="M199,436.082c1.61,0,2.207-1.429,2.207-2.848,0-1.385-.642-2.8-2.207-2.8s-2.207,1.418-2.207,2.8C196.789,434.653,197.386,436.082,199,436.082Z" fill="#6c9522"/>
    <path id="Path_21" data-name="Path 21" d="M173.079,431.59c0-.945-.878-1.024-1.666-1.024H170.9v2.116h.518C172.189,432.682,173.079,432.57,173.079,431.59Z" fill="#6c9522"/>
    <path id="Path_22" data-name="Path 22" d="M113.083,374.276c1.031,1.993,1.771,4.315.524,6.688-2.164,4.1-5.062,10.811-4.257,17.585.784,6.791,3.445,11.537,10.917,14.926s17.13,1.023,21.81-4.749c4.684-5.787,3.971-14.273.407-17.984-6.571-6.827-15.367-5.911-16.54-1.319-1.517,5.871,6.326,5.692,9.181,6.7,4.86,1.7,4.335,6.949,3.148,9.579-1.2,2.654-5.755,5.714-11.414,5.209-7.391-.65-11.191-4.714-12.851-9.282-2.073-5.588-1.389-8.787-.606-12.5,1.264-5.894,3.9-14.1,10.479-15.854,7.3-1.934,11.739-4.181,13.362-12.256,0,0-5.182.788-8.574,3.384a36.276,36.276,0,0,0-6.793,7.186c-2.1,2.756-2.624,1.966-.688-.7a31.175,31.175,0,0,0,4.554-12.365c.5-5.076-1.634-11.156-1.634-11.156s-4.115,1.378-5.312,8.464,1.625,9.094,1.439,11.685a10.571,10.571,0,0,1-1.837,5.564c-1.2,2.089-2.12,3.491-2.835,3.491-.683,0-.709-1.285-.709-2.889s.211-4.725-1.37-7.676a23.415,23.415,0,0,0-6.456-7.293,16.071,16.071,0,0,0,.306,8.585C108.83,371.475,112.153,372.5,113.083,374.276Z" fill="#6c9522"/>
    <path id="Path_23" data-name="Path 23" d="M128.627,422.136c14.451-.13,25.794-11.154,25.794-23.133s-10.371-21.26-21.755-21.26-15.455,6.5-16.536,13c-.58,3.478.235,8.877,2.659,11.911,4.957,6.187,10.425,5.212,13.481,3.731a4,4,0,0,0-.943-7.645c-9.576-1.7-10.366-3.817-10.366-7.213s2.829-9.184,12.185-9.184c9.393,0,16.188,9.258,16.056,17.255-.106,6.205-5.464,18.4-21.456,18.4s-20.17-10.722-21.482-18.554c-1-6.015,1.21-13.517,1.21-13.517s-3.093,6.247-3.537,11.478c-.409,4.552.294,10.265,3.5,14.858S117.211,422.235,128.627,422.136Z" fill="#6c9522"/>
    <path id="Path_24" data-name="Path 24" d="M169.7,385.026l-.967-.057.683-2.03h4.325l.532,1.5c.133.379.019.55-.342.588l-.626.076v1.423h4.516v-1.5l-.968-.076-3.927-11.042h-4.136v1.5l.986.114-3.073,8.936c-.114.322-.209.531-.645.588l-.456.057v1.423h4.1Zm1.86-9.05h.057l1.745,5.369H169.8Z"/>
    <path id="Path_25" data-name="Path 25" d="M179.286,378.993v4.553c0,2.2.986,3.245,2.978,3.245a3.119,3.119,0,0,0,2.846-1.5h.038v1.233h3.036v-1.366l-.531-.057c-.342-.038-.418-.152-.418-.607v-7.532h-3.206V378.4l.512.038c.342.038.455.151.455.569v3.832A2,2,0,0,1,183,384.95c-1.233,0-1.461-.664-1.461-1.916v-6.071H178.28V378.4l.531.038C179.153,378.481,179.286,378.594,179.286,378.993Z"/>
    <path id="Path_26" data-name="Path 26" d="M196.608,383.679c0-1.935-1.48-2.39-2.884-2.808-1.044-.3-1.878-.531-1.878-1.423,0-.8.664-1.138,1.5-1.138a3.105,3.105,0,0,1,1.025.133c.228.075.285.189.285.512v.854l1.688-.152V377.4a5.919,5.919,0,0,0-2.9-.683c-2.144,0-3.794,1.006-3.794,3,0,1.973,1.423,2.447,2.846,2.808,1.138.284,1.84.474,1.84,1.385s-.664,1.271-1.651,1.271a3.368,3.368,0,0,1-1.119-.19c-.228-.076-.3-.19-.3-.474v-.968l-1.726.133v2.485a8.212,8.212,0,0,0,3.263.627C195.128,386.791,196.608,385.671,196.608,383.679Z"/>
    <path id="Path_27" data-name="Path 27" d="M198.771,383.584c0,1.537.113,3.207,2.921,3.207a4.59,4.59,0,0,0,2.334-.608l-.436-1.555a2.776,2.776,0,0,1-1.328.36c-.8,0-1.234-.341-1.234-1.5v-4.876h2.353l.114-1.65h-2.467V374.8h-1.233c-.341,1.119-.816,2.125-2.125,2.333l-.209,1.48h1.31Z"/>
    <path id="Path_28" data-name="Path 28" d="M206.018,378.974v5.5c0,.436-.057.588-.474.626l-.569.057v1.366h4.781V385.1l-1.518-.076v-4.477a1.752,1.752,0,0,1,1.67-1.955,1.024,1.024,0,0,1,.531.1c.152.057.171.171.171.493v1.2l1.9-.133v-3.168a4.054,4.054,0,0,0-1.746-.361,2.771,2.771,0,0,0-2.694,1.689h-.019v-1.442h-3.111V378.4l.645.038C205.9,378.481,206.018,378.594,206.018,378.974Z"/>
    <path id="Path_29" data-name="Path 29" d="M217.345,386.772a3.033,3.033,0,0,0,2.618-1.272l.057.019.057,1.006h2.808v-1.366l-.55-.038c-.323-.019-.418-.152-.418-.531v-7.229a10.368,10.368,0,0,0-3.358-.645c-3.358,0-5.009,2.106-5.009,5.445C213.55,384.817,214.575,386.772,217.345,386.772Zm.93-8.348a4.277,4.277,0,0,1,1.423.246v4.668a1.755,1.755,0,0,1-1.9,1.726c-1.574,0-1.954-1.48-1.954-2.979C215.846,380.15,216.4,378.424,218.275,378.424Z"/>
    <path id="Path_30" data-name="Path 30" d="M225.086,375.027v9.449c0,.474-.1.569-.455.626l-.589.057v1.366h4.269V385.1l-1.005-.076V373H224v1.423l.608.057C224.972,374.5,225.086,374.61,225.086,375.027Z"/>
    <path id="Path_31" data-name="Path 31" d="M230.474,379.012v5.464c0,.474-.076.588-.436.626l-.607.057v1.366h4.288V385.1l-1.006-.076v-8.063h-3.32V378.4l.607.038C230.36,378.481,230.474,378.594,230.474,379.012Z"/>
    <path id="Path_32" data-name="Path 32" d="M231.461,375.559a1.317,1.317,0,0,0,1.4-1.328,1.379,1.379,0,0,0-2.751.019A1.265,1.265,0,0,0,231.461,375.559Z"/>
    <path id="Path_33" data-name="Path 33" d="M238.727,386.772a3.036,3.036,0,0,0,2.619-1.272l.057.019.056,1.006h2.808v-1.366l-.55-.038c-.322-.019-.417-.152-.417-.531v-7.229a10.368,10.368,0,0,0-3.358-.645c-3.359,0-5.009,2.106-5.009,5.445C234.933,384.817,235.957,386.772,238.727,386.772Zm.93-8.348a4.277,4.277,0,0,1,1.423.246v4.668a1.754,1.754,0,0,1-1.9,1.726c-1.575,0-1.954-1.48-1.954-2.979C237.229,380.15,237.779,378.424,239.657,378.424Z"/>
    <path id="Path_34" data-name="Path 34" d="M246.487,379.012v5.54c0,.4-.1.531-.455.55l-.588.057v1.366h4.193V385.1l-.911-.057v-4.44a1.971,1.971,0,0,1,1.973-2.03c1.233,0,1.5.759,1.5,1.917v4.079c0,.4-.114.512-.436.55l-.57.057v1.347H255.4V385.1l-.967-.057V379.96c0-2.2-1.025-3.244-2.941-3.244a3.163,3.163,0,0,0-2.9,1.556h-.019v-1.309h-3.168V378.4l.607.038C246.373,378.481,246.487,378.594,246.487,379.012Z"/>
    <path id="Path_35" data-name="Path 35" d="M170.994,419.86c3.378,0,5.54-2.2,5.54-6.526,0-4.839-2.466-6.565-5.312-6.565-2.713,0-5.654,1.689-5.654,6.565C165.568,417.64,167.6,419.86,170.994,419.86Zm.1-11.118c2.524,0,3.055,2.713,3.055,4.648,0,2.277-.645,4.516-3,4.516-2.694,0-3.187-2.5-3.187-4.667C167.959,410.981,168.756,408.742,171.089,408.742Z"/>
    <path id="Path_36" data-name="Path 36" d="M181.05,411.493h-.019v-1.442h-3.112v1.442l.646.038c.322.038.436.152.436.531v5.5c0,.436-.057.588-.474.626l-.57.056v1.367h4.782v-1.423l-1.518-.076v-4.478a1.752,1.752,0,0,1,1.669-1.954,1.025,1.025,0,0,1,.532.1c.151.057.17.171.17.493v1.2l1.9-.132v-3.169a4.059,4.059,0,0,0-1.746-.36A2.77,2.77,0,0,0,181.05,411.493Z"/>
    <path id="Path_37" data-name="Path 37" d="M186.552,414.794c0,2.808,1.271,4.535,3.738,4.535a2.912,2.912,0,0,0,2.485-1.157v.948c0,2.03-.683,2.884-2.352,2.884a3.1,3.1,0,0,1-1.082-.152c-.322-.113-.4-.227-.4-.607v-.91l-1.822.132v2.562a8.449,8.449,0,0,0,3.377.645c3.966,0,4.44-2.77,4.44-4.857v-8.329a10.286,10.286,0,0,0-3.624-.683C188.393,409.8,186.552,411.588,186.552,414.794Zm6.147.93a1.767,1.767,0,0,1-1.878,1.9c-1.745,0-1.973-1.517-1.973-2.921,0-2.012.8-3.188,2.277-3.188a4.717,4.717,0,0,1,1.574.247Z"/>
    <path id="Path_38" data-name="Path 38" d="M205.3,417.678V410.45a10.34,10.34,0,0,0-3.358-.645c-3.358,0-5.009,2.106-5.009,5.445,0,2.656,1.025,4.61,3.8,4.61a3.032,3.032,0,0,0,2.618-1.271l.057.019.057,1.006h2.808v-1.367l-.55-.037C205.392,418.191,205.3,418.058,205.3,417.678Zm-2.22-1.252a1.755,1.755,0,0,1-1.9,1.727c-1.575,0-1.954-1.48-1.954-2.979,0-1.935.55-3.662,2.428-3.662a4.263,4.263,0,0,1,1.423.247Z"/>
    <path id="Path_39" data-name="Path 39" d="M216.434,413.049c0-2.2-1.024-3.244-2.94-3.244a3.164,3.164,0,0,0-2.9,1.555h-.019v-1.309H207.4v1.442l.607.038c.361.038.475.152.475.569v5.54c0,.4-.1.532-.456.551l-.588.056v1.367h4.193v-1.423l-.91-.057v-4.44a1.97,1.97,0,0,1,1.973-2.03c1.233,0,1.5.759,1.5,1.916v4.079c0,.4-.113.513-.436.551l-.569.056v1.348H217.4v-1.423l-.968-.057Z"/>
    <path id="Path_40" data-name="Path 40" d="M221.842,410.051h-3.321v1.442l.607.038c.361.038.475.152.475.569v5.465c0,.474-.076.588-.437.626l-.607.056v1.367h4.288v-1.423l-1.005-.076Z"/>
    <path id="Path_41" data-name="Path 41" d="M221.993,407.319a1.379,1.379,0,0,0-2.751.019,1.265,1.265,0,0,0,1.347,1.309A1.316,1.316,0,0,0,221.993,407.319Z"/>
    <path id="Path_42" data-name="Path 42" d="M228.767,418.039c-1.689,0-2.372-1.328-2.372-3.245,0-2.219.911-3.206,2.372-3.206a3.164,3.164,0,0,1,.74.1c.284.1.322.247.322.569v1.12l1.765-.133v-2.694a5.577,5.577,0,0,0-2.941-.74c-2.2,0-4.573,1.271-4.573,5.084,0,3.283,1.632,4.99,4.421,4.99a5.3,5.3,0,0,0,3.358-1.176l-.854-1.518A3.608,3.608,0,0,1,228.767,418.039Z"/>
    <path id="Path_43" data-name="Path 43" d="M171.6,403.278a8.4,8.4,0,0,0,3.737-.759v-3.074l-1.84-.132v1.366c0,.322-.057.474-.361.569a6.129,6.129,0,0,1-1.366.152c-2.751,0-3.794-1.917-3.794-4.838,0-2.846,1.271-4.5,3.7-4.5a5.725,5.725,0,0,1,1.348.152c.3.1.341.247.341.569v1.328l1.84-.133v-3.035a8.913,8.913,0,0,0-3.68-.74c-2.979,0-5.939,1.65-5.939,6.583C165.587,401.134,167.788,403.278,171.6,403.278Z"/>
    <path id="Path_44" data-name="Path 44" d="M181.088,403.316a5.931,5.931,0,0,0,3.3-.968l-.664-1.574a4.218,4.218,0,0,1-2.39.777,2.248,2.248,0,0,1-2.372-2.371c3.225.114,5.521-.55,5.521-3.263,0-1.784-1.195-2.676-3.111-2.676-3.036,0-4.687,2.353-4.687,5.294C176.686,401.229,177.882,403.316,181.088,403.316Zm.19-8.4a1.027,1.027,0,0,1,1.176,1.119c0,1.139-1.081,1.556-2.732,1.556-.247,0-.493,0-.759-.019C179.1,396.334,179.76,394.911,181.278,394.911Z"/>
    <path id="Path_45" data-name="Path 45" d="M185.7,393.488v1.442l.645.038c.323.038.437.152.437.531V401c0,.437-.057.588-.475.626l-.569.057v1.366h4.781v-1.423L189,401.551v-4.477a1.751,1.751,0,0,1,1.669-1.954,1.026,1.026,0,0,1,.532.1c.151.056.17.17.17.493v1.2l1.9-.133V393.6a4.053,4.053,0,0,0-1.745-.361,2.769,2.769,0,0,0-2.694,1.689h-.019v-1.442Z"/>
    <path id="Path_46" data-name="Path 46" d="M200.63,402.709l-.436-1.556a2.765,2.765,0,0,1-1.329.36c-.8,0-1.233-.341-1.233-1.5v-4.876h2.353l.114-1.651h-2.467v-2.163H196.4c-.342,1.12-.816,2.125-2.125,2.334l-.209,1.48h1.31v4.97c0,1.537.113,3.207,2.921,3.207A4.6,4.6,0,0,0,200.63,402.709Z"/>
    <path id="Path_47" data-name="Path 47" d="M202.319,390.775a1.265,1.265,0,0,0,1.347,1.309,1.317,1.317,0,0,0,1.4-1.328,1.379,1.379,0,0,0-2.751.019Z"/>
    <path id="Path_48" data-name="Path 48" d="M201.6,393.488v1.442l.607.038c.36.038.474.152.474.569V401c0,.475-.076.588-.436.626l-.608.057v1.366h4.288v-1.423l-1.005-.076v-8.063Z"/>
    <path id="Path_49" data-name="Path 49" d="M207.764,401.627l-.569.057v1.366h4.8v-1.423l-1.518-.076v-6.469H213.1v-1.594h-2.618v-.854c0-1.062.4-1.593,1.328-1.593a3.607,3.607,0,0,1,1.651.417l.55-1.48a5.819,5.819,0,0,0-2.618-.664c-2.505,0-3.169,1.575-3.169,3.4v.778h-1.271v1.594h1.271V401C208.219,401.476,208.124,401.589,207.764,401.627Z"/>
    <path id="Path_50" data-name="Path 50" d="M217.231,393.488h-3.32v1.442l.607.038c.361.038.474.152.474.569V401c0,.475-.075.588-.436.626l-.607.057v1.366h4.288v-1.423l-1.006-.076Z"/>
    <path id="Path_51" data-name="Path 51" d="M217.383,390.756a1.379,1.379,0,0,0-2.751.019,1.265,1.265,0,0,0,1.347,1.309A1.316,1.316,0,0,0,217.383,390.756Z"/>
    <path id="Path_52" data-name="Path 52" d="M226.509,400.774a4.219,4.219,0,0,1-2.391.777,2.248,2.248,0,0,1-2.371-2.371c3.225.114,5.521-.55,5.521-3.263,0-1.784-1.2-2.676-3.112-2.676-3.035,0-4.686,2.353-4.686,5.294,0,2.694,1.195,4.781,4.4,4.781a5.934,5.934,0,0,0,3.3-.968Zm-2.448-5.863a1.028,1.028,0,0,1,1.177,1.119c0,1.139-1.082,1.556-2.732,1.556-.247,0-.494,0-.759-.019C221.88,396.334,222.544,394.911,224.061,394.911Z"/>
    <path id="Path_53" data-name="Path 53" d="M232.371,403.3a3,3,0,0,0,2.619-1.271l.076.019.056,1h2.808v-1.366l-.569-.057c-.341-.038-.4-.151-.4-.569V389.523h-3.282v1.423l.588.057c.341.038.474.151.474.55v1.954a5.3,5.3,0,0,0-1.67-.266c-2.883,0-4.458,2.258-4.458,5.351C228.615,401.1,229.507,403.3,232.371,403.3Zm.873-8.348a3.437,3.437,0,0,1,1.5.341v4.592a1.693,1.693,0,0,1-1.878,1.707c-1.575,0-1.954-1.517-1.954-3.206C230.911,396.505,231.537,394.949,233.244,394.949Z"/>
  </g>
</svg>
