<svg id="Group_8" data-name="Group 8" xmlns="http://www.w3.org/2000/svg" width="191.786" height="98.208" viewBox="0 0 191.786 98.208">
  <path id="Path_16" data-name="Path 16" d="M279.514,367.536H139.741a14.425,14.425,0,0,1-1.439,2H279.514a4,4,0,0,1,4.251,3.665v57.809H95.972V373.2a4,4,0,0,1,4.251-3.665h6.6a12.744,12.744,0,0,1-.67-1.523c-.056-.159-.1-.316-.151-.475h-5.781c-3.451,0-6.248,2.535-6.248,5.662V438.62c0,3.124,2.8,5.659,6.248,5.659H279.514c3.448,0,6.248-2.535,6.248-5.659V373.2C285.762,370.071,282.962,367.536,279.514,367.536ZM241.4,433.29h1.941l1.749,2.984,1.785-2.984h1.8l-2.516,4.014,2.743,4.349h-1.977l-1.928-3.259-1.954,3.259h-1.892l2.743-4.349Zm-7.992,0h1.941l1.749,2.984,1.786-2.984h1.8l-2.516,4.014,2.743,4.349H238.93L237,438.393l-1.953,3.259h-1.893L235.9,437.3Zm-7.991,0h1.941l1.749,2.984,1.785-2.984h1.8l-2.516,4.014,2.743,4.349h-1.977l-1.928-3.259-1.954,3.259h-1.892l2.743-4.349Zm-7.992,0h1.941l1.749,2.984,1.786-2.984h1.8l-2.516,4.014,2.743,4.349h-1.976l-1.929-3.259-1.953,3.259h-1.893l2.743-4.349Zm-6.2,6.686H212.9v1.677h-1.677Zm-5.488-6.83c2.624,0,4.1,1.773,4.1,4.3s-1.45,4.349-4.1,4.349c-2.684,0-4.1-1.786-4.1-4.349S203.072,433.146,205.731,433.146Zm-12.424.144h2.06l3.187,6.254h.024V433.29h1.6v8.363h-2.048l-3.2-6.254h-.023v6.254h-1.606Zm-5.044,8.363h-1.677v-1.677h1.677Zm-7.739-8.363h6.47v1.318h-2.4v7.044h-1.677v-7.044h-2.4Zm-6.374,0h1.809c1.8,0,3.943-.06,3.943,2.264a1.914,1.914,0,0,1-1.726,1.941v.024c.455.035.719.491.886.862l1.342,3.271h-1.869l-1.007-2.612c-.239-.622-.454-.862-1.162-.862h-.538v3.474H174.15Zm-6.517,0h4.935v1.318H169.31v2.06h2.983v1.318H169.31v2.348h3.283v1.318h-4.96Zm-3.139-.144a5.528,5.528,0,0,1,1.893.348l-.12,1.413a3.447,3.447,0,0,0-1.809-.443,2.793,2.793,0,0,0-2.8,3.031,2.754,2.754,0,0,0,2.839,2.983,4.679,4.679,0,0,0,1.833-.347l.071,1.4a8.492,8.492,0,0,1-1.9.264c-2.707,0-4.589-1.354-4.589-4.181C159.905,434.752,161.655,433.146,164.494,433.146Zm-13.143,0c2.624,0,4.1,1.773,4.1,4.3s-1.45,4.349-4.1,4.349c-2.684,0-4.1-1.786-4.1-4.349S148.692,433.146,151.351,433.146Zm-6.829,0a5.528,5.528,0,0,1,1.893.348l-.12,1.413a3.449,3.449,0,0,0-1.809-.443,2.793,2.793,0,0,0-2.8,3.031,2.754,2.754,0,0,0,2.839,2.983,4.67,4.67,0,0,0,1.832-.347l.072,1.4a8.492,8.492,0,0,1-1.9.264c-2.708,0-4.589-1.354-4.589-4.181C139.934,434.752,141.683,433.146,144.522,433.146Zm-10.435.144h1.893l3.282,8.363h-1.857l-.718-1.918H133.3l-.731,1.918h-1.738Z" transform="translate(-93.976 -346.071)" fill="#fff"/>
  <path id="Path_17" data-name="Path 17" d="M116.717,369.533H118a10.662,10.662,0,0,0,.317-2h-2.039A15.605,15.605,0,0,1,116.717,369.533Z" transform="translate(-92.546 -346.071)" fill="#fff"/>
  <path id="Path_18" data-name="Path 18" d="M148.035,436.444c1.713,0,2.349-1.521,2.349-3.031,0-1.474-.683-2.983-2.349-2.983s-2.347,1.509-2.347,2.983C145.687,434.924,146.321,436.444,148.035,436.444Z" transform="translate(-90.66 -342.038)" fill="#fff"/>
  <path id="Path_19" data-name="Path 19" d="M132.611,430.9h-.024l-1.21,3.45h2.444Z" transform="translate(-91.577 -342.007)" fill="#fff"/>
  <path id="Path_20" data-name="Path 20" d="M199.138,436.444c1.713,0,2.349-1.521,2.349-3.031,0-1.474-.683-2.983-2.349-2.983s-2.349,1.509-2.349,2.983C196.789,434.924,197.424,436.444,199.138,436.444Z" transform="translate(-87.382 -342.038)" fill="#fff"/>
  <path id="Path_21" data-name="Path 21" d="M173.219,431.656c0-1.006-.934-1.09-1.773-1.09H170.9v2.252h.551C172.272,432.818,173.219,432.7,173.219,431.656Z" transform="translate(-89.043 -342.029)" fill="#fff"/>
  <path id="Path_22" data-name="Path 22" d="M113.5,376c1.1,2.121,1.885,4.592.558,7.117-2.3,4.364-5.387,11.5-4.53,18.713.834,7.227,3.666,12.277,11.617,15.883s18.229,1.089,23.209-5.054c4.984-6.158,4.226-15.188.433-19.137-6.992-7.265-16.353-6.29-17.6-1.4-1.614,6.248,6.732,6.057,9.77,7.13,5.172,1.812,4.613,7.395,3.35,10.193-1.275,2.824-6.124,6.08-12.146,5.543-7.865-.692-11.909-5.016-13.675-9.877-2.206-5.946-1.478-9.351-.645-13.3,1.345-6.272,4.154-15.008,11.151-16.871,7.772-2.058,12.492-4.449,14.219-13.042,0,0-5.514.839-9.124,3.6a38.6,38.6,0,0,0-7.229,7.647c-2.235,2.933-2.792,2.092-.732-.745a33.175,33.175,0,0,0,4.846-13.158c.535-5.4-1.739-11.871-1.739-11.871s-4.379,1.466-5.653,9.007,1.729,9.677,1.531,12.434a11.248,11.248,0,0,1-1.955,5.921c-1.275,2.223-2.256,3.715-3.017,3.715-.727,0-.754-1.367-.754-3.074s.225-5.028-1.458-8.168a24.917,24.917,0,0,0-6.87-7.761,17.1,17.1,0,0,0,.326,9.136C108.974,373.021,112.511,374.11,113.5,376Z" transform="translate(-93.168 -347.365)" fill="#fff"/>
  <path id="Path_23" data-name="Path 23" d="M130.217,424.983c15.378-.138,27.448-11.869,27.448-24.617s-11.036-22.623-23.15-22.623-16.446,6.922-17.6,13.833c-.617,3.7.25,9.446,2.83,12.675,5.275,6.584,11.094,5.546,14.346,3.97a4.253,4.253,0,0,0-1-8.135c-10.19-1.809-11.031-4.062-11.031-7.676s3.01-9.773,12.966-9.773c10,0,17.226,9.852,17.086,18.362C152,407.6,146.3,420.58,129.28,420.58s-21.464-11.41-22.86-19.744c-1.066-6.4,1.288-14.384,1.288-14.384s-3.291,6.648-3.764,12.214c-.435,4.844.313,10.923,3.719,15.811S118.069,425.088,130.217,424.983Z" transform="translate(-93.344 -345.417)" fill="#fff"/>
  <path id="Path_24" data-name="Path 24" d="M169.967,385.739l-1.029-.061.727-2.16h4.6l.566,1.6c.142.4.02.585-.364.626l-.666.081v1.514h4.806v-1.6l-1.03-.081-4.179-11.75H169v1.6l1.049.121-3.27,9.509c-.121.343-.222.565-.686.626l-.485.061v1.514h4.361Zm1.979-9.63h.061l1.857,5.713h-3.8Z" transform="translate(-89.382 -345.663)" fill="#fff"/>
  <path id="Path_25" data-name="Path 25" d="M179.351,379.123v4.845c0,2.342,1.049,3.453,3.169,3.453a3.319,3.319,0,0,0,3.029-1.6h.04v1.312h3.231v-1.454l-.565-.061c-.364-.04-.445-.162-.445-.646v-8.015H184.4V378.5l.545.04c.364.04.484.161.484.605v4.078a2.124,2.124,0,0,1-2.12,2.241c-1.312,0-1.555-.707-1.555-2.039v-6.46H178.28V378.5l.565.04C179.209,378.578,179.351,378.7,179.351,379.123Z" transform="translate(-88.569 -345.467)" fill="#fff"/>
  <path id="Path_26" data-name="Path 26" d="M197.062,384.126c0-2.059-1.575-2.543-3.069-2.988-1.111-.322-2-.565-2-1.514,0-.848.707-1.211,1.594-1.211a3.307,3.307,0,0,1,1.091.141c.243.08.3.2.3.545v.909l1.8-.162v-2.4a6.3,6.3,0,0,0-3.089-.727c-2.282,0-4.037,1.071-4.037,3.19,0,2.1,1.514,2.6,3.029,2.988,1.211.3,1.958.5,1.958,1.474s-.707,1.353-1.757,1.353a3.583,3.583,0,0,1-1.191-.2c-.243-.081-.323-.2-.323-.5v-1.03l-1.837.142v2.644a8.738,8.738,0,0,0,3.472.667C195.487,387.437,197.062,386.245,197.062,384.126Z" transform="translate(-87.848 -345.483)" fill="#fff"/>
  <path id="Path_27" data-name="Path 27" d="M198.855,384.147c0,1.636.12,3.413,3.108,3.413a4.885,4.885,0,0,0,2.484-.647l-.464-1.655a2.954,2.954,0,0,1-1.413.383c-.848,0-1.313-.363-1.313-1.6v-5.189h2.5l.121-1.756h-2.625v-2.3h-1.312c-.363,1.191-.868,2.261-2.261,2.483l-.222,1.575h1.394Z" transform="translate(-87.339 -345.606)" fill="#fff"/>
  <path id="Path_28" data-name="Path 28" d="M206.087,379.119v5.855c0,.464-.061.626-.5.666l-.605.061v1.454h5.088V385.64l-1.615-.081v-4.764a1.865,1.865,0,0,1,1.777-2.08,1.088,1.088,0,0,1,.565.1c.162.061.182.182.182.525v1.273l2.019-.141V377.1a4.313,4.313,0,0,0-1.858-.384,2.949,2.949,0,0,0-2.867,1.8h-.02v-1.534h-3.311v1.534l.686.04C205.966,378.594,206.087,378.714,206.087,379.119Z" transform="translate(-86.86 -345.483)" fill="#fff"/>
  <path id="Path_29" data-name="Path 29" d="M217.588,387.417a3.228,3.228,0,0,0,2.786-1.354l.061.02.061,1.07h2.988V385.7l-.585-.04c-.344-.02-.445-.162-.445-.565V377.4a11.033,11.033,0,0,0-3.573-.686c-3.573,0-5.33,2.241-5.33,5.794C213.55,385.337,214.641,387.417,217.588,387.417Zm.99-8.883a4.551,4.551,0,0,1,1.514.262v4.967a1.867,1.867,0,0,1-2.02,1.837c-1.675,0-2.079-1.575-2.079-3.17C215.993,380.37,216.579,378.534,218.578,378.534Z" transform="translate(-86.307 -345.483)" fill="#fff"/>
  <path id="Path_30" data-name="Path 30" d="M225.155,375.157v10.055c0,.5-.1.605-.484.666l-.627.061v1.454h4.543v-1.514l-1.069-.081V373H224v1.514l.647.061C225.034,374.592,225.155,374.713,225.155,375.157Z" transform="translate(-85.637 -345.721)" fill="#fff"/>
  <path id="Path_31" data-name="Path 31" d="M230.543,379.143v5.814c0,.5-.081.626-.464.666l-.646.061v1.454H234v-1.514l-1.071-.081v-8.58h-3.533V378.5l.646.04C230.422,378.578,230.543,378.7,230.543,379.143Z" transform="translate(-85.291 -345.467)" fill="#fff"/>
  <path id="Path_32" data-name="Path 32" d="M231.547,375.726a1.4,1.4,0,0,0,1.494-1.413,1.467,1.467,0,0,0-2.927.02A1.347,1.347,0,0,0,231.547,375.726Z" transform="translate(-85.245 -345.724)" fill="#fff"/>
  <path id="Path_33" data-name="Path 33" d="M238.97,387.417a3.231,3.231,0,0,0,2.787-1.354l.061.02.06,1.07h2.988V385.7l-.585-.04c-.343-.02-.444-.162-.444-.565V377.4a11.033,11.033,0,0,0-3.573-.686c-3.574,0-5.33,2.241-5.33,5.794C234.933,385.337,236.023,387.417,238.97,387.417Zm.99-8.883a4.551,4.551,0,0,1,1.514.262v4.967a1.867,1.867,0,0,1-2.019,1.837c-1.676,0-2.079-1.575-2.079-3.17C237.376,380.37,237.962,378.534,239.96,378.534Z" transform="translate(-84.936 -345.483)" fill="#fff"/>
  <path id="Path_34" data-name="Path 34" d="M246.556,379.159v5.9c0,.424-.1.565-.484.585l-.626.061v1.454h4.462V385.64l-.969-.061v-4.725a2.1,2.1,0,0,1,2.1-2.16c1.312,0,1.6.808,1.6,2.04v4.341c0,.424-.121.545-.464.585l-.607.061v1.433h4.482V385.64l-1.029-.061v-5.411c0-2.341-1.091-3.452-3.13-3.452a3.366,3.366,0,0,0-3.089,1.656h-.02v-1.393h-3.371v1.534l.646.04C246.435,378.594,246.556,378.714,246.556,379.159Z" transform="translate(-84.264 -345.483)" fill="#fff"/>
  <path id="Path_35" data-name="Path 35" d="M171.342,420.7c3.595,0,5.9-2.342,5.9-6.945,0-5.149-2.624-6.986-5.653-6.986-2.887,0-6.017,1.8-6.017,6.986C165.568,418.337,167.728,420.7,171.342,420.7Zm.1-11.831c2.686,0,3.251,2.887,3.251,4.946,0,2.423-.686,4.806-3.19,4.806-2.867,0-3.391-2.665-3.391-4.966C168.112,411.251,168.96,408.869,171.443,408.869Z" transform="translate(-89.385 -343.555)" fill="#fff"/>
  <path id="Path_36" data-name="Path 36" d="M181.251,411.6h-.02v-1.535h-3.312V411.6l.687.04c.343.04.464.162.464.565v5.856c0,.464-.061.626-.5.666l-.607.06v1.455h5.089v-1.514l-1.615-.081v-4.765a1.864,1.864,0,0,1,1.776-2.079,1.091,1.091,0,0,1,.566.1c.161.061.181.182.181.525V413.7l2.02-.14v-3.372a4.32,4.32,0,0,0-1.858-.383A2.948,2.948,0,0,0,181.251,411.6Z" transform="translate(-88.592 -343.36)" fill="#fff"/>
  <path id="Path_37" data-name="Path 37" d="M186.552,415.114c0,2.988,1.353,4.826,3.978,4.826a3.1,3.1,0,0,0,2.644-1.231v1.009c0,2.16-.727,3.069-2.5,3.069a3.3,3.3,0,0,1-1.151-.162c-.343-.12-.423-.242-.423-.646v-.968l-1.939.141v2.726a8.99,8.99,0,0,0,3.594.686c4.22,0,4.725-2.948,4.725-5.169v-8.863a10.945,10.945,0,0,0-3.856-.727C188.511,409.8,186.552,411.7,186.552,415.114Zm6.541.99a1.881,1.881,0,0,1-2,2.019c-1.857,0-2.1-1.614-2.1-3.108,0-2.141.848-3.393,2.423-3.393a5.019,5.019,0,0,1,1.675.263Z" transform="translate(-88.039 -343.36)" fill="#fff"/>
  <path id="Path_38" data-name="Path 38" d="M205.834,418.183v-7.691a11,11,0,0,0-3.573-.686c-3.573,0-5.33,2.241-5.33,5.794,0,2.826,1.091,4.906,4.038,4.906a3.227,3.227,0,0,0,2.786-1.353l.061.02.061,1.071h2.988v-1.455l-.585-.039C205.935,418.729,205.834,418.587,205.834,418.183Zm-2.362-1.332a1.867,1.867,0,0,1-2.019,1.838c-1.676,0-2.079-1.575-2.079-3.17,0-2.059.585-3.9,2.584-3.9a4.538,4.538,0,0,1,1.514.263Z" transform="translate(-87.373 -343.36)" fill="#fff"/>
  <path id="Path_39" data-name="Path 39" d="M217.013,413.257c0-2.342-1.09-3.452-3.129-3.452a3.366,3.366,0,0,0-3.089,1.655h-.02v-1.393H207.4V411.6l.646.04c.384.04.505.162.505.605v5.9c0,.425-.1.566-.485.586l-.626.06v1.455h4.462v-1.514l-.968-.061v-4.725a2.1,2.1,0,0,1,2.1-2.16c1.312,0,1.594.808,1.594,2.039v4.341c0,.425-.12.546-.464.586l-.605.06v1.435h4.482v-1.514l-1.03-.061Z" transform="translate(-86.702 -343.36)" fill="#fff"/>
  <path id="Path_40" data-name="Path 40" d="M222.055,410.051h-3.534v1.535l.646.04c.384.04.505.162.505.605v5.815c0,.5-.081.626-.465.666l-.646.06v1.455h4.563v-1.514l-1.069-.081Z" transform="translate(-85.989 -343.345)" fill="#fff"/>
  <path id="Path_41" data-name="Path 41" d="M222.169,407.4a1.467,1.467,0,0,0-2.927.02,1.346,1.346,0,0,0,1.433,1.393A1.4,1.4,0,0,0,222.169,407.4Z" transform="translate(-85.942 -343.601)" fill="#fff"/>
  <path id="Path_42" data-name="Path 42" d="M229.068,418.567c-1.8,0-2.524-1.413-2.524-3.453,0-2.361.969-3.412,2.524-3.412a3.364,3.364,0,0,1,.787.1c.3.1.343.263.343.605V413.6l1.878-.141v-2.867a5.935,5.935,0,0,0-3.13-.788c-2.342,0-4.866,1.353-4.866,5.41,0,3.494,1.737,5.31,4.7,5.31a5.643,5.643,0,0,0,3.573-1.251l-.909-1.615A3.839,3.839,0,0,1,229.068,418.567Z" transform="translate(-85.632 -343.36)" fill="#fff"/>
  <path id="Path_43" data-name="Path 43" d="M171.988,404.116a8.937,8.937,0,0,0,3.977-.808v-3.271l-1.958-.141v1.454c0,.343-.061.5-.384.606a6.523,6.523,0,0,1-1.454.162c-2.927,0-4.037-2.04-4.037-5.148,0-3.029,1.353-4.785,3.936-4.785a6.093,6.093,0,0,1,1.434.162c.322.1.363.263.363.605v1.413l1.958-.142v-3.23a9.484,9.484,0,0,0-3.916-.787c-3.17,0-6.32,1.756-6.32,7.005C165.587,401.835,167.929,404.116,171.988,404.116Z" transform="translate(-89.383 -344.617)" fill="#fff"/>
  <path id="Path_44" data-name="Path 44" d="M181.37,403.962a6.311,6.311,0,0,0,3.513-1.03l-.707-1.675a4.489,4.489,0,0,1-2.543.827,2.392,2.392,0,0,1-2.524-2.523c3.432.121,5.875-.585,5.875-3.472,0-1.9-1.272-2.848-3.31-2.848-3.231,0-4.988,2.5-4.988,5.633C176.686,401.741,177.959,403.962,181.37,403.962Zm.2-8.944a1.093,1.093,0,0,1,1.251,1.191c0,1.212-1.15,1.656-2.907,1.656-.263,0-.525,0-.808-.02C179.251,396.532,179.957,395.018,181.573,395.018Z" transform="translate(-88.672 -344.423)" fill="#fff"/>
  <path id="Path_45" data-name="Path 45" d="M185.7,393.5v1.534l.686.04c.344.04.465.162.465.565V401.5c0,.465-.061.626-.505.666l-.605.061v1.454h5.088v-1.514l-1.614-.081V397.32a1.864,1.864,0,0,1,1.776-2.079,1.09,1.09,0,0,1,.566.1c.161.06.181.181.181.525v1.272l2.019-.142v-3.371a4.313,4.313,0,0,0-1.857-.384,2.947,2.947,0,0,0-2.867,1.8h-.02V393.5Z" transform="translate(-88.094 -344.423)" fill="#fff"/>
  <path id="Path_46" data-name="Path 46" d="M201.051,403.439l-.464-1.656a2.942,2.942,0,0,1-1.414.383c-.847,0-1.312-.363-1.312-1.594v-5.189h2.5l.121-1.757h-2.625v-2.3h-1.312c-.364,1.192-.868,2.261-2.261,2.484l-.222,1.575h1.394v5.289c0,1.636.12,3.413,3.108,3.413A4.9,4.9,0,0,0,201.051,403.439Z" transform="translate(-87.557 -344.546)" fill="#fff"/>
  <path id="Path_47" data-name="Path 47" d="M202.319,390.858a1.346,1.346,0,0,0,1.433,1.393,1.4,1.4,0,0,0,1.494-1.413,1.467,1.467,0,0,0-2.927.02Z" transform="translate(-87.028 -344.664)" fill="#fff"/>
  <path id="Path_48" data-name="Path 48" d="M201.6,393.488v1.534l.646.04c.383.04.5.162.5.605v5.814c0,.505-.081.626-.464.666l-.647.061v1.454H206.2v-1.514l-1.069-.081v-8.58Z" transform="translate(-87.074 -344.407)" fill="#fff"/>
  <path id="Path_49" data-name="Path 49" d="M207.816,402.417l-.605.061v1.454h5.108v-1.514l-1.615-.081v-6.884h2.786v-1.7H210.7v-.909c0-1.13.424-1.7,1.413-1.7a3.838,3.838,0,0,1,1.757.444l.585-1.575a6.191,6.191,0,0,0-2.786-.707c-2.666,0-3.372,1.676-3.372,3.614v.828h-1.353v1.7H208.3v6.3C208.3,402.256,208.2,402.376,207.816,402.417Z" transform="translate(-86.731 -344.675)" fill="#fff"/>
  <path id="Path_50" data-name="Path 50" d="M217.444,393.488h-3.533v1.534l.646.04c.384.04.5.162.5.605v5.814c0,.505-.08.626-.464.666l-.646.061v1.454h4.563v-1.514l-1.07-.081Z" transform="translate(-86.284 -344.407)" fill="#fff"/>
  <path id="Path_51" data-name="Path 51" d="M217.559,390.838a1.467,1.467,0,0,0-2.927.02,1.346,1.346,0,0,0,1.433,1.393A1.4,1.4,0,0,0,217.559,390.838Z" transform="translate(-86.238 -344.664)" fill="#fff"/>
  <path id="Path_52" data-name="Path 52" d="M226.96,401.257a4.49,4.49,0,0,1-2.544.827,2.392,2.392,0,0,1-2.523-2.523c3.432.121,5.875-.585,5.875-3.472,0-1.9-1.272-2.848-3.312-2.848-3.23,0-4.987,2.5-4.987,5.633,0,2.867,1.272,5.088,4.684,5.088a6.314,6.314,0,0,0,3.513-1.03Zm-2.605-6.239a1.093,1.093,0,0,1,1.252,1.191c0,1.212-1.151,1.656-2.907,1.656-.263,0-.526,0-.808-.02C222.035,396.532,222.741,395.018,224.355,395.018Z" transform="translate(-85.928 -344.423)" fill="#fff"/>
  <path id="Path_53" data-name="Path 53" d="M232.612,404.18a3.2,3.2,0,0,0,2.787-1.353l.081.02.06,1.069h2.988v-1.454l-.605-.061c-.363-.04-.424-.161-.424-.606V389.523h-3.492v1.514l.626.061c.363.04.5.161.5.585v2.079a5.639,5.639,0,0,0-1.777-.283c-3.068,0-4.744,2.4-4.744,5.694C228.615,401.838,229.564,404.18,232.612,404.18Zm.929-8.883a3.657,3.657,0,0,1,1.6.363v4.886a1.8,1.8,0,0,1-2,1.816c-1.676,0-2.079-1.614-2.079-3.412C231.058,396.953,231.724,395.3,233.541,395.3Z" transform="translate(-85.341 -344.661)" fill="#fff"/>
</svg>
