<svg xmlns="http://www.w3.org/2000/svg" width="104.51" height="100.772" viewBox="0 0 104.51 100.772">
  <g id="Group_6" data-name="Group 6" transform="translate(592.638 -466.504)">
    <path id="Path_75" data-name="Path 75" d="M-545.6,476.609a11.074,11.074,0,0,0,3.616-4.543A11.081,11.081,0,0,1-545.6,476.609Z" fill="none"/>
    <path id="Path_76" data-name="Path 76" d="M-492.982,471.71a5.978,5.978,0,0,1-1.869-2.76c-.161-.384-.315-.754-.491-1.091h0c.176.338.33.707.491,1.092A5.968,5.968,0,0,0-492.982,471.71Z" fill="none"/>
    <path id="Path_77" data-name="Path 77" d="M-490.263,492.43a132.562,132.562,0,0,1,.381,16.822,132.562,132.562,0,0,0-.381-16.822c-.446-7.009-.907-14.245-.076-20.129h0C-491.17,478.185-490.709,485.422-490.263,492.43Z" fill="none"/>
    <path id="Path_78" data-name="Path 78" d="M-507.922,512.2l1.381.005-1.381-.005Z" fill="none"/>
    <path id="Path_79" data-name="Path 79" d="M-494.72,512.179c.527.005,1.11.013,1.769.025l.237.005-.237-.005C-493.61,512.192-494.193,512.184-494.72,512.179Z" fill="none"/>
    <path id="Path_80" data-name="Path 80" d="M-499.331,512.28v12.256h0V512.28l.544-.049.059,0-.059,0Z" fill="none"/>
    <path id="Path_81" data-name="Path 81" d="M-503.463,512.809l-.032-.334.031.333v11.381c.923.072,1.8.145,2.662.219-.858-.074-1.738-.147-2.661-.219Z" fill="none"/>
    <path id="Path_82" data-name="Path 82" d="M-544.982,469.06a5.306,5.306,0,0,1-.816,2.3A5.294,5.294,0,0,0-544.982,469.06Z" fill="none"/>
    <path id="Path_83" data-name="Path 83" d="M-578.583,473.721l.06.258c.865,3.681,1.576,8.267,2.1,12.223-.524-3.956-1.236-8.542-2.1-12.223Z" fill="none"/>
    <rect id="Rectangle_4" data-name="Rectangle 4" width="13.723" transform="translate(-575.461 494.513)" fill="none"/>
    <path id="Path_84" data-name="Path 84" d="M-579.144,473.519c-1.579.1-2.89.152-4.009.152-3.637,0-5.786-.542-6.969-1.759a4.247,4.247,0,0,1-1-1.781,4.247,4.247,0,0,0,1,1.781c1.183,1.217,3.332,1.759,6.97,1.759,1.119,0,2.43-.05,4.008-.152l.505-.033h0Z" fill="none"/>
    <path id="Path_85" data-name="Path 85" d="M-553.182,473.671c-1.119,0-2.43-.05-4.008-.152l-.506-.033h0l.506.033c1.578.1,2.89.152,4.008.152h0a13.562,13.562,0,0,0,5.736-.9,13.568,13.568,0,0,1-5.737.9Z" fill="none"/>
    <path id="Path_86" data-name="Path 86" d="M-560.311,486.315c.727-3.98,1.627-8.62,2.5-12.336l.063-.272-.064.272C-558.685,477.7-559.584,482.335-560.311,486.315Z" fill="none"/>
    <path id="Path_87" data-name="Path 87" d="M-493.194,515.681a12.185,12.185,0,0,0,.541-1.5A12.352,12.352,0,0,1-493.194,515.681Z" fill="none"/>
    <path id="Path_88" data-name="Path 88" d="M-569.657,558.622h-2.3v3.007h2.3a1.041,1.041,0,0,0,.546-.126c.32-.188.479-.664.479-1.433Q-568.645,558.624-569.657,558.622Z" fill="none"/>
    <path id="Path_89" data-name="Path 89" d="M-495.713,523.252h0a10.1,10.1,0,0,1,.118-1.6A10.111,10.111,0,0,0-495.713,523.252Z" fill="none"/>
    <path id="Path_90" data-name="Path 90" d="M-507.923,523.875h0c-.477-.031-.967-.06-1.455-.089Z" fill="none"/>
    <path id="Path_91" data-name="Path 91" d="M-557.984,497.309c.9-3.667,1.653-7.557,2.267-11.752-.615,4.194-1.366,8.084-2.268,11.752l-.112.457h0Z" fill="none"/>
    <path id="Path_92" data-name="Path 92" d="M-512.334,512.182l-9.348-.032h0l9.348.032.056,1.216v10.224h0V513.4Z" fill="none"/>
    <path id="Path_93" data-name="Path 93" d="M-541.98,472.063c.04-.088.073-.183.112-.272C-541.907,471.88-541.94,471.975-541.98,472.063Z" fill="none"/>
    <path id="Path_94" data-name="Path 94" d="M-557.434,512.283l.031.339v11.466h0V512.622Z" fill="none"/>
    <path id="Path_95" data-name="Path 95" d="M-572.3,511.836a.6.6,0,0,0,.414.18l2.522-.006-2.521.006A.6.6,0,0,1-572.3,511.836Z" fill="none"/>
    <path id="Path_96" data-name="Path 96" d="M-553.269,523.812c-.893.055-1.758.112-2.61.17.852-.058,1.717-.115,2.61-.17V512.041h0Z" fill="none"/>
    <path id="Path_97" data-name="Path 97" d="M-564.674,512.846l-.032-.486.031.486v11.863c.516-.051,1.062-.1,1.612-.153-.55.051-1.1.1-1.611.153Z" fill="none"/>
    <path id="Path_98" data-name="Path 98" d="M-560.541,524.333c-.611.051-1.194.1-1.772.155.578-.052,1.162-.1,1.772-.155V512.015l1.022,0-1.022,0Z" fill="none"/>
    <path id="Path_99" data-name="Path 99" d="M-554.143,477.743a12.885,12.885,0,0,0,1.665.372A12.885,12.885,0,0,1-554.143,477.743Z" fill="none"/>
    <path id="Path_100" data-name="Path 100" d="M-547.074,542.2h-2.979v3.715h2.979a1.223,1.223,0,0,0,1-.359,2.447,2.447,0,0,0,.3-1.453,2.5,2.5,0,0,0-.324-1.5A1.163,1.163,0,0,0-547.074,542.2Z" fill="none"/>
    <path id="Path_101" data-name="Path 101" d="M-491.664,558.89a1.555,1.555,0,0,0-.943-.268h-2.247v6.785h2.247q1.758,0,1.758-3.357Q-490.849,559.492-491.664,558.89Z" fill="none"/>
    <path id="Path_102" data-name="Path 102" d="M-491.933,546.581q0-3.266-1.041-4.038a1.981,1.981,0,0,0-1.2-.342h-2.871v8.669h2.871Q-491.935,550.87-491.933,546.581Z" fill="none"/>
    <path id="Path_103" data-name="Path 103" d="M-526.2,558.621h-2.331v2.909h2.331a.956.956,0,0,0,.779-.282,1.892,1.892,0,0,0,.234-1.138,1.939,1.939,0,0,0-.255-1.172A.907.907,0,0,0-526.2,558.621Z" fill="none"/>
    <path id="Path_104" data-name="Path 104" d="M-563.323,563.146h2.389l-1.151-3.681Z" fill="none"/>
    <path id="Path_105" data-name="Path 105" d="M-560.311,486.315c.727-3.98,1.626-8.62,2.5-12.336l.064-.272.052-.221h0l.506.033c1.578.1,2.889.152,4.008.152h0a13.568,13.568,0,0,0,5.737-.9,4.3,4.3,0,0,0,1.232-.857,3.827,3.827,0,0,0,.414-.548,5.306,5.306,0,0,0,.816-2.3,10.7,10.7,0,0,0,.09-1.323h-46.549a8.6,8.6,0,0,0,.32,2.394,4.247,4.247,0,0,0,1,1.781c1.183,1.217,3.332,1.759,6.969,1.759,1.119,0,2.43-.05,4.009-.152l.505-.033h0l.055.235.06.258c.865,3.681,1.577,8.267,2.1,12.223.507,3.829.839,7.068.961,8.311h13.723C-561.541,493.318-561.005,490.118-560.311,486.315Z" fill="#fff"/>
    <path id="Path_106" data-name="Path 106" d="M-545.6,476.609a8.94,8.94,0,0,1-5.233,1.642,11.191,11.191,0,0,1-1.648-.136,12.885,12.885,0,0,1-1.665-.372c-.2-.058-.4-.111-.6-.18-.275,2.79-.6,5.448-.971,7.994-.614,4.2-1.366,8.085-2.267,11.752l-.112.457h0l-14.325-.051-.047,13.707a.591.591,0,0,0,.17.414.6.6,0,0,0,.415.18l2.521-.006,4.634-.013.023.363.032.486v11.863c.516-.051,1.061-.1,1.611-.153.247-.023.5-.046.75-.068.578-.052,1.161-.1,1.772-.155V512.015l1.022,0,2.061.007.024.257.032.339v11.466c.5-.036,1.01-.071,1.523-.106.852-.058,1.717-.115,2.61-.17V512.041h0l6.737.024c-1.153-3.817-3.46-6.89-5.047-9.231-.536-.793-2.526-2.768,1.465-.011,2.709,1.871,5.685,6.509,7.282,9.255l.668,0c-1.349-4.75-4.214-8.556-6.171-11.44-.644-.954-3.04-3.332,1.764-.013,3.375,2.329,7.091,8.221,8.955,11.469h.372c-1.43-5.693-5.07-10.8-7.343-14.153-.722-1.063-3.391-3.712,1.958-.015,3.64,2.51,7.823,9.25,10.027,13.108.227.4.425.749.608,1.078h0c-.183-.329-.381-.681-.608-1.078,2.244-5.914,8.629-20.609,19.66-29.786,5.624-4.115,12.553-10.421,3.4.222-8.74,10.163-15.746,19.972-17.432,30.66l.847,0c1.318-4.348,5.307-15.537,13.386-23.228,4.085-3.43,9.049-8.6,2.609-.007-6.066,8.1-10.729,15.189-11.551,23.25l9.349.032.056,1.216v10.224c.99.052,1.951.107,2.9.164.488.029.978.058,1.455.089V512.2h0l1.381.005,3.022.011.024.262.032.334v11.38c.923.072,1.8.145,2.661.219.5.042,1,.085,1.471.128V512.28l.544-.049.059,0c.239-.017,1.285-.075,4.008-.048.527.005,1.11.013,1.769.025l.237.005.447.007-.105.677a10.693,10.693,0,0,1-.281,1.287,12.185,12.185,0,0,1-.541,1.5c-.27.633-.566,1.23-.863,1.809a13.107,13.107,0,0,0-1.537,4.16,10.1,10.1,0,0,0-.118,1.6c3.9-2.6,5.4-7.763,5.83-14a132.562,132.562,0,0,0-.381-16.822c-.446-7.008-.907-14.245-.076-20.129a3.8,3.8,0,0,1-2.643-.591,5.968,5.968,0,0,1-1.869-2.759c-.161-.385-.315-.754-.491-1.092l-45.384-.155a16.615,16.615,0,0,1-1.142,4.087c-.039.089-.072.184-.112.272v0A11.074,11.074,0,0,1-545.6,476.609Zm23.111,8c4.794-4.025,10.623-10.091,3.063-.008-6.355,8.48-11.406,16.021-13.106,24.268-.836-1.4-1.829-2.981-2.916-4.561C-532.882,498.267-528.719,490.547-522.486,484.613Z" fill="#fff"/>
    <path id="Path_107" data-name="Path 107" d="M-570.516,542.552a1.921,1.921,0,0,1,.71-.324,5.057,5.057,0,0,1,1.032-.081c.441,0,.945.019,1.508.054.238.012.481.027.726.045s.469.036.672.055.381.032.53.043.315.031.495.055v-1.975a16.173,16.173,0,0,0-4.578-.591,5.824,5.824,0,0,0-1.578.2,3.4,3.4,0,0,0-1.994,1.563,9.729,9.729,0,0,0-.9,4.838,9.965,9.965,0,0,0,1.032,5.071,3.736,3.736,0,0,0,3.437,1.722h.413a14.3,14.3,0,0,0,4.165-.5v-1.955l-.574.036q-1.723.105-3.411.106a2.059,2.059,0,0,1-2.019-1.014,7.545,7.545,0,0,1-.53-3.293,11.064,11.064,0,0,1,.359-3.321A1.4,1.4,0,0,1-570.516,542.552Z" fill="#1c1406"/>
    <path id="Path_108" data-name="Path 108" d="M-560.375,542.669c.108-.216.383-.324.827-.324h5.187v-2.083a34.383,34.383,0,0,0-3.483-.224q-2.332-.063-2.594-.062a3.132,3.132,0,0,0-.7.108,3.189,3.189,0,0,0-.887.377,2.439,2.439,0,0,0-.969,2.244v7.824a2.55,2.55,0,0,0,.717,1.994,2.53,2.53,0,0,0,.754.43,2.889,2.889,0,0,0,.735.19c.2.018.369.025.495.025h.332l1.167-.053q3.537-.125,4.433-.251V550.8h-5.008a2.015,2.015,0,0,1-.735-.108c-.252-.1-.378-.37-.378-.827V547.82l5.313-.161v-2.082l-5.313-.18v-2.046A1.76,1.76,0,0,1-560.375,542.669Z" fill="#1c1406"/>
    <path id="Path_109" data-name="Path 109" d="M-544.31,547.425q1.06-.826,1.06-3.357a4.425,4.425,0,0,0-1.023-3.212,3.407,3.407,0,0,0-2.568-.88h-5.743v13.139h2.512v-5.222l2.208.25,2.172,4.972h2.836l-2.495-5.169c.229-.072.4-.131.52-.18A2.318,2.318,0,0,0-544.31,547.425Zm-1.767-1.867a1.223,1.223,0,0,1-1,.359h-2.979V542.2h2.979a1.163,1.163,0,0,1,.969.4,2.5,2.5,0,0,1,.324,1.5A2.447,2.447,0,0,1-546.077,545.558Z" fill="#1c1406"/>
    <path id="Path_110" data-name="Path 110" d="M-541.688,542.291h3.554v10.823h2.512V542.291h3.644v-2.316h-9.71Z" fill="#1c1406"/>
    <rect id="Rectangle_5" data-name="Rectangle 5" width="2.514" height="13.139" transform="translate(-530.148 539.976)" fill="#1c1406"/>
    <path id="Path_111" data-name="Path 111" d="M-522.824,542.668q.16-.324.827-.324h5.187v-2.082a33.969,33.969,0,0,0-3.492-.224q-2.34-.065-2.611-.063a2.783,2.783,0,0,0-.719.127,2.413,2.413,0,0,0-1.811,2.638v10.374h2.512V547.82l5.313-.162v-2.082l-5.313-.18v-2.044A1.771,1.771,0,0,1-522.824,542.668Z" fill="#1c1406"/>
    <rect id="Rectangle_6" data-name="Rectangle 6" width="2.512" height="13.139" transform="translate(-514.854 539.976)" fill="#1c1406"/>
    <path id="Path_112" data-name="Path 112" d="M-501.518,550.8h-5.008a2.036,2.036,0,0,1-.736-.108c-.252-.1-.376-.37-.376-.827V547.82l5.312-.161v-2.082l-5.312-.18v-2.046a1.758,1.758,0,0,1,.108-.682q.162-.324.824-.324h5.188v-2.083a34.444,34.444,0,0,0-3.481-.224q-2.336-.063-2.594-.062a3.092,3.092,0,0,0-.7.108,3.18,3.18,0,0,0-.89.377,2.444,2.444,0,0,0-.969,2.244v7.824a2.554,2.554,0,0,0,.719,1.994,2.524,2.524,0,0,0,.755.43,2.879,2.879,0,0,0,.735.19c.2.018.367.025.493.025h.334l1.164-.053q3.537-.125,4.434-.251Z" fill="#1c1406"/>
    <path id="Path_113" data-name="Path 113" d="M-491.377,552.271q1.958-1.578,1.956-5.672,0-6.622-4.559-6.624h-5.582v13.139h5.582A3.99,3.99,0,0,0-491.377,552.271Zm-5.67-1.4V542.2h2.871a1.981,1.981,0,0,1,1.2.342q1.041.771,1.041,4.038,0,4.29-2.243,4.289Z" fill="#1c1406"/>
    <path id="Path_114" data-name="Path 114" d="M-567.283,557.738a2.678,2.678,0,0,0-2.22-.857h-4.424v10.283h1.966V563.09c.037.018.423.07,1.151.155a15.651,15.651,0,0,0,1.587.125,2.87,2.87,0,0,0,1.224-.253,1.785,1.785,0,0,0,.7-.526,2.9,2.9,0,0,0,.463-.99,5.558,5.558,0,0,0,.189-1.546A3.6,3.6,0,0,0-567.283,557.738Zm-1.828,3.765a1.041,1.041,0,0,1-.546.126h-2.3v-3.007h2.3q1.012,0,1.025,1.448C-568.632,560.839-568.791,561.315-569.111,561.5Z" fill="#1c1406"/>
    <path id="Path_115" data-name="Path 115" d="M-563.222,556.881l-3.472,10.283h2.108l.745-2.276h3.371l.731,2.276h2.092l-3.343-10.283Zm-.1,6.265,1.238-3.681,1.151,3.681Z" fill="#1c1406"/>
    <path id="Path_116" data-name="Path 116" d="M-552.2,561.095h-1.63a1.386,1.386,0,0,1-.857-.2,1,1,0,0,1-.238-.788v-.505q0-.659.294-.83a1.942,1.942,0,0,1,.927-.168h1.018q.948,0,2.549.139V557.2a10.236,10.236,0,0,0-1.678-.294c-.7-.075-1.226-.112-1.588-.112h-.71a3.29,3.29,0,0,0-1.979.562,2.485,2.485,0,0,0-.8,2.094v.884q0,2.727,2.654,2.726h1.574a1.339,1.339,0,0,1,.465.069c.308.114.462.412.462.9v.547a.726.726,0,0,1-.421.743,1.559,1.559,0,0,1-.387.114c-.126.018-.572.029-1.34.029s-1.667-.052-2.7-.156v1.545a14.722,14.722,0,0,0,3.976.422,3.654,3.654,0,0,0,1.587-.309,2.42,2.42,0,0,0,1.252-2.459v-.688a3.563,3.563,0,0,0-.283-1.446A2.107,2.107,0,0,0-552.2,561.095Z" fill="#1c1406"/>
    <path id="Path_117" data-name="Path 117" d="M-549.007,558.692h2.781v8.471h1.968v-8.471h2.85V556.88h-7.6Z" fill="#1c1406"/>
    <path id="Path_118" data-name="Path 118" d="M-534.1,562.669q0,2.094-.829,2.542a2.054,2.054,0,0,1-.976.21,5.138,5.138,0,0,1-.892-.057,1.224,1.224,0,0,1-.941-.715,5.391,5.391,0,0,1-.268-1.98v-5.788h-1.967v5.788a8.7,8.7,0,0,0,.421,2.906,2.053,2.053,0,0,0,.507.808,4.079,4.079,0,0,0,.59.5,4.774,4.774,0,0,0,2.246.351h.2a10.28,10.28,0,0,0,1.164-.056,2.8,2.8,0,0,0,.605-.12,4.609,4.609,0,0,0,.54-.237,1.812,1.812,0,0,0,.52-.381,3.494,3.494,0,0,0,.416-.567,6.09,6.09,0,0,0,.644-3.2v-5.788H-534.1Z" fill="#1c1406"/>
    <path id="Path_119" data-name="Path 119" d="M-524.438,562.976a1.891,1.891,0,0,0,.407-.266,3.232,3.232,0,0,0,.828-2.627,3.465,3.465,0,0,0-.8-2.515,2.664,2.664,0,0,0-2.008-.688h-4.5v10.283h1.969v-4.089l1.727.2,1.7,3.891h2.218l-1.953-4.047C-524.669,563.061-524.533,563.014-524.438,562.976Zm-.978-1.728a.956.956,0,0,1-.779.282h-2.331v-2.909h2.331a.907.907,0,0,1,.758.317,1.939,1.939,0,0,1,.255,1.172A1.892,1.892,0,0,1-525.416,561.248Z" fill="#1c1406"/>
    <path id="Path_120" data-name="Path 120" d="M-519.6,556.88a2.422,2.422,0,0,0-.548.084,2.5,2.5,0,0,0-.7.295,1.915,1.915,0,0,0-.759,1.756v6.125a1.994,1.994,0,0,0,.562,1.56,2.008,2.008,0,0,0,.592.335,2.176,2.176,0,0,0,.574.148c.161.015.289.022.387.022h.259l.913-.042q2.766-.1,3.469-.2V565.35h-3.917a1.584,1.584,0,0,1-.576-.085c-.2-.073-.295-.289-.295-.645v-1.6l4.158-.126v-1.629l-4.158-.141v-1.6a1.4,1.4,0,0,1,.084-.533c.084-.17.3-.253.647-.253h4.057V557.1a26.961,26.961,0,0,0-2.724-.174Q-519.393,556.879-519.6,556.88Z" fill="#1c1406"/>
    <path id="Path_121" data-name="Path 121" d="M-511.373,556.881a2.182,2.182,0,0,0-.563.1,1.892,1.892,0,0,0-1.419,2.065v8.12h1.968v-4.145l4.158-.127v-1.629l-4.158-.141v-1.6a1.392,1.392,0,0,1,.084-.533c.084-.17.3-.254.647-.254h4.057V557.1a27.062,27.062,0,0,0-2.731-.174Q-511.163,556.88-511.373,556.881Z" fill="#1c1406"/>
    <path id="Path_122" data-name="Path 122" d="M-503.107,556.88a2.439,2.439,0,0,0-.548.084,2.508,2.508,0,0,0-.7.295,1.917,1.917,0,0,0-.758,1.756v6.125a1.991,1.991,0,0,0,.562,1.56,1.989,1.989,0,0,0,.591.335,2.176,2.176,0,0,0,.574.148c.161.015.29.022.388.022h.259l.912-.042q2.768-.1,3.47-.2V565.35h-3.918a1.591,1.591,0,0,1-.576-.085c-.2-.073-.294-.289-.294-.645v-1.6l4.158-.126v-1.629l-4.158-.141v-1.6a1.418,1.418,0,0,1,.083-.533c.085-.17.3-.253.648-.253h4.057V557.1a26.981,26.981,0,0,0-2.724-.174Q-502.9,556.879-503.107,556.88Z" fill="#1c1406"/>
    <path id="Path_123" data-name="Path 123" d="M-492.451,556.881h-4.37v10.283h4.37a3.141,3.141,0,0,0,2.036-.66q1.529-1.234,1.532-4.441Q-488.883,556.88-492.451,556.881Zm-.156,8.526h-2.247v-6.785h2.247a1.555,1.555,0,0,1,.943.268q.813.6.815,3.16Q-490.849,565.409-492.607,565.407Z" fill="#1c1406"/>
    <path id="Path_124" data-name="Path 124" d="M-519.423,484.605c7.56-10.083,1.731-4.017-3.063.008-6.233,5.934-10.4,13.654-12.959,19.7,1.087,1.58,2.08,3.163,2.916,4.561C-530.829,500.626-525.778,493.085-519.423,484.605Z" fill="#78b52e"/>
    <path id="Path_125" data-name="Path 125" d="M-546.571,500.626c-4.8-3.319-2.408-.941-1.764.013,1.957,2.884,4.822,6.69,6.171,11.44l4.548.016C-539.48,508.847-543.2,502.955-546.571,500.626Z" fill="#78b52e"/>
    <path id="Path_126" data-name="Path 126" d="M-550.114,502.822c-3.991-2.757-2-.782-1.465.011,1.587,2.341,3.894,5.414,5.047,9.231l3.7.013C-544.429,509.331-547.405,504.693-550.114,502.822Z" fill="#005e2c"/>
    <path id="Path_127" data-name="Path 127" d="M-512.942,481.25c-11.031,9.177-17.416,23.872-19.66,29.786.227.4.425.749.608,1.078l5.02.018c1.686-10.688,8.692-20.5,17.432-30.66C-500.389,470.829-507.318,477.135-512.942,481.25Z" fill="#005e2c"/>
    <path id="Path_128" data-name="Path 128" d="M-542.629,497.928c-5.349-3.7-2.68-1.048-1.958.015,2.273,3.353,5.913,8.46,7.343,14.153l5.25.018c-.183-.329-.381-.681-.608-1.078C-534.806,507.178-538.989,500.438-542.629,497.928Z" fill="#005e2c"/>
    <path id="Path_129" data-name="Path 129" d="M-510.132,488.9c6.44-8.591,1.476-3.423-2.609.007-8.079,7.691-12.068,18.88-13.386,23.228l4.444.015h0C-520.861,504.089-516.2,496.995-510.132,488.9Z" fill="#78b52e"/>
    <path id="Path_130" data-name="Path 130" d="M-488.3,529.092c-.287-.319-4.244-.926-10.429-1.508-1.627-.154-3.418-.306-5.328-.45q-1.575-.12-3.263-.231c-1.772-.116-3.626-.225-5.551-.323-5.48-.275-11.51-.456-17.7-.456h-1.049c-7.476,0-14.725.265-21.049.641q-2.8.166-5.329.358c-.664.051-1.31.1-1.942.153-1.942.157-3.728.322-5.329.485-5.129.525-8.354,1.042-8.615,1.328l-.175.2.015.252c.036.621.7.621,1.136.621.921,0,2.878-.115,5.841-.289,7.13-.423,20.4-1.207,35.325-1.207h1.293c14.924,0,28.2.784,35.328,1.207,2.962.174,4.921.289,5.842.289.438,0,1.1,0,1.133-.6l.021-.274Z" fill="#91c04d"/>
    <path id="Path_131" data-name="Path 131" d="M-488.3,529.092c-.287-.319-4.244-.926-10.429-1.508-1.627-.154-3.418-.306-5.328-.45q-1.575-.12-3.263-.231c-1.772-.116-3.626-.225-5.551-.323-5.48-.275-11.51-.456-17.7-.456h-1.049c-7.476,0-14.725.265-21.049.641q-2.8.166-5.329.358c-.664.051-1.31.1-1.942.153-1.942.157-3.728.322-5.329.485-5.129.525-8.354,1.042-8.615,1.328l-.175.2.015.252c.036.621.7.621,1.136.621.921,0,2.878-.115,5.841-.289,7.13-.423,20.4-1.207,35.325-1.207h1.293c14.924,0,28.2.784,35.328,1.207,2.962.174,4.921.289,5.842.289.438,0,1.1,0,1.133-.6l.021-.274Z" fill="#78b52e"/>
    <path id="Path_132" data-name="Path 132" d="M-560.64,495.206c.02-.125,2-12.3,3.878-20.463,1.382.083,2.558.124,3.581.124h0c4.04,0,6.38-.634,7.826-2.121,1.2-1.235,1.725-3.022,1.651-5.624l-.016-.58h-48.9l-.017.58c-.074,2.6.451,4.388,1.652,5.623,1.445,1.488,3.786,2.122,7.827,2.122,1.022,0,2.2-.041,3.579-.124a196.772,196.772,0,0,1,2.973,20.421l.05.544h15.829Zm-14.821-.693h0c-.122-1.243-.454-4.482-.961-8.311-.525-3.956-1.236-8.542-2.1-12.223l-.06-.258-.055-.235h0l-.505.033c-1.578.1-2.889.152-4.008.152-3.638,0-5.787-.542-6.97-1.759a4.247,4.247,0,0,1-1-1.781,8.6,8.6,0,0,1-.32-2.394h46.549a10.7,10.7,0,0,1-.09,1.323,5.294,5.294,0,0,1-.816,2.3,3.827,3.827,0,0,1-.414.548,4.3,4.3,0,0,1-1.232.857,13.562,13.562,0,0,1-5.736.9h0c-1.118,0-2.43-.05-4.008-.152l-.506-.033h0l-.052.221-.063.272c-.873,3.716-1.773,8.356-2.5,12.336-.694,3.8-1.23,7-1.427,8.2h-13.723Z" fill="#c79965"/>
    <path id="Path_133" data-name="Path 133" d="M-550.83,477.055h0a11.6,11.6,0,0,1-4.217-.875l-.739-.29-.074.79a141.417,141.417,0,0,1-3.173,19.888l-14.579-.053-.052,14.9a1.8,1.8,0,0,0,1.768,1.794l6.027-.016v12.836l.658-.067c1.6-.162,3.38-.327,5.317-.484l.549-.045v-12.22l.748,0v12.16l.643-.048q2.523-.19,5.319-.358l.562-.034v-11.7l38.6.132v11.386l.567.029q2.884.144,5.544.321l.636.041V513.4l2.068.007V525.3l.552.042c1.906.143,3.692.295,5.317.449l.654.062V513.4c.666-.024,2.017-.045,4.455-.009a14.751,14.751,0,0,1-1.439,3.559,12.188,12.188,0,0,0-1.738,7.381l.076.9.8-.425c8.686-4.62,7.783-18.767,6.912-32.45-.464-7.268-.943-14.784.033-20.671l.143-.862-.855.179a5.622,5.622,0,0,1-1.151.133c-1.662,0-2.165-1-2.85-2.643a11.93,11.93,0,0,0-.727-1.534l-.175-.29-47.124-.162-.065.526C-542.59,473.12-546.119,477.055-550.83,477.055Zm8.85-4.992c.04-.088.073-.183.112-.272a16.615,16.615,0,0,0,1.142-4.087l45.384.155h0c.176.337.33.707.491,1.091a5.978,5.978,0,0,0,1.869,2.76,3.8,3.8,0,0,0,2.643.591h0c-.831,5.884-.37,13.12.076,20.129a132.562,132.562,0,0,1,.381,16.822c-.432,6.237-1.933,11.4-5.83,14h0a10.111,10.111,0,0,1,.119-1.6,13.107,13.107,0,0,1,1.537-4.16c.3-.579.593-1.176.863-1.809a12.352,12.352,0,0,0,.541-1.5,10.693,10.693,0,0,0,.281-1.287l.105-.677-.447-.007-.237-.005c-.659-.012-1.242-.02-1.769-.025-2.723-.027-3.769.031-4.008.048l-.059,0-.544.049v12.256h0c-.474-.043-.973-.086-1.471-.128-.859-.074-1.739-.147-2.662-.219V512.808l-.031-.333-.024-.262-3.022-.011-1.381-.005h0v11.678h0l-1.455-.089c-.949-.057-1.91-.112-2.9-.164h0V513.4l-.056-1.216-9.348-.032-4.444-.015-.847,0-5.02-.018h0l-5.25-.018h-.372l-4.548-.016-.668,0-3.7-.013-6.737-.024h0v11.771c-.893.055-1.758.112-2.61.17-.513.035-1.026.07-1.523.106h0V512.622l-.031-.339-.024-.257-2.061-.007-1.022,0v12.318c-.61.051-1.194.1-1.772.155-.254.022-.5.045-.75.068-.55.051-1.1.1-1.612.153V512.846l-.031-.486-.023-.363-4.634.013-2.522.006a.6.6,0,0,1-.414-.18.591.591,0,0,1-.17-.414l.047-13.707,14.325.051h0l.112-.457c.9-3.668,1.653-7.558,2.268-11.752.373-2.546.7-5.2.971-7.994.2.069.4.122.6.18a12.885,12.885,0,0,0,1.665.372,11.191,11.191,0,0,0,1.648.136,8.94,8.94,0,0,0,5.233-1.642,11.081,11.081,0,0,0,3.616-4.543Z" fill="#c79965"/>
  </g>
</svg>
