<svg id="Group_9" data-name="Group 9" xmlns="http://www.w3.org/2000/svg" width="90.98" height="87.726" viewBox="0 0 90.98 87.726">
  <path id="Path_54" data-name="Path 54" d="M-422.612,542.2a1.672,1.672,0,0,1,.618-.282,4.394,4.394,0,0,1,.9-.071c.384,0,.823.017,1.313.047.207.011.419.024.632.039s.408.031.585.048l.461.037c.131.01.274.027.431.048v-1.719a14.081,14.081,0,0,0-3.985-.514,5.073,5.073,0,0,0-1.374.17,2.962,2.962,0,0,0-1.736,1.361,8.469,8.469,0,0,0-.781,4.212,8.676,8.676,0,0,0,.9,4.414,3.252,3.252,0,0,0,2.992,1.5h.36a12.448,12.448,0,0,0,3.626-.438v-1.7l-.5.031q-1.5.091-2.969.092a1.792,1.792,0,0,1-1.758-.883,6.568,6.568,0,0,1-.461-2.867,9.631,9.631,0,0,1,.313-2.891A1.218,1.218,0,0,1-422.612,542.2Z" transform="translate(441.87 -475.997)" fill="#fff"/>
  <path id="Path_55" data-name="Path 55" d="M-412.373,542.32c.094-.188.333-.282.72-.282h4.515v-1.813a29.95,29.95,0,0,0-3.032-.2q-2.031-.055-2.258-.054a2.728,2.728,0,0,0-.609.094,2.78,2.78,0,0,0-.772.328,2.124,2.124,0,0,0-.844,1.953v6.811a2.22,2.22,0,0,0,.624,1.736,2.2,2.2,0,0,0,.656.374,2.524,2.524,0,0,0,.64.165c.177.016.321.022.431.022h.289l1.016-.046q3.079-.108,3.859-.219v-1.8h-4.36a1.755,1.755,0,0,1-.64-.094c-.219-.084-.329-.322-.329-.72V546.8l4.625-.14v-1.812l-4.625-.157v-1.781A1.533,1.533,0,0,1-412.373,542.32Z" transform="translate(440.459 -476.016)" fill="#fff"/>
  <path id="Path_56" data-name="Path 56" d="M-397.04,546.461q.923-.719.923-2.922a3.853,3.853,0,0,0-.891-2.8,2.966,2.966,0,0,0-2.236-.766h-5v11.438h2.187v-4.546l1.922.218,1.891,4.328h2.469l-2.172-4.5c.2-.063.349-.114.453-.157A2.018,2.018,0,0,0-397.04,546.461Zm-1.538-1.625a1.064,1.064,0,0,1-.868.313h-2.593v-3.234h2.593a1.012,1.012,0,0,1,.844.352,2.175,2.175,0,0,1,.282,1.3A2.129,2.129,0,0,1-398.578,544.835Z" transform="translate(439.111 -476.016)" fill="#fff"/>
  <path id="Path_57" data-name="Path 57" d="M-393.347,541.992h3.094v9.422h2.187v-9.422h3.172v-2.016h-8.453Z" transform="translate(437.701 -476.016)" fill="#fff"/>
  <rect id="Rectangle_2" data-name="Rectangle 2" width="2.189" height="11.438" transform="translate(54.4 63.96)" fill="#fff"/>
  <path id="Path_58" data-name="Path 58" d="M-374.822,542.319q.14-.282.72-.282h4.516v-1.812a29.6,29.6,0,0,0-3.04-.2q-2.037-.056-2.273-.055a2.422,2.422,0,0,0-.626.111,2.1,2.1,0,0,0-1.577,2.3v9.031h2.187V546.8l4.625-.141v-1.812l-4.625-.157v-1.779A1.542,1.542,0,0,1-374.822,542.319Z" transform="translate(435.598 -476.016)" fill="#fff"/>
  <rect id="Rectangle_3" data-name="Rectangle 3" width="2.187" height="11.438" transform="translate(67.714 63.96)" fill="#fff"/>
  <path id="Path_59" data-name="Path 59" d="M-354.295,549.4h-4.36a1.773,1.773,0,0,1-.641-.094c-.219-.084-.327-.322-.327-.72V546.8l4.624-.14v-1.812l-4.624-.157v-1.781a1.532,1.532,0,0,1,.094-.594q.141-.282.717-.282h4.516v-1.813a30,30,0,0,0-3.03-.2q-2.033-.055-2.258-.054a2.693,2.693,0,0,0-.609.094,2.773,2.773,0,0,0-.775.328,2.127,2.127,0,0,0-.844,1.953v6.811a2.224,2.224,0,0,0,.626,1.736,2.2,2.2,0,0,0,.657.374,2.514,2.514,0,0,0,.64.165c.177.016.32.022.429.022h.291l1.013-.046q3.079-.108,3.86-.219Z" transform="translate(433.618 -476.016)" fill="#fff"/>
  <path id="Path_60" data-name="Path 60" d="M-344.1,550.679q1.7-1.374,1.7-4.938,0-5.765-3.969-5.766h-4.859v11.438h4.859A3.474,3.474,0,0,0-344.1,550.679Zm-4.936-1.22v-7.547h2.5a1.724,1.724,0,0,1,1.046.3q.906.671.906,3.515,0,3.735-1.953,3.734Z" transform="translate(432.247 -476.016)" fill="#fff"/>
  <path id="Path_61" data-name="Path 61" d="M-419.8,557.627a2.331,2.331,0,0,0-1.933-.746h-3.851v8.952h1.711v-3.547c.032.016.368.061,1,.135a13.654,13.654,0,0,0,1.382.109,2.5,2.5,0,0,0,1.066-.22,1.554,1.554,0,0,0,.6-.458,2.527,2.527,0,0,0,.4-.862,4.837,4.837,0,0,0,.165-1.346A3.137,3.137,0,0,0-419.8,557.627Zm-1.591,3.278a.906.906,0,0,1-.475.11h-2.006V558.4h2.006q.881,0,.892,1.26C-420.977,560.327-421.115,560.741-421.394,560.9Z" transform="translate(441.874 -478.205)" fill="#fff"/>
  <path id="Path_62" data-name="Path 62" d="M-415.331,556.881l-3.023,8.952h1.835l.648-1.981h2.935l.636,1.981h1.821l-2.91-8.952Zm-.088,5.454,1.078-3.2,1,3.2Z" transform="translate(440.938 -478.205)" fill="#fff"/>
  <path id="Path_63" data-name="Path 63" d="M-404.462,560.538h-1.419a1.206,1.206,0,0,1-.746-.171.871.871,0,0,1-.207-.686v-.44q0-.573.256-.722a1.69,1.69,0,0,1,.807-.146h.886q.825,0,2.219.121v-1.345a8.914,8.914,0,0,0-1.461-.256c-.608-.065-1.067-.1-1.382-.1h-.618a2.864,2.864,0,0,0-1.723.489,2.164,2.164,0,0,0-.7,1.823v.769a2.07,2.07,0,0,0,2.31,2.373h1.37a1.167,1.167,0,0,1,.4.06c.268.1.4.359.4.784v.476a.632.632,0,0,1-.367.647,1.359,1.359,0,0,1-.337.1c-.11.016-.5.025-1.167.025s-1.451-.045-2.35-.136v1.345a12.811,12.811,0,0,0,3.461.367,3.182,3.182,0,0,0,1.382-.269,2.106,2.106,0,0,0,1.09-2.141v-.6a3.1,3.1,0,0,0-.246-1.259A1.834,1.834,0,0,0-404.462,560.538Z" transform="translate(439.669 -478.194)" fill="#fff"/>
  <path id="Path_64" data-name="Path 64" d="M-400.666,558.458h2.421v7.374h1.713v-7.374h2.481V556.88h-6.615Z" transform="translate(438.648 -478.205)" fill="#fff"/>
  <path id="Path_65" data-name="Path 65" d="M-386.521,561.92q0,1.823-.722,2.213a1.789,1.789,0,0,1-.85.183,4.475,4.475,0,0,1-.776-.05,1.065,1.065,0,0,1-.819-.622,4.692,4.692,0,0,1-.233-1.724v-5.039h-1.712v5.039a7.576,7.576,0,0,0,.366,2.53,1.788,1.788,0,0,0,.441.7,3.539,3.539,0,0,0,.514.434,4.156,4.156,0,0,0,1.955.306h.173a8.944,8.944,0,0,0,1.013-.049,2.433,2.433,0,0,0,.527-.1,4.014,4.014,0,0,0,.47-.206,1.576,1.576,0,0,0,.453-.332,3.047,3.047,0,0,0,.362-.494,5.3,5.3,0,0,0,.561-2.788v-5.039h-1.723Z" transform="translate(437.479 -478.205)" fill="#fff"/>
  <path id="Path_66" data-name="Path 66" d="M-376.882,562.187a1.648,1.648,0,0,0,.354-.231,2.814,2.814,0,0,0,.721-2.287,3.016,3.016,0,0,0-.7-2.189,2.319,2.319,0,0,0-1.748-.6h-3.915v8.952h1.714v-3.56l1.5.172,1.48,3.387h1.931l-1.7-3.523C-377.083,562.261-376.965,562.22-376.882,562.187Zm-.851-1.5a.832.832,0,0,1-.678.246h-2.029V558.4h2.029a.79.79,0,0,1,.66.276,1.688,1.688,0,0,1,.222,1.02A1.646,1.646,0,0,1-377.733,560.682Z" transform="translate(436.253 -478.204)" fill="#fff"/>
  <path id="Path_67" data-name="Path 67" d="M-371.515,556.88a2.11,2.11,0,0,0-.477.073,2.175,2.175,0,0,0-.606.257,1.667,1.667,0,0,0-.661,1.529v5.332a1.736,1.736,0,0,0,.489,1.358,1.747,1.747,0,0,0,.515.292,1.89,1.89,0,0,0,.5.129c.14.013.252.019.337.019h.225l.795-.037q2.408-.086,3.02-.171v-1.407h-3.41a1.377,1.377,0,0,1-.5-.074c-.171-.064-.257-.252-.257-.561v-1.395l3.62-.11V560.7l-3.62-.123v-1.395a1.217,1.217,0,0,1,.073-.464c.073-.148.26-.22.563-.22h3.532v-1.42a23.487,23.487,0,0,0-2.371-.151Q-371.337,556.879-371.515,556.88Z" transform="translate(435.1 -478.204)" fill="#fff"/>
  <path id="Path_68" data-name="Path 68" d="M-363.289,556.881a1.9,1.9,0,0,0-.49.085,1.647,1.647,0,0,0-1.235,1.8v7.069h1.713v-3.608l3.62-.111V560.7l-3.62-.123v-1.394a1.213,1.213,0,0,1,.073-.464c.073-.148.259-.221.563-.221h3.532v-1.419a23.575,23.575,0,0,0-2.377-.151Q-363.106,556.881-363.289,556.881Z" transform="translate(434.033 -478.205)" fill="#fff"/>
  <path id="Path_69" data-name="Path 69" d="M-355.024,556.88a2.123,2.123,0,0,0-.477.073,2.184,2.184,0,0,0-.606.257,1.668,1.668,0,0,0-.66,1.529v5.332a1.733,1.733,0,0,0,.489,1.358,1.733,1.733,0,0,0,.514.292,1.89,1.89,0,0,0,.5.129c.14.013.253.019.338.019h.225l.794-.037q2.409-.086,3.021-.171v-1.407H-354.3a1.384,1.384,0,0,1-.5-.074c-.171-.064-.256-.252-.256-.561v-1.395l3.62-.11V560.7l-3.62-.123v-1.395a1.235,1.235,0,0,1,.072-.464c.074-.148.26-.22.564-.22h3.532v-1.42a23.507,23.507,0,0,0-2.371-.151Q-354.846,556.879-355.024,556.88Z" transform="translate(432.965 -478.204)" fill="#fff"/>
  <path id="Path_70" data-name="Path 70" d="M-344.676,556.881h-3.8v8.952h3.8a2.734,2.734,0,0,0,1.772-.574q1.332-1.075,1.334-3.866Q-341.57,556.881-344.676,556.881Zm-.136,7.422h-1.955V558.4h1.955a1.354,1.354,0,0,1,.821.233q.708.526.709,2.751Q-343.281,564.3-344.812,564.3Z" transform="translate(431.892 -478.205)" fill="#fff"/>
  <path id="Path_71" data-name="Path 71" d="M-373.155,483.891c6.581-8.778,1.507-3.5-2.667.007-5.426,5.166-9.05,11.886-11.281,17.149.946,1.375,1.811,2.754,2.538,3.971C-383.085,497.838-378.688,491.273-373.155,483.891Z" transform="translate(436.892 -468.134)" fill="#fff"/>
  <path id="Path_72" data-name="Path 72" d="M-351.066,528.708c-.25-.278-3.695-.806-9.079-1.313-1.416-.134-2.976-.266-4.638-.392q-1.371-.1-2.841-.2c-1.543-.1-3.157-.2-4.832-.281-4.771-.24-10.02-.4-15.407-.4h-.913c-6.508,0-12.819.231-18.324.558q-2.434.145-4.639.312c-.578.044-1.14.088-1.691.133-1.691.137-3.245.28-4.639.422-4.465.457-7.273.907-7.5,1.156l-.152.171.013.219c.031.541.607.541.989.541.8,0,2.505-.1,5.085-.252,6.207-.368,17.76-1.051,30.752-1.051h1.126c12.992,0,24.547.683,30.754,1.051,2.579.151,4.284.252,5.086.252.381,0,.957,0,.986-.519l.018-.239Z" transform="translate(441.892 -474.223)" fill="#fff"/>
  <path id="Path_73" data-name="Path 73" d="M-416.442,491.495c.017-.109,1.738-10.708,3.376-17.814,1.2.072,2.227.108,3.117.108h0c3.517,0,5.554-.552,6.813-1.846,1.045-1.075,1.5-2.631,1.437-4.9l-.014-.5h-42.565l-.015.5c-.064,2.263.393,3.82,1.438,4.9,1.258,1.3,3.3,1.847,6.814,1.847.89,0,1.913-.036,3.116-.108a171.3,171.3,0,0,1,2.588,17.777l.043.474h13.78Zm-12.9-.6a163.168,163.168,0,0,0-2.666-17.876l-.1-.429-.44.029c-1.374.089-2.515.132-3.489.132-3.167,0-5.038-.472-6.068-1.531a5.036,5.036,0,0,1-1.148-3.634h40.523a5.032,5.032,0,0,1-1.149,3.634c-1.029,1.06-2.9,1.531-6.066,1.531h0c-.973,0-2.115-.044-3.489-.132l-.44-.029-.1.429c-1.486,6.326-3.067,15.746-3.419,17.876Z" transform="translate(444.297 -466.509)" fill="#fff"/>
  <path id="Path_74" data-name="Path 74" d="M-405.444,475.689h0a10.1,10.1,0,0,1-3.671-.762l-.643-.252-.064.688a123.113,123.113,0,0,1-2.762,17.313l-12.692-.046-.045,12.973a1.57,1.57,0,0,0,1.539,1.562l5.247-.014v11.174l.573-.058c1.391-.141,2.942-.285,4.629-.421l.478-.039V507.168l.651,0v10.586l.56-.042q2.2-.166,4.63-.312l.489-.03V507.189l33.6.115v9.912l.494.025q2.511.125,4.826.279l.554.036V507.326l1.8.006v10.353l.48.036c1.659.125,3.214.257,4.629.391l.569.054V507.324c.58-.021,1.756-.039,3.878-.008a12.846,12.846,0,0,1-1.253,3.1,10.61,10.61,0,0,0-1.513,6.425l.066.786.7-.37c7.562-4.022,6.775-16.337,6.017-28.249-.4-6.327-.821-12.87.029-17.995l.125-.75-.744.156a4.9,4.9,0,0,1-1,.116c-1.447,0-1.885-.873-2.481-2.3a10.383,10.383,0,0,0-.633-1.335l-.152-.252-41.023-.141-.057.458C-398.271,472.263-401.343,475.689-405.444,475.689Zm8.8-8.14,39.508.135c.153.293.287.615.427.95.585,1.4,1.364,3.161,3.928,2.917-.723,5.122-.322,11.421.066,17.523.713,11.165,1.449,22.7-4.744,26.832a9.919,9.919,0,0,1,1.442-5.016,12.548,12.548,0,0,0,1.467-4l.091-.589-.6-.01c-3.962-.076-5.047.021-5.08.023l-.474.043v10.669c-1.124-.1-2.329-.2-3.6-.3v-9.908l-.048-.518-3.834-.014v10.166q-1.833-.119-3.792-.22v-8.9l-.049-1.059-8.138-.028c.715-7.017,4.775-13.193,10.056-20.24,5.606-7.479,1.285-2.98-2.271.006-7.033,6.7-10.506,16.436-11.654,20.221l-.737,0c1.469-9.3,7.568-17.843,15.176-26.691,7.968-9.265,1.936-3.776-2.96-.193-9.6,7.989-15.161,20.781-17.115,25.93.2.346.37.652.529.938h0c-.159-.286-.332-.593-.529-.938-1.919-3.359-5.56-9.226-8.729-11.411-4.656-3.218-2.333-.912-1.7.013,1.978,2.919,5.147,7.365,6.391,12.321h-.323c-1.624-2.827-4.858-7.957-7.8-9.984-4.182-2.889-2.1-.819-1.536.011,1.7,2.511,4.2,5.824,5.371,9.959l-.581,0c-1.391-2.391-3.982-6.428-6.339-8.057-3.474-2.4-1.742-.681-1.275.01a29.521,29.521,0,0,1,4.393,8.036l-5.864-.021v10.248q-1.87.115-3.6.24v-9.982l-.048-.519-2.684-.01v10.723c-1.286.107-2.489.217-3.6.327V506.846l-.047-.739-6.23.017a.521.521,0,0,1-.508-.517l.041-11.932,12.47.044.1-.4a121.827,121.827,0,0,0,2.82-17.19,10.647,10.647,0,0,0,3.409.6C-400.907,476.73-397.491,473.143-396.648,467.549Z" transform="translate(441.84 -466.504)" fill="#fff"/>
</svg>
