<?xml version="1.0" encoding="utf-8"?>
<!-- Generator: Adobe Illustrator 26.0.1, SVG Export Plug-In . SVG Version: 6.00 Build 0)  -->
<svg version="1.1" id="Layer_1" xmlns="http://www.w3.org/2000/svg" xmlns:xlink="http://www.w3.org/1999/xlink" x="0px" y="0px"
	 viewBox="0 0 1080 1920" style="enable-background:new 0 0 1080 1920;" xml:space="preserve">
<style type="text/css">
	.st0{fill:#BE1E10;}
	.st1{fill:#FFEA3D;}
	.st2{fill:#006138;}
	.st3{fill:#1A1818;}
	.st4{fill:#004A9C;}
	.st5{fill:#FFFFFF;}
	.st6{fill:#263778;}
	.st7{fill:none;}
	.st8{fill:#E72829;}
	.st9{fill:#27AAE1;}
	.st10{fill:#FFC70A;}
	.st11{fill:#A0CB3A;}
	.st12{fill:#6BCCE0;}
	.st13{fill:#1D1D4E;}
	.st14{enable-background:new    ;}
	.st15{fill:#2E48A8;}
	.st16{fill:none;stroke:#E72829;stroke-width:3;stroke-linecap:round;stroke-linejoin:round;}
	.st17{fill:none;stroke:#6BCCE0;stroke-width:3;stroke-linecap:round;stroke-linejoin:round;}
	.st18{fill:none;stroke:#A0CB3A;stroke-width:3;stroke-linecap:round;stroke-linejoin:round;}
	.st19{fill:none;stroke:#FFC70A;stroke-width:3;stroke-linecap:round;stroke-miterlimit:10;}
	.st20{fill:none;stroke:#FFC70A;stroke-width:3;stroke-miterlimit:10;}
	.st21{fill:none;stroke:#FFC70A;stroke-width:3;stroke-linecap:round;stroke-linejoin:round;}
	.st22{fill:none;stroke:#27AAE1;stroke-width:3;stroke-linecap:round;stroke-linejoin:round;}
	.st23{fill:#F2F2F2;}
	.st24{fill:#383838;}
</style>
<g id="Group_56" transform="translate(0.387)">
	<path id="Path_277" d="M746.5,1818h82.6v-55.1h-82.6V1818z"/>
	<path id="Path_278" class="st0" d="M746.5,1818h82.6v-27.5h-82.6V1818z"/>
	<g id="Group_55" transform="translate(27.839 13.773)">
		<g id="Group_21" transform="translate(0 0)">
			<path id="Path_262" class="st1" d="M760,1762.9c7.5,0.1,13.6,6.2,13.5,13.8c0.1,7.5-6,13.7-13.5,13.8
				c-7.5-0.1-13.6-6.2-13.5-13.8C746.4,1769.1,752.4,1763,760,1762.9"/>
		</g>
	</g>
</g>
<g id="Group_65" transform="translate(0 76.803)">
	<rect id="rect2160" x="889.9" y="1731.6" class="st2" width="83" height="9.7"/>
	<rect id="rect3198" x="889.9" y="1686" class="st2" width="83" height="9.7"/>
	<rect id="rect3200" x="889.9" y="1695.6" class="st3" width="83" height="2.8"/>
	<rect id="rect4171" x="889.9" y="1728.9" class="st3" width="83" height="2.8"/>
	<rect id="rect4173" x="889.9" y="1698.4" class="st4" width="83" height="30.4"/>
	<path id="path5162" class="st5" d="M930.1,1699.1c-13.8,4.2-13.1,14.5-8.7,24.1l-5.3,5l9.5-3.5V1712c3-4.6,8.6-4.6,11.6,0v12.7
		l9.5,3.5l-5.3-5c4.4-9.5,5.1-19.9-8.7-24.1l-1.4,5.9L930.1,1699.1z"/>
	<path id="path6829" class="st5" d="M936.7,1713.2l-3.2,2.5l1.2,4l-3.3-2.5l-3.2,2.5l1.2-4l-3.2-2.5l4,0l1.2-4l1.3,4L936.7,1713.2z"
		/>
</g>
<g id="Group_73" transform="translate(577.69 758.17)">
	<g id="Group_1" transform="translate(-463.071 -690.98)">
		<path id="Path_1" class="st6" d="M113.6,1733.4h-11.9v32.3h7.2v-10.3h5.1c12.6,0,13.3-6.5,13.3-10.9
			C127.3,1740,126.2,1733.4,113.6,1733.4z M113.9,1749.6h-5v-10.3h5c5.3,0,6.1,3,6.1,5.2C120,1746.8,119.2,1749.7,113.9,1749.6
			L113.9,1749.6z"/>
		<path id="Path_2" class="st6" d="M142,1739.5c-9.3,0-11.5,4.3-11.5,9.6l6.9-0.1c0-2.5,1.1-4.2,4.7-4.2c3.8,0,5.1,2.1,5.2,4.9
			l-6.9,0.6c-7.6,0.7-10.8,2.8-10.8,7.7c0,5.6,4.5,8.1,10.3,8.1c5.3,0,8.3-2.2,9.8-4.5l1.6,4.1h2.9v-14.6
			C154.3,1744.2,152.8,1739.5,142,1739.5z M141.7,1760.7c-3.4,0-4.7-1.3-4.7-3c0-1.4,1.1-2.3,4.6-2.6l5.8-0.7
			C147.3,1757.8,146,1760.7,141.7,1760.7L141.7,1760.7z"/>
		<path id="Path_3" class="st6" d="M204.4,1742.7c-1.1-1.6-3.3-3.2-7.7-3.2c-8.2,0-11,6.5-11,13.3c0,6.8,3,13.3,11.1,13.3
			c5.8,0,8.3-2,10-4.5l1.6,4.1h2.9V1730h-6.9L204.4,1742.7z M198.8,1760.4c-4.7,0-6-3.1-6-7.6c0-4.4,1.3-7.5,6.1-7.5
			c4.9,0,5.7,3.2,5.7,7.5C204.5,1757.3,203.6,1760.4,198.8,1760.4L198.8,1760.4z"/>
		<rect id="Rectangle_1" x="216.7" y="1739.9" class="st6" width="7" height="25.8"/>
		<path id="Path_4" class="st6" d="M239.7,1739.5c-9.3,0-11.5,4.3-11.5,9.6l6.9-0.1c0-2.5,1.1-4.2,4.7-4.2c3.8,0,5.1,2.1,5.2,4.9
			l-6.9,0.6c-7.6,0.7-10.8,2.8-10.8,7.7c0,5.6,4.5,8.1,10.3,8.1c5.3,0,8.3-2.2,9.8-4.5l1.6,4.1h2.9v-14.6
			C252,1744.2,250.5,1739.5,239.7,1739.5z M239.4,1760.7c-3.4,0-4.7-1.3-4.7-3c0-1.4,1.1-2.3,4.6-2.6l5.8-0.7
			C245,1757.8,243.7,1760.7,239.4,1760.7L239.4,1760.7z"/>
		<path id="Path_5" class="st6" d="M265.4,1733.4h-6.9v6.6l-3.8,2.1v3.4h3.8v11.6c0,8,4.3,9.6,13.5,8.8v-5.7
			c-4.8,0.4-6.5-0.4-6.5-3.2v-11.6h6.5v-5.7h-6.7L265.4,1733.4z"/>
		<path id="Path_6" class="st6" d="M280.3,1743.9l-1.6-4.1h-2.9v25.9h6.9V1752c0-3.6,1-6.9,7-6.3v-6.2
			C284.6,1739,282,1741.4,280.3,1743.9z"/>
		<rect id="Rectangle_2" x="292.7" y="1739.9" class="st6" width="7" height="25.8"/>
		<path id="Path_7" class="st6" d="M316.5,1745.2c3.4,0,4.6,1.8,5,4.9h7.1c0-6.4-3.9-10.7-12.1-10.7c-10.2,0-13,6.5-13,13.4
			c0,6.9,2.7,13.3,13.2,13.3c8.2,0,11.9-4.2,11.9-10.5l-7.1-0.1c-0.4,2.8-1.7,4.6-5,4.6c-4.5,0-6.1-3.1-6.1-7.5
			C310.4,1748.3,312,1745.2,316.5,1745.2z"/>
		<path id="Path_8" class="st6" d="M338.8,1747.3c0-1.3,1.1-2.6,4.5-2.6c3.7,0,4.9,1.1,5.3,3.9h6.5c0-6-3.9-9.1-11.5-9.1
			c-7.4,0-11.5,2.8-11.5,8.2c0,9.1,17,5.8,17,10.5c0,1.5-1.8,2.6-4.9,2.6c-3.7,0-5.8-1.5-5.8-4.1h-6.8c0,6.4,4.2,9.5,12.7,9.5
			c7,0,11.6-3.3,11.6-8.3C355.8,1748,338.8,1751.8,338.8,1747.3z"/>
		<path id="Path_9" class="st6" d="M170.7,1739.5c-10.5,0-12.8,6.9-12.8,13.3c0,6.7,2.3,13.3,12.9,13.3c8.3,0,11.3-3.9,11.8-8.2
			h-7.3c-0.5,1.5-1.6,2.9-4.7,2.9c-2.8,0.2-5.2-1.8-5.5-4.6c0,0,0,0,0,0l17.5-1.6C183.1,1746.7,180.2,1739.5,170.7,1739.5z
			 M170.2,1744.9c3.7,0,5.2,2.5,5.2,5.4c0,0,0,0.1,0,0.2l-10.4,1c0-0.4,0-0.7,0-1.1C165.2,1747.2,166.7,1744.9,170.2,1744.9
			L170.2,1744.9z"/>
		<path id="Path_10" class="st6" d="M216.7,1737.6l7-0.8v-6l-7,0.8V1737.6z"/>
		<path id="Path_11" class="st6" d="M292.7,1737.6l7-0.8v-6l-7,0.8V1737.6z"/>
	</g>
	<g id="Group_2" transform="translate(-435.87 -719)">
		<path id="Path_12" class="st6" d="M101.8,1746.7c0-8.6,2.7-16.7,15.2-16.7c11,0,14.8,6.2,14.8,13.3h-8.3c-0.5-4.3-2.1-6.5-6.5-6.5
			c-5.9,0-6.9,4.4-6.9,9.9c0,5.6,0.9,9.9,6.9,9.9c4.5,0,6-2.2,6.5-6.6h8.4c0,7.5-3.9,13.3-14.9,13.3
			C104.4,1763.3,101.8,1755.3,101.8,1746.7z"/>
		<path id="Path_13" class="st6" d="M135.9,1746.7c0-8.6,2.8-16.7,15.7-16.7c13,0,15.8,8.1,15.8,16.7c0,5.7-1.9,8.6-4.3,10.2
			l4.7,2.1v3.9h-14.6C138.7,1762.9,135.9,1755.8,135.9,1746.7z M159,1746.7c0-5.6-0.9-10-7.4-10c-6.4,0-7.3,4.4-7.3,9.9
			c0,5.9,1.3,9.6,7.3,9.6C157.8,1756.3,159,1752.6,159,1746.7L159,1746.7z"/>
	</g>
	<path id="Path_14" class="st7" d="M-418.9,1030.9c0.4-0.5,0.4-1.2,0-1.7c-0.1-0.1-0.3-0.2-0.4-0.3c-0.6-0.1-1.3,0.3-1.4,1
		c0,0.1,0,0.3,0,0.4c0.2,0.6,0.9,1,1.5,0.7C-419.1,1031.1-419,1031-418.9,1030.9z"/>
	<path id="Path_15" class="st7" d="M-428,1013.5c-0.6,0.2-1,0.7-1.1,1.3c-0.1,0.9,0.5,1.8,1.4,1.9c0.3,0,0.6,0,0.8-0.1
		c0.6-0.2,1-0.7,1.1-1.3c0.1-0.9-0.5-1.8-1.4-1.9C-427.5,1013.4-427.8,1013.5-428,1013.5z"/>
	<path id="Path_16" class="st7" d="M-419.3,1037.1c0.4-1.1-0.1-2.3-1.1-2.8c-1.1-0.4-2.3,0.1-2.8,1.1c-0.4,1.1,0.1,2.3,1.1,2.8
		C-421,1038.6-419.8,1038.2-419.3,1037.1z"/>
	<path id="Path_17" class="st7" d="M-424.2,1028.1c-1.4-0.7-3.1-0.2-3.9,1.2c-0.2,0.4-0.3,0.8-0.3,1.2c0.2,1.6,1.6,2.7,3.1,2.6
		c0.3,0,0.6-0.1,0.9-0.3c1.3-0.9,1.7-2.7,0.8-4C-423.7,1028.5-424,1028.3-424.2,1028.1z"/>
	<path id="Path_18" class="st7" d="M-434.9,1036.8c-3.5-2-8-0.9-10.3,2.5c-2,3.5-0.9,8,2.5,10.2c3.5,2,8,0.9,10.2-2.4
		C-430.5,1043.5-431.6,1039.1-434.9,1036.8z"/>
	<path id="Path_19" class="st7" d="M-384.9,1008.6c-1,0-2,0.2-2.9,0.6c-1.6,0.7-2.9,2-3.6,3.6c-1.2,3.4,0.5,7.2,3.9,8.6
		c3.4,1.2,7.2-0.5,8.6-3.8c1.2-3.4-0.5-7.2-3.8-8.6C-383.4,1008.7-384.2,1008.6-384.9,1008.6z M-383.4,1018
		c-1.7,0.8-3.8,0.1-4.6-1.7c-0.2-0.4-0.3-0.7-0.3-1.1c0.1-1.9,1.7-3.4,3.6-3.3c0.5,0,1,0.2,1.4,0.4c1.5,1.1,1.9,3.3,0.7,4.9
		C-382.8,1017.5-383.1,1017.8-383.4,1018L-383.4,1018z"/>
	<path id="Path_20" class="st8" d="M-339.6,1025.7c-1.2-0.8-2.8-0.4-3.6,0.8c-0.2,0.2-0.3,0.5-0.3,0.8c-0.1,0.7,0.1,1.3,0.6,1.8
		c-0.7,0.8-1.6,1.4-2.5,1.7c-1.5,0.6-3.3,0.5-4.8-0.3c-5.5-3.1-12.1-3.5-17.9-1c-0.1-1-0.4-2-1-2.8c0-0.1-0.1-0.1-0.1-0.2
		c5.5-2.6,11.8-2.9,17.6-0.9c2.1,0.7,4.5,0.3,6.3-1c1.4-0.9,2.4-2.3,2.9-3.8c0.6,0.1,1.1-0.1,1.6-0.4c1.2-1,1.4-2.7,0.5-4
		c-0.2-0.2-0.4-0.4-0.7-0.6c-1.4-0.7-3.1-0.1-3.7,1.3c-0.2,0.4-0.3,0.9-0.3,1.3c0.1,0.9,0.8,1.7,1.6,2.1c-0.5,1.3-1.4,2.5-2.5,3.3
		c-1.6,1.1-3.6,1.5-5.4,0.9c-6.1-2.1-12.8-1.8-18.6,1c-6.4-7.1-18.3,1.4-22.6,3.6c-8.4,4.4-17.1,8.5-23,15.5
		c-0.9,1.1-0.7,2.6,0.4,3.5c0.4,0.4,1,0.6,1.6,0.6c11-0.3,21.2-5.9,27.2-15.2c3.3-5.1,9.9-6.5,10.5-3.7c0,0.1,0,0.2,0,0.3
		c-1.4,3.8,6.3,8,7.7,0.6c0-0.1,0-0.2,0-0.3c5.6-2.5,12.1-2.2,17.5,0.8c1.7,0.9,3.8,1.1,5.6,0.4c1.1-0.4,2.2-1.1,3-2
		c0.6,0.4,1.3,0.4,1.9,0.2c1.3-0.6,1.9-2.1,1.3-3.4C-339.1,1026.2-339.4,1025.9-339.6,1025.7z"/>
	<path id="Path_21" class="st9" d="M-388.2,1008.3c-1.9,0.8-3.3,2.3-4.1,4.2c-1.3,3.9,0.6,8.3,4.4,9.9c0.8,0.3,1.6,0.5,2.5,0.5
		c3.2,0,6.1-1.9,7.4-4.9c1.3-3.9-0.6-8.3-4.4-9.9C-384.3,1007.4-386.4,1007.5-388.2,1008.3z M-378.9,1017.6c-1.4,3.3-5.2,5-8.6,3.8
		c-3.3-1.4-5-5.2-3.9-8.6c0.7-1.6,1.9-2.9,3.6-3.6c0.9-0.4,1.9-0.6,2.9-0.6c0.8,0,1.5,0.1,2.2,0.4
		C-379.4,1010.4-377.7,1014.2-378.9,1017.6L-378.9,1017.6z"/>
	<path id="Path_22" class="st10" d="M-452.2,1029.3c2.5-0.9,3.1-4.2,2.3-6.7c-0.8-2.4-2.5-4.3-3.6-6.6s-1.5-5.1,0.1-7.1
		c1.1-1.3,3.2-1.5,4.5-0.3c0.6,0.6,1,1.4,1.1,2.2c0.3,2.9,2.4,5.2,5.3,5.6c3,0.3,5.9-1.6,6.8-4.5c0.7-3-0.8-6-3.7-7.3
		c-1.4-0.6-2.2-2-2-3.5c0.3-1.5,1.5-2.6,3-2.7c2.9-0.3,5-2.9,4.6-5.8c0-0.2-0.1-0.4-0.1-0.6c-1-2.7-4-4.2-6.7-3.2
		c-0.2,0.1-0.4,0.1-0.6,0.2c-5.4,3-10.7,6-16,9.3c-1.2,0.7-1.8,2.1-1.6,3.5c0.5,3-0.7,6-3,7.9c-2.3,1.7-5.2,2.2-7.9,1.4
		c-1.7-0.4-3.4,0.5-4,2.1c-2,5.2-2.7,10.8-1.9,16.2c0.3,1.8,1.9,3.2,3.8,3.2c1.9-0.1,3.4-1.5,3.6-3.4c0.2-2.9,0.9-5.9,2.7-8.2
		s5-3.8,7.7-2.7c2.6,1,4.1,4.6,2.5,6.8c-0.9,1.2-0.7,3,0.6,3.9C-454,1029.5-453.1,1029.6-452.2,1029.3z"/>
	<path id="Path_23" class="st6" d="M-458.3,1024.2c-0.2-1.4-1.2-2.5-2.5-2.9c-2-0.3-3.8,1.1-4.1,3.1c0,0.1,0,0.2,0,0.3
		c-0.1,2.7-0.3,6.3-2.3,8.6c-1.9,2-1.8,5.2,0.3,7.1c0,0,0,0,0,0c0.8,0.7,1.9,1.1,3,1.2c2.4-0.1,4.5-1.8,5.2-4.1
		c0.3-1.4,0.1-2.9-0.8-4.1c-1.4-2-1.3-4.8,0.4-6.7C-458.5,1026.1-458.2,1025.2-458.3,1024.2z"/>
	<path id="Path_24" class="st11" d="M-416.5,1041.3c4.4-1.9,5.6-8,3.3-12.1c-2.3-4-7.2-6.1-11.9-6.2c-2.8,0-5.5,0.5-8.1,1.5
		c-3,1.2-6.1,2.2-9.2,2.9c-6.7,1.6-12.4,7.3-13.3,14.2c-1.1,8.4,5,17.1,13.3,18.8c8.3,1.7,17.4-3.8,19.7-11.9
		C-421.8,1045.3-419.5,1042.6-416.5,1041.3z M-419.4,1029c0.6,0.2,0.9,0.9,0.7,1.5c-0.1,0.2-0.1,0.3-0.3,0.4
		c-0.5,0.4-1.3,0.3-1.7-0.2c-0.1-0.1-0.1-0.2-0.2-0.3c-0.1-0.6,0.3-1.3,1-1.4C-419.7,1029-419.5,1029-419.4,1029z M-432.5,1047
		c-2.2,3.4-6.7,4.4-10.2,2.4c-3.4-2.2-4.4-6.7-2.5-10.2c2.2-3.4,6.7-4.5,10.3-2.5C-431.6,1039.1-430.5,1043.5-432.5,1047
		L-432.5,1047z M-424.4,1032.8c-1.4,0.7-3.2,0-3.8-1.4c-0.1-0.3-0.2-0.6-0.3-0.9c0.1-1.6,1.4-2.8,3-2.7c0.4,0,0.8,0.1,1.2,0.3
		c1.3,1,1.5,2.8,0.6,4C-423.8,1032.4-424.1,1032.6-424.4,1032.8z M-423.2,1035.5c0.5-1,1.7-1.5,2.8-1.1c1.1,0.5,1.6,1.7,1.1,2.8
		c-0.5,1-1.7,1.5-2.8,1.1C-423.1,1037.7-423.6,1036.5-423.2,1035.5L-423.2,1035.5z"/>
	<path id="Path_25" class="st10" d="M-388.4,1015.2c0.2,1.9,1.9,3.3,3.8,3.1c0.4,0,0.8-0.1,1.1-0.3c1.6-1.1,2-3.2,0.9-4.8
		c-0.2-0.3-0.5-0.6-0.8-0.8c-1.7-0.9-3.8-0.2-4.7,1.5C-388.2,1014.3-388.4,1014.7-388.4,1015.2z"/>
	<path id="Path_26" class="st10" d="M-411.8,1026.6c-0.2,0.2-0.2,0.6,0,0.8c0.1,0.1,0.2,0.2,0.3,0.2l5.1,0.8c0.2,0,0.4,0.2,0.5,0.4
		l1,4.1c0.1,0.3,0.4,0.5,0.7,0.4c0.1,0,0.2-0.1,0.3-0.2l3.1-4.2c0.1-0.1,0.3-0.2,0.4-0.2c1.8-0.1,3.5-0.1,5.2-0.1
		c0.3,0,0.6-0.2,0.6-0.6c0-0.1,0-0.2-0.1-0.3c-0.8-1.5-1.6-2.9-2.3-4.5c0-0.1-0.1-0.2,0-0.3l0.3-4.8c0-0.3-0.2-0.6-0.5-0.6
		c-0.1,0-0.2,0-0.3,0l-4.8,2c-0.1,0.1-0.3,0.1-0.4,0c-1.4-0.7-2.9-1.2-4.4-1.7c-0.3-0.1-0.6,0.1-0.7,0.4c0,0.1,0,0.1,0,0.2l0.2,4.1
		c0,0.2-0.1,0.3-0.2,0.4L-411.8,1026.6z"/>
	<path id="Path_27" class="st10" d="M-408.1,1050.4c-1.2,0.3-2.5,0.6-3.7,0.9c-0.4,0.1-0.6,0.5-0.6,0.9c1.1,7,8,12.9,14.9,12.6
		c0.2,0,0.4,0,0.6,0c6.2-0.6,11.9-6.1,13-12.5c0.1-0.4-0.2-0.8-0.6-0.9c-0.7-0.2-1.4-0.4-2.1-0.6c-0.4-0.1-0.9,0.2-1,0.6
		c0,0,0,0,0,0c-0.8,4.4-4.6,8.2-8.9,8.6c-0.1,0-0.2,0-0.4,0c-2.7,0.1-5.4-1-7.3-2.9c-1.7-1.6-2.8-3.7-3.1-6
		C-407.2,1050.7-407.6,1050.4-408.1,1050.4C-408.1,1050.4-408.1,1050.4-408.1,1050.4z"/>
	<path id="Path_28" class="st6" d="M-396.8,1058.4c3.7-0.2,7-3.5,7.7-7.3c0.1-0.4-0.2-0.9-0.7-1c0,0,0,0,0,0c-5-0.8-10-0.9-15-0.3
		c-0.4,0.1-0.8,0.5-0.7,0.9c0,0,0,0,0,0c0.3,2,1.2,3.8,2.7,5.1C-401.2,1057.5-399.1,1058.4-396.8,1058.4z"/>
	<path id="Path_29" class="st8" d="M-377.7,1053.8c-1.2-0.5-2.3-1-3.5-1.4c-0.4-0.1-0.9,0.1-1,0.5c0,0,0,0.1,0,0.1
		c-1.4,7-7.5,12.8-14.4,13.4c-0.2,0-0.5,0-0.7,0.1c-7.7,0.3-15.1-5.8-16.6-13.5c-0.1-0.4-0.5-0.7-0.9-0.6c0,0-0.1,0-0.1,0
		c-1,0.4-1.9,0.8-2.9,1.2c-0.3,0.2-0.5,0.5-0.5,0.9c2.3,9.6,10.8,16.5,20.7,16.9c9.6,0.1,18.8-7.1,20.5-16.7
		C-377.1,1054.3-377.3,1054-377.7,1053.8z"/>
	<path id="Path_30" class="st10" d="M-414.3,1067.7c-2.3-2.8-4.1-6.1-5.3-9.5c-0.4-1.1-1.7-1.7-2.8-1.3c-0.8,0.3-1.4,1.1-1.4,2v0.1
		c0.2,1.8,0.9,3.5,2.1,4.9c1.1,1.3,1.8,2.9,2.2,4.6c0.1,0.8,0.4,1.5,0.9,2c1,1.2,2.8,1.4,4,0.4c0.1-0.1,0.2-0.2,0.3-0.2
		C-413.7,1069.9-413.6,1068.6-414.3,1067.7z"/>
	<path id="Path_31" class="st12" d="M-402.9,1075.1c-0.1-0.7-0.6-1.4-1.3-1.7c-0.7-0.3-1.4-0.5-2.2-0.5c-0.7-0.1-1.4-0.4-2.1-0.4
		c-0.8,0-1.5-0.1-2.3-0.3c-0.8-0.2-1.5-0.2-2.3-0.1c-0.8,0.2-1.4,0.7-1.7,1.4c-0.3,0.8,0.2,1.6,0.9,1.9c3.2,0.8,6.5,1.2,9.7,1.2
		C-403.4,1076.6-402.8,1075.9-402.9,1075.1z"/>
	<path id="Path_32" class="st9" d="M-404.4,1078.8c-0.7,0-1.4,0-2.1-0.2l-0.2,0c-1.7-0.4-3.4,0.6-3.8,2.2c-0.2,0.7-0.1,1.5,0.2,2.2
		l3.2,6.7l0,0.1c2.1,4.3,4.9,4.1,6.2-0.5c0.9-3.1,0.5-6.3-1.1-9.1C-402.4,1079.2-403.4,1078.7-404.4,1078.8z"/>
	<path id="Path_33" class="st12" d="M-375.2,1044.6c-1.2,0.2-2.4-0.4-2.9-1.5c-0.3-1.4,0.5-2.9,1.9-3.3c0.4-0.1,0.8-0.2,1.2-0.1
		c0.8,0,1.4-0.6,1.5-1.3c0-0.7-0.4-1.2-1.1-1.4l-0.1,0c-3.9-0.6-7.9,0.2-11.3,2.2c-1.5,0.9-2.8,2-3.9,3.4c-1,1.2-0.9,3.1,0.3,4.1
		c0.5,0.4,1.2,0.7,1.9,0.7c3.5,0,6.9,1.2,9.5,3.5c1.7,1.4,4.2,1.1,5.6-0.6c0.1-0.1,0.2-0.2,0.2-0.3c0.8-1.4,0.6-3.2-0.5-4.4
		C-373.4,1044.8-374.3,1044.5-375.2,1044.6z"/>
	<path id="Path_34" class="st13" d="M-431.9,1000.1c-1.2-0.4-2.5,0-3.1,1c-0.7,1.2-0.3,2.7,0.9,3.4c1.2,0.7,2.7,0.3,3.4-0.9
		c0.5-1,0.4-2.2-0.4-3c1.5-2.1,3.2-4.1,4.9-6.1c0.9,0.1,1.8,0.5,2.6,1c-0.1,0.1-0.2,0.2-0.3,0.3c-1.4,2.1-0.9,4.9,1.1,6.4
		c2.1,1.3,4.8,0.8,6.2-1.2c1.3-2.1,0.8-4.8-1.1-6.2c-1.6-1-3.7-1-5.3,0.1c-0.8-0.6-1.6-1-2.6-1.2c5.4-5.8,11.7-10.8,18.6-14.7
		c1.6,1.3,4,1.2,5.6-0.2c1.5-1.6,1.6-4.2,0.1-5.8c-1.6-1.6-4.2-1.6-5.9,0c-1.4,1.5-1.5,3.6-0.4,5.3c-3.1,1.8-6.2,3.8-9,6
		c-1.7-3.5-4.8-6.1-8.4-7.4c0.1-0.2,0.2-0.3,0.3-0.5c0.4-1.4-0.3-2.9-1.6-3.4c-1.4-0.4-2.9,0.3-3.4,1.7c-0.4,1.4,0.3,2.9,1.7,3.4
		c0.8,0.2,1.7,0.1,2.3-0.4c3.7,1.1,6.7,3.8,8.4,7.2c-1.6,1.2-3.1,2.6-4.6,3.9c-0.7-1.6-2-2.9-3.6-3.6c0,0,0-0.1,0.1-0.1
		c0.4-1.3-0.3-2.8-1.6-3.2c-1.4-0.4-2.8,0.3-3.3,1.7c-0.4,1.4,0.4,2.7,1.7,3.2c0.9,0.3,1.9,0,2.6-0.7c1.6,0.6,2.9,1.9,3.4,3.5
		C-426,992.8-429.1,996.3-431.9,1000.1z"/>
	<path id="Path_35" class="st9" d="M-412.7,992.6c-1,0.8-1.2,2.2-0.6,3.4c1.5,3.2,0.6,7.1-2.2,9.2c-2.8,1.8-6.3,1.7-9-0.3
		c-1.2-0.9-2.9-0.6-3.8,0.6c0,0,0,0.1-0.1,0.1c-0.8,1.2-1.6,2.4-2.3,3.5c-0.2,0.3-0.2,0.8,0.1,1.1c0.3,0.4,0.4,0.9,0.4,1.4
		c-0.1,0.6-0.5,1.1-1,1.3c-0.3,0.1-0.7,0.1-1.1,0c-0.4-0.1-0.8,0-1.1,0.4c-1.5,2.4-0.7,5.5,1.7,7c0.6,0.4,1.4,0.6,2.1,0.7
		c1.5,0.1,3,0.1,4.5-0.2c4.1-0.7,8.1-3.4,9-7.4c0.5-1.8,2.1-3,3.9-3c1.8,0.1,3.4,1.5,3.7,3.3c0.6,3.8,7.6,5.4,8.2-0.6
		c0.1-1.6-0.8-3.2-2.3-3.8c-2.4-1.1-2.1-5.6,1-5.7c1.7-0.1,3.1,1.2,3.2,2.9c0,0.3,0,0.5-0.1,0.8c-0.5,2.5,3,4.9,5.1,3.4
		c2.1-1.4,1.5-5.2-0.8-6c-1.4-0.6-2-2.1-1.4-3.5c0.3-0.6,0.8-1.1,1.4-1.4c1.8-0.8,3.8-0.2,5.7,0.4c2,0.6,4.3,1,5.9-0.2
		c1.1-0.9,1.2-2.4,0.4-3.5c-0.5-0.6-1.3-1-2.1-0.9c-5.2,0.3-10.3-1.1-14.6-3.9C-403.3,989.1-408.8,989.4-412.7,992.6z
		 M-425.8,1015.4c-0.1,0.6-0.5,1.1-1.1,1.3c-0.9,0.3-1.8-0.1-2.2-1c-0.1-0.3-0.1-0.5-0.1-0.8c0.1-0.6,0.5-1.1,1.1-1.3
		c0.9-0.3,1.8,0.1,2.2,1C-425.8,1014.8-425.7,1015.1-425.8,1015.4L-425.8,1015.4z"/>
</g>
<g id="Group_72" transform="translate(-160.206 -3831.206)">
	<path id="Rectangle_21" class="st6" d="M707,5585.6h40c8.8,0,16,7.2,16,16v40c0,8.8-7.2,16-16,16h-40c-8.8,0-16-7.2-16-16v-40
		C691,5592.8,698.2,5585.6,707,5585.6z"/>
	<g class="st14">
		<path class="st5" d="M721.4,5627.2v13.5h-7.1v-38.3h12.5c2.6,0,4.8,0.3,6.7,0.9c1.9,0.6,3.4,1.4,4.6,2.5c1.2,1.1,2.1,2.4,2.7,3.9
			s0.9,3.1,0.9,4.9c0,1.9-0.3,3.6-0.9,5.1c-0.6,1.5-1.5,2.9-2.8,4c-1.2,1.1-2.8,2-4.6,2.6c-1.9,0.6-4,0.9-6.5,0.9H721.4z
			 M721.4,5621.6h5.4c1.3,0,2.4-0.2,3.4-0.5c1-0.3,1.8-0.8,2.4-1.4c0.6-0.6,1.1-1.4,1.4-2.2c0.3-0.9,0.5-1.9,0.5-2.9
			c0-1-0.2-2-0.5-2.8c-0.3-0.8-0.8-1.5-1.4-2.1c-0.6-0.6-1.4-1-2.4-1.3c-1-0.3-2.1-0.5-3.4-0.5h-5.4V5621.6z"/>
	</g>
</g>
<path id="Path_280" class="st15" d="M674.9,1774c-6.4,0-11.6,5.2-11.6,11.6c0,10.8,10.5,21.4,11.6,21.4s11.6-10.6,11.6-21.4
	C686.4,1779.1,681.3,1774,674.9,1774z M674.9,1798.5c-2.5-3.3-5.5-8.4-5.5-13c0-3.1,2.5-5.5,5.6-5.5c3.1,0,5.5,2.5,5.5,5.5
	C680.4,1790.1,677.4,1795.3,674.9,1798.5L674.9,1798.5z"/>
<path id="Path_283" class="st9" d="M607,1289.5c-14.6,11.9-17.9,32.4-9.2,49.2c22.2,43.1,9.3,105.2-32.8,135.4
	c-38.3,27.4-93.9,23.5-131.5-3.8c-17.7-13.1-42.8-9.4-55.9,8.4c-0.3,0.4-0.7,0.9-1,1.4c-11.7,17.3-23.1,34.6-34.4,51.8
	c-3.2,4.9-2.9,11.3,0.8,15.9c4.6,5.6,6.5,12.8,5.2,19.9c-1.5,8.5-7.3,15.6-15.3,18.6c-5,1.9-10.5,2.2-15.6,0.7
	c-5.8-1.8-12,0.3-15.5,5.3c-30.6,46.4,4.6,109.5,55.8,112.9c21.8,1.5,43.6,0.9,65.2-2.7c59.5-10.1,118.2-49.9,131.5-108.8
	c5.7-25.4,31-44.9,57.1-44.1c26.1,0.9,50,22.1,54,47.8c8.7,56.4,111.3,78.9,120.5-8.5c2.5-24-12-45.9-34-55.9
	c-35-15.8-30.4-81.8,14.9-83.4c30.2-1.1,51.2,25,45.9,54.8c-6.7,37.3,43.2,71.4,75.4,50.4c30.9-20.2,21.9-76-11.7-88.1
	c-31.9-11.5-32.2-58.5-1.1-72.1c25.6-11.2,56-2.5,83.3,5.5c29,8.5,62.8,15.2,87.1-2.9c28-21,10-65.7-24.9-63.8
	c-75.6,3.9-150.5-16.1-214.1-57.2C746.6,1236.9,661.8,1244.7,607,1289.5z M414.7,1623.7c-1.3,8.9-7.5,16.3-16,19.4
	c-12.8,4.6-27-2.1-31.6-14.9c-1.4-3.9-1.8-8-1.2-12.1c1.4-8.9,7.5-16.3,16-19.4c12.8-4.6,26.9,2.1,31.5,14.9
	C414.9,1615.5,415.3,1619.7,414.7,1623.7z"/>
<g id="Group_23" transform="translate(677.118 1.998)">
	<path id="Path_65" class="st16" d="M-62.7,800.8c9.4,0,33.1-12.5,33.1-30.5"/>
	<path id="Path_66" class="st16" d="M-16.3,750.1c-7.9,3.7-13,11.5-13.4,20.3"/>
	<path id="Path_67" class="st16" d="M-16.3,783.9c0-10,3.7-19.6,10.2-27.1"/>
	<path id="Path_68" class="st16" d="M-16.3,750.1c4.5,0,8.5,2.6,10.2,6.7"/>
	<path id="Path_69" class="st16" d="M-12,765.7c7.4-2.2,11.8-2.9,19.5-2.1c2.1,1.6,3.4,4.1,3.4,6.8c0,2.6-1.3,5.1-3.4,6.7
		c-5.6-0.6-8-0.3-13.5,1"/>
	<path id="Path_70" class="st16" d="M-29.3,767.1c-2-6.5-5.7-12.4-10.6-17c-4.5,0-8.9,2-11.8,5.4c5.2,3.2,8.4,8.7,8.6,14.8
		c0,0-20.3,9.4-20.3,23.6c0,2.3,0.3,4.6,0.7,6.8c3,16.6,15.2,43.8,33.1,43.8c20.7,0,33.8-37.3,33.8-47.3c0-7.5-4.6-14.8-10.2-19.3
		c-2.5-2.2-5.6-3.7-9-4.2"/>
	<path id="Path_71" class="st16" d="M-29.7,797.3c-1.4,11.5,13.4,16,6.7,33.7"/>
	<path id="Path_72" class="st16" d="M-26.8,807.8c-2.9,11.5-6.8,7.9-9.8,16.8"/>
	<path id="Path_73" class="st16" d="M-29.7,800.3c8.4,8.1,14.4,3.6,18.5,10.5"/>
</g>
<g id="Group_21_00000008837822971385231190000009449158112742687140_" transform="translate(-1124.076 -526.061)">
	<g id="Group_13" transform="translate(1125.576 792.058)">
		<path id="Path_36" class="st17" d="M249.8,682.3v-14.4l-12.5-7.2l-12.5,7.2v14.4l12.5,7.2L249.8,682.3z"/>
		<path id="Path_37" class="st17" d="M274.8,667.9l-12.5-7.2l-12.5,7.2v14.4"/>
		<path id="Path_38" class="st17" d="M262.3,660.7l12.5,7.2l8-4.6"/>
		<g id="Group_6" transform="translate(45.117 0)">
			<path id="Path_39" class="st17" d="M216.2,644.5c-0.2,1.3-1.3,2.1-2.6,2s-2.1-1.3-2-2.6c0.2-1.1,1.1-2,2.3-2
				C215.3,642,216.3,643.2,216.2,644.5z"/>
			<line id="Line_1" class="st17" x1="218.9" y1="641.9" x2="218.9" y2="647.2"/>
			<line id="Line_2" class="st17" x1="222.7" y1="641.9" x2="222.7" y2="647.2"/>
			<line id="Line_3" class="st17" x1="222.7" y1="644.7" x2="218.9" y2="644.7"/>
		</g>
		<line id="Line_4" class="st17" x1="237.4" y1="685.4" x2="246" y2="680.5"/>
		<line id="Line_5" class="st17" x1="218.1" y1="686.4" x2="224.9" y2="682.3"/>
		<line id="Line_6" class="st17" x1="246.3" y1="670" x2="237.7" y2="665"/>
		<line id="Line_7" class="st17" x1="228.5" y1="670" x2="228.5" y2="679.9"/>
		<g id="Group_7" transform="translate(0 46.951)">
			<path id="Path_40" class="st17" d="M216.2,644.5c-0.2,1.3-1.3,2.1-2.6,2s-2.1-1.3-2-2.6c0.2-1.1,1.1-2,2.3-2
				C215.3,642,216.3,643.2,216.2,644.5z"/>
		</g>
		<line id="Line_8" class="st17" x1="218.9" y1="688.9" x2="218.9" y2="694.1"/>
		<g id="Group_8" transform="translate(7.195 46.951)">
			<line id="Line_9" class="st17" x1="215.5" y1="641.9" x2="215.5" y2="647.2"/>
			<line id="Line_10" class="st17" x1="215.5" y1="644.7" x2="211.7" y2="644.7"/>
		</g>
		<g id="Group_9" transform="translate(0 14.467)">
			<path id="Path_41" class="st17" d="M216.2,644.5c-0.2,1.3-1.3,2.1-2.6,2s-2.1-1.3-2-2.6c0.2-1.1,1.1-2,2.3-2
				C215.3,642,216.3,643.2,216.2,644.5z"/>
		</g>
		<line id="Line_11" class="st17" x1="218.9" y1="656.4" x2="218.9" y2="661.6"/>
		<g id="Group_10" transform="translate(7.195 14.467)">
			<line id="Line_12" class="st17" x1="215.5" y1="641.9" x2="215.5" y2="647.2"/>
			<line id="Line_13" class="st17" x1="215.5" y1="644.7" x2="211.7" y2="644.7"/>
		</g>
		<line id="Line_14" class="st17" x1="218.1" y1="663.8" x2="224.9" y2="667.9"/>
		<line id="Line_15" class="st17" x1="262.3" y1="660.7" x2="262.3" y2="651.3"/>
		<g id="Group_11" transform="translate(73.643 15.84)">
			<line id="Line_16" class="st17" x1="215.5" y1="647.2" x2="215.5" y2="641.9"/>
			<line id="Line_17" class="st17" x1="211.7" y1="641.9" x2="215.5" y2="647.2"/>
			<line id="Line_18" class="st17" x1="211.7" y1="647.2" x2="211.7" y2="641.9"/>
		</g>
		<g id="Group_12" transform="translate(80.439 15.84)">
			<line id="Line_19" class="st17" x1="211.7" y1="641.9" x2="211.7" y2="647.2"/>
			<line id="Line_20" class="st17" x1="215.5" y1="641.9" x2="215.5" y2="647.2"/>
			<line id="Line_21" class="st17" x1="215.5" y1="644.7" x2="211.7" y2="644.7"/>
		</g>
		<path id="Path_42" class="st17" d="M298.6,659.7c0-0.6,0.5-1.1,1.1-1.1c0.6,0,1.1,0.5,1.1,1.1c0,0.1,0,0.2,0,0.2
			c-0.1,0.6-0.4,1.1-0.9,1.5c-0.6,0.7-1.2,1.6-1.2,1.6h2.3"/>
	</g>
	<g id="Group_19" transform="translate(1139.541 802.724)">
		<path id="Path_43" class="st17" d="M273.7,714.3v-14.4l-12.5-7.2l-12.5,7.2v14.4l12.5,7.2L273.7,714.3z"/>
		<path id="Path_44" class="st17" d="M286.2,692.7v-14.4l-12.5-7.2l-12.5,7.2v14.4l12.5,7.2L286.2,692.7z"/>
		<path id="Path_45" class="st17" d="M286.1,692.7l13.7,4.5l8.5-11.6l-8.4-11.7l-13.7,4.4"/>
		<line id="Line_22" class="st17" x1="248.8" y1="699.9" x2="248.8" y2="690.4"/>
		<line id="Line_23" class="st17" x1="286.2" y1="678.3" x2="286.2" y2="668.8"/>
		<g id="Group_14" transform="translate(101.011 29.011)">
			<path id="Path_46" class="st17" d="M216.2,644.5c-0.2,1.3-1.3,2.1-2.6,2s-2.1-1.3-2-2.6c0.2-1.1,1.1-2,2.3-2
				C215.3,642,216.3,643.2,216.2,644.5z"/>
			<line id="Line_24" class="st17" x1="218.9" y1="641.9" x2="218.9" y2="647.2"/>
			<line id="Line_25" class="st17" x1="222.7" y1="641.9" x2="222.7" y2="647.2"/>
			<line id="Line_26" class="st17" x1="222.7" y1="644.7" x2="218.9" y2="644.7"/>
		</g>
		<g id="Group_15" transform="translate(104.218 0)">
			<ellipse id="Ellipse_3" class="st17" cx="213.9" cy="644.5" rx="2.3" ry="2.6"/>
			<line id="Line_27" class="st17" x1="218.9" y1="641.9" x2="218.9" y2="647.2"/>
			<line id="Line_28" class="st17" x1="222.7" y1="641.9" x2="222.7" y2="647.2"/>
			<line id="Line_29" class="st17" x1="222.7" y1="644.7" x2="218.9" y2="644.7"/>
		</g>
		<ellipse id="Ellipse_4" class="st17" cx="213.9" cy="719.8" rx="2.3" ry="2.6"/>
		<path id="Path_47" class="st17" d="M248.8,714.3v-14.4l-12.5-7.2l-12.5,7.2v14.4l12.5,7.2L248.8,714.3z"/>
		<line id="Line_30" class="st17" x1="236.3" y1="717.3" x2="244.9" y2="712.4"/>
		<g id="Group_16" transform="translate(5.249 70.145)">
			<line id="Line_31" class="st17" x1="220.5" y1="645.2" x2="213.6" y2="649.1"/>
			<line id="Line_32" class="st17" x1="218.6" y1="641.9" x2="211.7" y2="645.8"/>
		</g>
		<line id="Line_33" class="st17" x1="253" y1="673.6" x2="261.2" y2="678.3"/>
		<g id="Group_17" transform="translate(35.051 23.923)">
			<ellipse id="Ellipse_5" class="st17" cx="213.9" cy="644.5" rx="2.3" ry="2.6"/>
			<line id="Line_34" class="st17" x1="218.9" y1="641.9" x2="218.9" y2="647.2"/>
			<line id="Line_35" class="st17" x1="222.7" y1="641.9" x2="222.7" y2="647.2"/>
			<line id="Line_36" class="st17" x1="222.7" y1="644.7" x2="218.9" y2="644.7"/>
		</g>
		<line id="Line_37" class="st17" x1="310.1" y1="673.9" x2="299.9" y2="673.9"/>
		<path id="Path_48" class="st17" d="M299,651.2c-0.2,1.3-1.3,2.1-2.6,2s-2.1-1.3-2-2.6c0.2-1.1,1.1-2,2.3-2
			C298,648.6,299,649.8,299,651.2z"/>
		<line id="Line_38" class="st17" x1="299.9" y1="673.9" x2="304.2" y2="660.1"/>
		<g id="Group_18" transform="translate(86.523 11.86)">
			<line id="Line_39" class="st17" x1="219.9" y1="647.8" x2="214.6" y2="641.9"/>
			<line id="Line_40" class="st17" x1="217" y1="650.3" x2="211.7" y2="644.5"/>
		</g>
		<line id="Line_41" class="st17" x1="318.3" y1="656.9" x2="304.2" y2="660.1"/>
		<line id="Line_42" class="st17" x1="318.3" y1="656.9" x2="320.4" y2="650"/>
	</g>
</g>
<g id="Group_25" transform="translate(-1093.893 -524.936)">
	<path id="Path_93" class="st18" d="M1532,1457.1c-8.1,0-14.6,6.5-14.6,14.6c0,8.1,6.5,14.6,14.6,14.6"/>
	<path id="Path_94" class="st18" d="M1564.9,1457.1c-8.1,0-14.6-6.5-14.6-14.6l0,0v-14.6"/>
	<path id="Path_95" class="st18" d="M1539.3,1486.3c-8.1,0-14.6,6.5-14.6,14.6c0,8.1,6.5,14.6,14.6,14.6l0,0"/>
	<path id="Path_96" class="st18" d="M1597.7,1500.9c8.1,0,14.6-6.5,14.6-14.6s-6.5-14.6-14.6-14.6l0,0"/>
	<path id="Path_97" class="st18" d="M1590.4,1471.7c8.1,0,14.6-6.5,14.6-14.6c0-8.1-6.5-14.6-14.6-14.6"/>
	<path id="Path_98" class="st18" d="M1564.9,1500.9c8.1,0,14.6,6.5,14.6,14.6c0,0,0,0,0,0v14.6"/>
	<line id="Line_44" class="st18" x1="1594.1" y1="1486.3" x2="1532" y2="1486.3"/>
	<line id="Line_45" class="st18" x1="1586.8" y1="1457.1" x2="1532" y2="1457.1"/>
	<path id="Path_99" class="st18" d="M1590.4,1442.5h-21.9c-2,0-3.7-1.6-3.7-3.7v-11"/>
	<line id="Line_46" class="st18" x1="1597.7" y1="1471.7" x2="1535.7" y2="1471.7"/>
	<line id="Line_47" class="st18" x1="1597.7" y1="1500.9" x2="1539.3" y2="1500.9"/>
	<path id="Path_100" class="st18" d="M1539.3,1515.5h21.9c2,0,3.7,1.6,3.7,3.7l0,0v11"/>
</g>
<g id="Group_51" transform="translate(175.533 -913.93)">
	<line id="Line_48" class="st19" x1="620.5" y1="1712.9" x2="649.3" y2="1712.9"/>
	<line id="Line_49" class="st19" x1="663.6" y1="1712.9" x2="692.1" y2="1712.9"/>
	<line id="Line_50" class="st19" x1="706.6" y1="1712.9" x2="733.7" y2="1712.9"/>
	<line id="Line_51" class="st19" x1="620.5" y1="1762.5" x2="733.7" y2="1762.5"/>
	<path id="Path_159" class="st19" d="M668.9,1668c0,0-13.4,25.1-13.4,61.9"/>
	<path id="Path_160" class="st20" d="M658,1729.9c0,2.5-1.1,4.4-2.5,4.4c-1.4,0-2.5-2-2.5-4.4c0-2.5,2.5-6.1,2.5-6.1
		S658,1727.4,658,1729.9z"/>
	<path id="Path_161" class="st19" d="M712,1668c0,0-13.4,25.1-13.4,61.9"/>
	<path id="Path_162" class="st20" d="M701.1,1729.9c0,2.5-1.1,4.4-2.5,4.4c-1.4,0-2.5-2-2.5-4.4c0-2.5,2.5-6.1,2.5-6.1
		S701.1,1727.4,701.1,1729.9z"/>
	<g id="Group_35" transform="translate(901.66 1001.032)">
		<g id="Group_34" transform="translate(0 0)">
			<g id="Path_163" transform="translate(-358.336 -204.334)">
				<path class="st7" d="M171.5,955.4c0,0.5-0.4,1-1,1s-1-0.4-1-1c0-0.5,0.4-1,1-1C171,954.4,171.5,954.8,171.5,955.4
					C171.5,955.4,171.5,955.4,171.5,955.4z"/>
				<path class="st10" d="M170.5,954.4c-0.5,0-1,0.4-1,1c0,0.5,0.4,1,1,1c0.5,0,1-0.4,1-1C171.5,954.8,171,954.4,170.5,954.4
					 M170.5,951.4c2.2,0,4,1.8,4,4c0,2.2-1.8,4-4,4c-2.2,0-4-1.8-4-4C166.5,953.2,168.3,951.4,170.5,951.4z"/>
			</g>
		</g>
	</g>
	<g id="Group_37" transform="translate(913.666 989.026)">
		<g id="Group_36" transform="translate(0 0)">
			<g id="Path_164" transform="translate(-365.336 -197.334)">
				<path class="st7" d="M178.5,948.4c0,0.5-0.4,1-1,1s-1-0.4-1-1c0-0.5,0.4-1,1-1C178,947.4,178.5,947.8,178.5,948.4
					C178.5,948.4,178.5,948.4,178.5,948.4z"/>
				<path class="st10" d="M177.5,947.4c-0.5,0-1,0.4-1,1c0,0.5,0.4,1,1,1c0.5,0,1-0.4,1-1C178.5,947.8,178,947.4,177.5,947.4
					 M177.5,944.4c2.2,0,4,1.8,4,4c0,2.2-1.8,4-4,4c-2.2,0-4-1.8-4-4C173.5,946.2,175.3,944.4,177.5,944.4z"/>
			</g>
		</g>
	</g>
	<g id="Group_39" transform="translate(875.27 1000.032)">
		<g id="Group_38" transform="translate(0)">
			<g id="Path_165" transform="translate(-342.949 -203.751)">
				<path class="st7" d="M156.1,954.8c0,0.5-0.4,1-1,1s-1-0.4-1-1c0-0.5,0.4-1,1-1c0,0,0,0,0,0C155.7,953.8,156.1,954.2,156.1,954.8
					z"/>
				<path class="st10" d="M155.1,953.8c-0.5,0-1,0.4-1,1c0,0.5,0.4,1,1,1c0.5,0,1-0.4,1-1C156.1,954.2,155.7,953.8,155.1,953.8
					 M155.1,950.8c2.2,0,4,1.8,4,4c0,2.2-1.8,4-4,4c-2.2,0-4-1.8-4-4C151.1,952.6,152.9,950.8,155.1,950.8z"/>
			</g>
		</g>
	</g>
	<g id="Group_41" transform="translate(864.318 989.456)">
		<g id="Group_40" transform="translate(0 0)">
			<g id="Path_166" transform="translate(-336.564 -197.585)">
				<path class="st7" d="M149.7,948.6c0,0.5-0.4,1-1,1s-1-0.4-1-1c0-0.5,0.4-1,1-1c0,0,0,0,0,0C149.3,947.6,149.7,948.1,149.7,948.6
					z"/>
				<path class="st10" d="M148.7,947.6c-0.5,0-1,0.4-1,1c0,0.5,0.4,1,1,1c0.5,0,1-0.4,1-1C149.7,948.1,149.3,947.6,148.7,947.6
					 M148.7,944.6c2.2,0,4,1.8,4,4c0,2.2-1.8,4-4,4c-2.2,0-4-1.8-4-4C144.8,946.4,146.5,944.6,148.7,944.6z"/>
			</g>
		</g>
	</g>
	<g id="Group_43" transform="translate(855.924 1002.455)">
		<g id="Group_42" transform="translate(0 0)">
			<g id="Path_167" transform="translate(-331.67 -205.164)">
				<path class="st7" d="M144.8,956.2c0,0.5-0.4,1-1,1s-1-0.4-1-1c0-0.5,0.4-1,1-1c0,0,0,0,0,0C144.4,955.2,144.8,955.7,144.8,956.2
					z"/>
				<path class="st10" d="M143.8,955.2c-0.5,0-1,0.4-1,1c0,0.5,0.4,1,1,1c0.5,0,1-0.4,1-1C144.8,955.7,144.4,955.2,143.8,955.2
					 M143.8,952.2c2.2,0,4,1.8,4,4c0,2.2-1.8,4-4,4c-2.2,0-4-1.8-4-4C139.9,954,141.6,952.2,143.8,952.2z"/>
			</g>
		</g>
	</g>
	<g id="Group_45" transform="translate(826.961 1000.318)">
		<g id="Group_44" transform="translate(0 0)">
			<g id="Path_168" transform="translate(-314.783 -203.918)">
				<path class="st7" d="M127.9,954.9c0,0.5-0.4,1-1,1s-1-0.4-1-1c0-0.5,0.4-1,1-1c0,0,0,0,0,0C127.5,954,127.9,954.4,127.9,954.9z"
					/>
				<path class="st10" d="M127,954c-0.5,0-1,0.4-1,1c0,0.5,0.4,1,1,1c0.5,0,1-0.4,1-1C127.9,954.4,127.5,954,127,954 M127,951
					c2.2,0,4,1.8,4,4c0,2.2-1.8,4-4,4c-2.2,0-4-1.8-4-4C123,952.8,124.8,951,127,951z"/>
			</g>
		</g>
	</g>
	<g id="Group_47" transform="translate(815.332 989.028)">
		<g id="Group_46" transform="translate(0 0)">
			<g id="Path_169" transform="translate(-308.003 -197.335)">
				<path class="st7" d="M121.1,948.4c0,0.5-0.4,1-1,1s-1-0.4-1-1c0-0.5,0.4-1,1-1c0,0,0,0,0,0C120.7,947.4,121.1,947.8,121.1,948.4
					z"/>
				<path class="st10" d="M120.2,947.4c-0.5,0-1,0.4-1,1c0,0.5,0.4,1,1,1c0.5,0,1-0.4,1-1C121.1,947.8,120.7,947.4,120.2,947.4
					 M120.2,944.4c2.2,0,4,1.8,4,4c0,2.2-1.8,4-4,4c-2.2,0-4-1.8-4-4C116.2,946.2,118,944.4,120.2,944.4z"/>
			</g>
		</g>
	</g>
	<path id="Path_170" class="st21" d="M620.5,1725.8h24.3c-0.4,1.4-0.6,2.8-0.6,4.2c0,7.7,4.9,13.5,11.3,13.5
		c6.5,0,11.3-5.8,11.3-13.5c0-1.4-0.2-2.8-0.6-4.2h21.7c-0.4,1.4-0.6,2.8-0.6,4.2c0,7.7,4.9,13.5,11.3,13.5
		c6.5,0,11.3-5.8,11.3-13.5c0-1.4-0.2-2.8-0.6-4.2h24.4"/>
</g>
<g id="Group_66" transform="translate(-496.012 -264.241)">
	<path id="Path_49" class="st17" d="M983.6,1372.2c-14.9,17.5-39.4,24.7-54.8,54.8"/>
	<path id="Path_50" class="st17" d="M987.3,1386.8c-11.7,14.3-35.8,24.8-47.5,47.5"/>
	<path id="Path_51" class="st17" d="M967.1,1386.8c0.5-9.7-5.4-15.8-5.4-25.6s0.4-29.2,29.2-29.2s40.2,26.2,40.2,47.5
		c0,21.3-16.1,54.8-43.8,54.8c-13.2,0-14.6-18.2-14.6-18.2"/>
	<path id="Path_52" class="st17" d="M990.5,1346.6c0.3,6.6,5.9,11.6,12.5,11.3c0.9,0,1.8-0.2,2.6-0.4"/>
	<path id="Path_53" class="st17" d="M1001.8,1358c-3.6,5.3-2.2,12.5,3.1,16.1c2.3,1.6,5.1,2.2,7.9,1.9"/>
	<path id="Path_54" class="st17" d="M1008.5,1375.7c-4.9,4.4-5.4,12-1,16.9c1.6,1.8,3.6,3,5.9,3.6"/>
	<path id="Path_55" class="st17" d="M1011.7,1395.6c-12.5,9.4-6.1,21-20.8,20.4"/>
	<path id="Path_56" class="st17" d="M977.2,1361.2c-3.2,6.6,0.8,12.6-3.5,20.5"/>
	<path id="Path_57" class="st17" d="M971.9,1400.8c13.2-2.1,14.7,1.1,19.6,0"/>
</g>
<g id="Group_67" transform="translate(14.978 521.775)">
	<path id="Path_74" class="st21" d="M273.7,595.3c0-5-4-9.2-9.1-9.2s-9.2,4-9.2,9.1c0,5,4,9.2,9.1,9.2c0,0,0,0,0,0
		C269.6,604.4,273.7,600.4,273.7,595.3z"/>
	<path id="Path_75" class="st21" d="M266.5,564.3v-11c0-4.2,7.3-7.3,7.3-7.3"/>
	<path id="Path_76" class="st21" d="M266.5,553.3c0-4.8-7.3-7.3-7.3-7.3"/>
	<path id="Path_77" class="st21" d="M288.4,578.8l18.2-7.3c0,0,4.6-4.8,4.6-10.2"/>
	<path id="Path_78" class="st21" d="M306.6,571.6c0,0,6.1,3.2,7.3,7.3"/>
	<path id="Path_79" class="st21" d="M292.2,611.8l10.8,3.8c0,0,6.7,7.6,7.3,11.2"/>
	<path id="Path_80" class="st21" d="M303,615.4c0,0,8.2-1.8,11-3.6"/>
	<path id="Path_81" class="st21" d="M266.5,629.8V641c0,0,0.6,5,7.3,7.3"/>
	<path id="Path_82" class="st21" d="M266.5,641c0,0,0,3.6-7.3,7.3"/>
	<path id="Path_83" class="st21" d="M218.7,564.3c0,0,1,8.5,3.9,10.9l14.6,7.3"/>
	<path id="Path_84" class="st21" d="M211.8,578.8c0,0,5.6-4.1,10.8-3.6"/>
	<path id="Path_85" class="st21" d="M237.2,615.4l-14.6,7.3c0,0-3.6,8.7-3.6,11"/>
	<path id="Path_86" class="st21" d="M222.6,622.7c0,0-7.2,0.8-10.9,0"/>
	<path id="Path_87" class="st21" d="M237.2,582.5c1.9,10.9,1.9,22,0,32.9"/>
	<path id="Path_88" class="st21" d="M237.2,582.5c9.9-1.9,22.5-10.7,29.2-18.3"/>
	<path id="Path_89" class="st21" d="M266.5,564.3c5.9,5.9,13.6,13.5,21.9,14.6"/>
	<path id="Path_90" class="st21" d="M288.4,578.8c-1,11.1,0.3,22.3,3.8,32.9"/>
	<path id="Path_91" class="st21" d="M237.2,615.4c9.9-1.6,23.5,6.2,29.2,14.4"/>
	<path id="Path_92" class="st21" d="M266.5,629.8c4.6-9.7,14.9-19.2,25.7-18.1"/>
</g>
<g id="Group_68" transform="translate(346.515 47.085)">
	<g id="Group_26" transform="translate(657.311 274.27)">
		<path id="Path_101" class="st16" d="M-167.6,668.3c-3.1-0.7-5.9-2.2-8.1-4.5"/>
		<path id="Path_102" class="st16" d="M-176.9,657.6c1.7-4.2,8.2-7.3,16.1-7.3c9.1,0,16.5,4.2,16.5,9.4c0,4.6-5.8,8.4-13.5,9.3"/>
		<ellipse id="Ellipse_6" class="st16" cx="-160.8" cy="662.8" rx="28" ry="20.8"/>
	</g>
	<g id="Group_27" transform="translate(636.202 259.941)">
		<path id="Path_103" class="st16" d="M-179.3,644.4c-1.8,1.8-3.9,3.2-6.2,4.1c-1.2,0.4-2.6-0.6-3.3-1.1"/>
		<path id="Path_104" class="st16" d="M-185.5,648.5c0,0-0.9,1.5,0.5,5.8c0.2,0.9,0,1.8-0.5,2.6"/>
		<path id="Path_105" class="st16" d="M-184.7,654.6c0.8,0.7,1.7,1.2,2.8,1.5c1.7,0.6,3.2,0.2,4.6,2.6"/>
		<path id="Path_106" class="st16" d="M-178.7,657c1.2-0.5,2.3-1.2,3.3-2c1.4-1.5,3.4-2.2,5.3-1.9"/>
		<path id="Path_107" class="st16" d="M-173.6,653c-0.4-1.6-1.3-3.2-2.4-4.4c-2.2-2.2-4-3.8-3.3-6.7"/>
		<path id="Path_108" class="st16" d="M-176.1,648.1c0.6-0.1,1.2-0.2,1.8-0.4c0.6-0.2,1.1-0.5,1.5-1"/>
	</g>
	<g id="Group_28" transform="translate(638.249 238.675)">
		<path id="Path_109" class="st16" d="M-178.1,655.5c1-2.2,2.5-4.2,4.3-5.8c1-0.8,2.6-0.3,3.5-0.1"/>
		<path id="Path_110" class="st16" d="M-173.8,649.8c0,0,0.3-1.8-2.5-5.3c-0.5-0.8-0.6-1.7-0.4-2.6"/>
		<path id="Path_111" class="st16" d="M-176.6,644.3c-1-0.4-2.1-0.5-3.1-0.4c-1.8,0-3,0.9-5.2-0.8"/>
		<path id="Path_112" class="st16" d="M-183.1,644.2c-0.3,1.6-0.8,3.2-1.4,4.7c-0.8,1.9-2.4,3.2-4.3,3.6"/>
		<path id="Path_113" class="st16" d="M-185.5,651.4c1.2,0.9,2.4,1.7,3.8,2.3c2.9,1.3,4,1.4,4.4,4.3"/>
	</g>
	<g id="Group_29" transform="translate(659.061 251.812)">
		<path id="Path_114" class="st16" d="M-178,653.8c0.9-2.1,1.4-4.3,1.4-6.6c0.5-1.1,2-1.4,2.9-1.6"/>
		<path id="Path_115" class="st16" d="M-176.6,647.2c0,0-0.5-1.6-4.3-3.3c-1.1-0.5-1.2-1.5-1.4-2"/>
		<path id="Path_116" class="st16" d="M-181.3,643.8c-1,0.1-1.9,0.4-2.8,1c-1.5,0.8-2.2,2-4.7,1.5"/>
		<path id="Path_117" class="st16" d="M-186.7,646.3c-0.2,4.6,3.2,6.1-0.5,9"/>
		<path id="Path_118" class="st16" d="M-185.4,652.7c1,0.9,2.4,1.4,3.8,1.3c2.9-0.1,3.7-0.4,5.3,1.9"/>
	</g>
	<g id="Group_30" transform="translate(675.298 213.69)">
		<circle id="Ellipse_7" class="st16" cx="-154.6" cy="676.1" r="24.2"/>
		<path id="Path_119" class="st16" d="M-138,659.9c1.3-0.2,2.6-0.2,3.9-0.1"/>
		<path id="Path_120" class="st16" d="M-144,655.3c0,0-1.8-2.2-2-3.4"/>
		<path id="Path_121" class="st16" d="M-164.8,655.8c0,0,0.4-3.5,1.3-4.3"/>
		<path id="Path_122" class="st16" d="M-179,666.5c0.8-0.1,1.6-0.1,2.3,0.2"/>
		<path id="Path_123" class="st16" d="M-175.6,690.8c0-1.3,0.3-2.6,0.9-3.7"/>
		<path id="Path_124" class="st16" d="M-151.7,701.2c0.8-1.1,1.8-2,2.8-2.8"/>
		<path id="Path_125" class="st16" d="M-136.8,690.2c0,0,3.3-0.6,4.4-0.2"/>
		<path id="Path_126" class="st16" d="M-136.8,667.1c-0.6-0.6-1-1.4-1.2-2.3"/>
		<path id="Path_127" class="st16" d="M-160.6,679.5c-0.6-0.6-1-1.4-1.2-2.3"/>
		<path id="Path_128" class="st16" d="M-158.8,668.3c-0.6-0.6-1-1.4-1.2-2.3"/>
		<path id="Path_129" class="st16" d="M-151.3,676.7c0.2-0.9,0.6-1.7,1.2-2.3"/>
		<path id="Path_130" class="st16" d="M-151.5,691.8c0.6-0.7,1.3-1.2,2.1-1.5"/>
		<path id="Path_131" class="st16" d="M-136.8,684.3c0.2-0.9,0.5-1.7,1.1-2.3"/>
		<path id="Path_132" class="st16" d="M-160.9,657.9c0.8-0.4,1.6-0.6,2.5-0.6"/>
		<path id="Path_133" class="st16" d="M-174.8,674.2c0.9,0,1.7,0.1,2.5,0.5"/>
		<path id="Path_134" class="st16" d="M-169.9,685.1c0.2-0.9,0.6-1.7,1.2-2.3"/>
		<path id="Path_135" class="st16" d="M-148.8,658.7c0.7,0.5,1.2,1.3,1.6,2.1"/>
		<path id="Path_136" class="st16" d="M-169.4,665.5c0.2-0.9,0.6-1.7,1.2-2.3"/>
		<path id="Path_137" class="st16" d="M-161.2,692.8c-0.7-0.5-1.2-1.3-1.5-2.1"/>
		<path id="Path_138" class="st16" d="M-147.6,667.8c-0.9,0-1.7-0.3-2.5-0.7"/>
		<path id="Path_139" class="st16" d="M-143.9,681.3c-0.6,0.6-1.4,1-2.3,1.2"/>
		<path id="Path_140" class="st16" d="M-139.1,673c0.4,0.8,0.5,1.7,0.4,2.6"/>
	</g>
</g>
<g id="Group_69" transform="translate(-183.825 50.8)">
	<path id="Path_141" class="st22" d="M864.8,859c4-1.4,8.4-0.1,11,3.3c2.5,3.4,2.7,8,0.3,11.5c-2.3,3.5-6.6,5.1-10.7,4"/>
	<path id="Path_142" class="st22" d="M806.4,859c-4-1.4-8.4-0.1-10.9,3.3c-2.6,3.4-2.7,8-0.4,11.5c2.3,3.5,6.6,5.1,10.7,4"/>
	<path id="Path_143" class="st22" d="M874.8,875.4c5.6,1.4,10,5.9,11.2,11.6c1.2,5.7-1,11.6-5.5,15.2"/>
	<path id="Path_144" class="st22" d="M796.4,875.4c-5.6,1.4-10,5.9-11.2,11.6c-1.2,5.7,1,11.6,5.6,15.2"/>
	<path id="Path_145" class="st22" d="M882.6,900.1c4.9,4.4,5.4,12,1,17c-1.5,1.7-3.5,3-5.7,3.6"/>
	<path id="Path_146" class="st22" d="M788.6,900.1c-4.9,4.4-5.4,12-1,16.9c1.5,1.7,3.6,3,5.8,3.6"/>
	<path id="Path_147" class="st22" d="M880.5,919.5c2.6,3.8,3,8.8,1,13c-3,6.3-10.6,8.9-16.8,5.9c-1.4-0.7-2.6-1.6-3.7-2.7"/>
	<path id="Path_148" class="st22" d="M790.7,919.5c-2.7,3.8-3,8.8-1,13c2,4.2,6.1,6.9,10.7,7.1c3.7,0.2,7.3-1.2,9.8-3.9"/>
	<path id="Path_149" class="st22" d="M869,939.5c0.5,4.8-1.7,9.5-5.7,12.3c-4,2.7-9.2,2.9-13.5,0.6c-4.3-2.4-6.9-6.9-6.8-11.7v-3.6"
		/>
	<path id="Path_150" class="st22" d="M802.2,939.5c-0.5,4.8,1.8,9.5,5.8,12.3c4,2.7,9.2,2.9,13.5,0.6c4.2-2.4,6.8-6.9,6.8-11.7v-3.6
		"/>
	<path id="Path_151" class="st22" d="M868.2,901.4c0.1,0.5,0.2,1,0.2,1.5c0.3,3.7-1.7,7.3-5.1,9"/>
	<path id="Path_152" class="st22" d="M803,901.4c-0.1,0.5-0.2,1-0.2,1.5c-0.3,3.7,1.7,7.3,5.1,9"/>
	<path id="Path_153" class="st22" d="M843,913.4v-1.4c0-6.2,4.7-11.4,10.9-11.9c-5.6,0.4-10.5-3.8-10.8-9.4c0-0.3,0-0.5,0-0.8v-4.9
		c0-4.7,2.7-8.9,7-10.8c-5.9-2.4-8.7-9.2-6.2-15.1c1.6-3.8,5-6.4,9-7c5.1-0.7,10.1,2.2,12.1,7"/>
	<path id="Path_154" class="st22" d="M828.3,913.4v-1.4c0-6.2-4.7-11.4-10.9-11.9c5.6,0.4,10.5-3.9,10.9-9.5c0-0.2,0-0.5,0-0.7v-4.9
		c0-4.7-2.8-8.9-7.1-10.8c5.9-2.4,8.7-9.1,6.3-15c-1.5-3.8-5-6.5-9.1-7.1c-5.1-0.7-10.1,2.2-12.1,7"/>
	<path id="Path_155" class="st22" d="M843,913.4c0,2.8,1.1,5.6,3.2,7.5c2.1,2,4.8,3,7.7,2.8"/>
	<path id="Path_156" class="st22" d="M828.3,913.4c0,2.8-1.2,5.6-3.2,7.5c-2.1,2-4.8,3-7.7,2.8"/>
	<path id="Path_157" class="st22" d="M843,937.1c0-5.6,2.9-10.8,7.7-13.7"/>
	<path id="Path_158" class="st22" d="M828.3,937.1c0-5.6-2.9-10.8-7.8-13.7"/>
</g>
<g id="Group_70" transform="translate(940.286 341.946)">
	<path id="Path_171" class="st22" d="M-105.6,784c-11.7-19.9-7.9-45.3,9-61c-5.8,1.1-11.4,3.1-16.5,6
		c-24.8,14.2-35.7,46.9-21.3,71.4S-86,832-61.1,817.9c5.1-2.9,9.7-6.7,13.5-11.1C-69.8,813.4-93.8,804-105.6,784z"/>
	<g id="Group_48" transform="translate(121.248 230.271)">
		<line id="Line_52" class="st22" x1="-189.2" y1="552.8" x2="-175.2" y2="552.8"/>
		<line id="Line_53" class="st22" x1="-182.2" y1="558.8" x2="-182.2" y2="545.8"/>
	</g>
	<g id="Group_49" transform="translate(132.346 183.659)">
		<line id="Line_54" class="st22" x1="-188.3" y1="552.4" x2="-175.3" y2="552.4"/>
		<line id="Line_55" class="st22" x1="-182.3" y1="559.4" x2="-182.3" y2="546.4"/>
	</g>
	<path id="Path_172" class="st22" d="M-79.8,742.7l3.8,7.6l8.4,1.2l-6.1,6l1.4,8.4l-7.5-4l-7.5,4l1.4-8.4l-6.1-6l8.4-1.2
		L-79.8,742.7z"/>
</g>
<g id="Group_71" transform="translate(662.895 518.946)">
	<path id="Path_58" class="st18" d="M2.3,571.6c12.5,0,29.2,19.9,29.2,43.8c0,23.9-3,32.9-10.9,32.9c-7.9,0-9.9-11.9-14.6-14.6
		C1.3,630.9-5,625.9-5,619C-5,588-5.1,571.6,2.3,571.6z"/>
	<path id="Path_59" class="st18" d="M-34.2,571.6c-12.5,0-29.2,19.9-29.2,43.8c0,23.9,3,32.9,11,32.9c7.9,0,9.9-11.9,14.6-14.6
		c4.7-2.7,11-7.7,11-14.6C-26.9,588-26.7,571.6-34.2,571.6z"/>
	<path id="Path_60" class="st18" d="M-4.8,594.8c7.9,3.2,12.9,9.7,14.4,13.4c1.5,3.7,0,11.7,3.6,14.3"/>
	<path id="Path_61" class="st18" d="M-27.1,594.8c-7.9,3.2-12.9,9.7-14.4,13.4c-1.5,3.7,0,11.7-3.6,14.3"/>
	<path id="Path_62" class="st18" d="M-27.1,594.8c8.6-3.5,11.1-11.2,11.1-19.6c0,8.4,2.5,16.1,11.1,19.6"/>
	<path id="Path_63" class="st18" d="M7.4,604.4c3.2,2.1,8.6,3.2,11.2,4.3"/>
	<path id="Path_64" class="st18" d="M-39.3,604.4c-3.1,2.1-8.6,3.2-11.2,4.3"/>
	<line id="Line_43" class="st18" x1="-15.9" y1="546" x2="-15.9" y2="575.2"/>
</g>
<path id="Path_284" class="st9" d="M129.8,598.2c-32.7,14.6-58.3,40.6-70,71.5c-24.4,64.1,11.7,144.7,75.7,169.2
	c13.7,5.2,28.2,7.8,42.9,7.7c53.2,0,107.1-33,126.4-83.2c24.6-64-11.3-144.7-75.2-169.4C198.7,582.1,162.4,583.7,129.8,598.2z
	 M289,757.4c-21.4,55.8-91.7,87.1-147.5,65.7s-87.2-91.6-65.9-147.4c10.2-26.7,32.4-49.3,61.1-62.1c15.5-7,32.3-10.6,49.2-10.7
	c12.9-0.1,25.6,2.2,37.6,6.8C279.2,631.3,310.4,701.6,289,757.4L289,757.4z"/>
<path id="Path_285" class="st10" d="M237.9,716.3c0.7,39,50.6,67.3,84.5,48s34.8-76.7,1.6-97.2C287.4,644.6,237.2,677.3,237.9,716.3
	z"/>
<path id="Path_178" class="st10" d="M760.2,411.7c-13.7-2.3-27.4-4-41.1-5.2c-4.4-0.4-8.3,2.5-9.3,6.8
	c-16,75.7,31,162.7,103.3,186.9c2.1,0.7,4.3,1.4,6.5,2c66.1,18.3,145.5-15.5,181.7-76.6c2.2-3.8,1.2-8.7-2.4-11.4
	c-6.2-4.7-12.5-9.3-18.9-13.7c-4-2.7-9.4-1.7-12.1,2.2c-0.1,0.1-0.1,0.2-0.2,0.3c-25.8,42-79.5,65.7-125.1,53.1
	c-1.3-0.3-2.5-0.7-3.8-1.1c-27-8.8-49.9-30.2-63-58.7c-11-24.1-13.9-50.2-8.5-74c1.1-4.7-1.9-9.4-6.6-10.5
	C760.5,411.8,760.3,411.7,760.2,411.7z"/>
<path id="Path_179" class="st6" d="M845.9,500.9c32.5,24.5,83.3,20.5,116-6.7c3.8-3.2,4.3-8.8,1.2-12.6c0,0,0,0,0,0
	c-35.8-42.1-77.7-78.6-124.2-108.3c-4.2-2.6-9.7-1.3-12.3,2.9c0,0,0,0,0,0c-10.8,17.4-15.9,39.5-13.8,61.7
	C815.3,464,827.4,487,845.9,500.9z"/>
<path id="Path_180" class="st8" d="M1063.1,523.1c-12.7-5.8-25.5-11-38.6-15.7c-4.5-1.6-9.5,0.7-11.2,5.3c-0.1,0.4-0.3,0.8-0.3,1.2
	c-15.1,76.8-81.7,139.8-157.4,147.1c-2.7,0.3-5.3,0.4-8,0.6C762.7,665.3,682,598,665.9,514c-1-4.7-5.6-7.8-10.3-6.8
	c-0.4,0.1-0.9,0.2-1.3,0.4c-10.7,4-21.2,8.3-31.4,13c-3.7,1.7-5.8,5.8-4.9,9.8C640.5,632.9,739.1,714,844.2,715.2
	c105.2,1.2,205.7-77.8,224-182.6C1068.8,528.7,1066.7,524.8,1063.1,523.1z"/>
<g id="Group_3" transform="translate(577.69 758.17)">
	<g id="Group_1_00000173148939872187587150000014503226914139220616_">
		<path id="Path_1_00000006690241368886388820000001429018320328765597_" class="st6" d="M-378.7-506h-15.9v43.2h9.6v-13.8h6.8
			c16.9,0,17.7-8.7,17.7-14.6C-360.4-497.1-361.9-506-378.7-506z M-378.3-484.2h-6.7V-498h6.7c7.1,0,8.1,4,8.1,6.9
			C-370.2-488.1-371.2-484.2-378.3-484.2L-378.3-484.2z"/>
		<path id="Path_2_00000043458396540948724440000009965669040113599898_" class="st6" d="M-340.7-497.9c-12.4,0-15.3,5.7-15.3,12.8
			l9.2-0.1c0-3.4,1.4-5.6,6.3-5.6c5.1,0,6.9,2.8,6.9,6.6l-9.2,0.8c-10.1,0.9-14.4,3.7-14.4,10.3c0,7.4,6.1,10.8,13.8,10.8
			c7,0,11.1-2.9,13.1-6.1l2.1,5.5h3.9v-19.6C-324.3-491.5-326.4-497.9-340.7-497.9z M-341.2-469.5c-4.5,0-6.3-1.7-6.3-4
			c0-1.8,1.4-3,6.2-3.5l7.8-0.9C-333.7-473.4-335.5-469.5-341.2-469.5L-341.2-469.5z"/>
		<path id="Path_3_00000114773275792513465160000003978816005643627918_" class="st6" d="M-257.4-493.6c-1.4-2.1-4.5-4.3-10.3-4.3
			c-10.9,0-14.6,8.6-14.6,17.8c0,9.1,4,17.8,14.8,17.8c7.7,0,11.1-2.6,13.4-6.1l2.1,5.5h3.9v-47.7h-9.2L-257.4-493.6z M-264.9-469.9
			c-6.3,0-8-4.1-8-10.1c0-5.9,1.7-10,8.1-10c6.6,0,7.6,4.2,7.6,10C-257.2-474-258.4-469.9-264.9-469.9L-264.9-469.9z"/>
		
			<rect id="Rectangle_1_00000168815418134130706340000008746162437371006089_" x="-241" y="-497.3" class="st6" width="9.3" height="34.5"/>
		<path id="Path_4_00000134231400806723340440000015743297506192256165_" class="st6" d="M-210.2-497.9c-12.4,0-15.3,5.7-15.3,12.8
			l9.2-0.1c0-3.4,1.4-5.6,6.3-5.6c5.1,0,6.9,2.8,6.9,6.6l-9.2,0.8c-10.1,0.9-14.4,3.7-14.4,10.3c0,7.4,6.1,10.8,13.8,10.8
			c7,0,11.1-2.9,13.1-6.1l2.1,5.5h3.9v-19.6C-193.8-491.5-195.8-497.9-210.2-497.9z M-210.7-469.5c-4.5,0-6.3-1.7-6.3-4
			c0-1.8,1.4-3,6.2-3.5l7.8-0.9C-203.1-473.4-204.9-469.5-210.7-469.5L-210.7-469.5z"/>
		<path id="Path_5_00000158016837431728468760000000419872169591101115_" class="st6" d="M-175.9-506h-9.2v8.8l-5.1,2.8v4.6h5.1
			v15.5c0,10.7,5.8,12.8,18.1,11.8v-7.6c-6.5,0.5-8.6-0.5-8.6-4.3v-15.5h8.6v-7.6h-8.9L-175.9-506z"/>
		<path id="Path_6_00000046335205582074671990000005762941902356340655_" class="st6" d="M-156-491.9l-2.2-5.5h-3.8v34.5h9.2v-18.3
			c0-4.9,1.3-9.2,9.4-8.4v-8.3C-150.2-498.4-153.7-495.3-156-491.9z"/>
		
			<rect id="Rectangle_2_00000159463657823206648200000014281462202893340034_" x="-139.4" y="-497.3" class="st6" width="9.3" height="34.5"/>
		<path id="Path_7_00000091709054800863056070000017891929155479213454_" class="st6" d="M-107.6-490.2c4.5,0,6.2,2.4,6.7,6.6h9.5
			c0-8.5-5.2-14.3-16.1-14.3c-13.7,0-17.4,8.6-17.4,17.9s3.6,17.7,17.6,17.7c10.9,0,15.9-5.6,15.9-14l-9.5-0.1
			c-0.5,3.8-2.2,6.2-6.7,6.2c-6.1,0-8.2-4.2-8.2-10C-115.8-486.1-113.7-490.2-107.6-490.2z"/>
		<path id="Path_8_00000175307076803127120280000007288444141123948201_" class="st6" d="M-77.8-487.4c0-1.8,1.4-3.4,6.1-3.4
			c4.9,0,6.6,1.5,7,5.2h8.6c0-8-5.3-12.2-15.4-12.2c-9.9,0-15.4,3.7-15.4,10.9c0,12.2,22.7,7.7,22.7,14c0,2-2.4,3.5-6.6,3.5
			c-4.9,0-7.7-2-7.7-5.5h-9.1c0,8.5,5.7,12.7,17,12.7c9.3,0,15.5-4.5,15.5-11.1C-55.1-486.4-77.8-481.3-77.8-487.4z"/>
		<path id="Path_9_00000141436148696825990760000005390537714797912760_" class="st6" d="M-302.4-497.9c-14,0-17.1,9.2-17.1,17.8
			c0,8.9,3,17.8,17.2,17.8c11.1,0,15.1-5.2,15.7-11h-9.8c-0.7,2-2.1,3.8-6.3,3.8c-3.8,0-6.6-1.9-7.3-6.2l23.4-2.2
			C-285.9-488.3-289.7-497.9-302.4-497.9z M-303.2-490.7c4.9,0,6.9,3.3,6.9,7.2c0,0,0,0.1,0,0.2l-13.9,1.3c0-0.5,0-1,0.1-1.5
			C-309.8-487.5-307.8-490.7-303.2-490.7L-303.2-490.7z"/>
		<path id="Path_10_00000034090074353960208530000014331761341834189447_" class="st6" d="M-241-500.4l9.4-1.1v-8.1l-9.4,1.1V-500.4
			z"/>
		<path id="Path_11_00000117655357274112403690000005796615140614453659_" class="st6" d="M-139.5-500.4l9.4-1.1v-8.1l-9.4,1.1
			V-500.4z"/>
	</g>
	<g id="Group_2_00000065761197716632168290000001062152735516967863_">
		<path id="Path_12_00000131353229720298701760000012694844251860629404_" class="st6" d="M-358.2-525.7c0-11.5,3.6-22.3,20.3-22.3
			c14.7,0,19.8,8.3,19.8,17.7h-11.1c-0.7-5.7-2.8-8.7-8.7-8.7c-7.9,0-9.2,5.9-9.2,13.3c0,7.4,1.2,13.3,9.2,13.3c6,0,8.1-2.9,8.7-8.8
			h11.2c0,10-5.1,17.8-19.9,17.8C-354.7-503.4-358.2-514.1-358.2-525.7z"/>
		<path id="Path_13_00000090253386388862721540000009074072039323270070_" class="st6" d="M-312.6-525.7c0-11.5,3.7-22.3,20.9-22.3
			c17.3,0,21.1,10.8,21.1,22.3c0,7.6-2.6,11.4-5.8,13.7l6.3,2.8v5.1h-19.6C-308.9-504-312.6-513.5-312.6-525.7z M-281.8-525.6
			c0-7.4-1.2-13.3-9.9-13.3c-8.5,0-9.8,5.8-9.8,13.3c0,7.9,1.7,12.8,9.8,12.8C-283.3-512.9-281.8-517.8-281.8-525.6L-281.8-525.6z"
			/>
	</g>
	<path id="Path_14_00000048470014077585626660000007623042056937910164_" class="st7" d="M-471.6-521.3c0.6-0.6,0.6-1.6,0-2.2
		c-0.2-0.2-0.4-0.3-0.6-0.4c-0.9-0.1-1.7,0.4-1.8,1.3c0,0.2,0,0.3,0,0.5c0.3,0.8,1.2,1.3,2,1C-471.9-521.1-471.7-521.2-471.6-521.3z
		"/>
	<path id="Path_15_00000045618843253144499120000004650506235194751397_" class="st7" d="M-483.7-544.5c-0.8,0.3-1.3,1-1.5,1.8
		c-0.2,1.2,0.7,2.4,1.9,2.6c0.4,0.1,0.7,0,1.1-0.1c0.8-0.3,1.3-1,1.5-1.8c0.2-1.2-0.7-2.4-1.9-2.6
		C-483-544.7-483.4-544.7-483.7-544.5z"/>
	<path id="Path_16_00000000925448706992304620000017770475563065001645_" class="st7" d="M-472-513c0.6-1.5-0.1-3.1-1.5-3.8
		c-1.4-0.5-3,0.1-3.7,1.5c-0.5,1.4,0.1,3,1.5,3.7C-474.3-511-472.7-511.6-472-513z"/>
	<path id="Path_17_00000176736338954763198860000009589059059182150278_" class="st7" d="M-478.7-525.1c-2.4-1.5-5.7,0.6-5.6,3.1
		c0.2,2.1,2.1,3.7,4.2,3.5c0.4,0,0.8-0.2,1.2-0.3c1.8-1.2,2.2-3.6,1-5.3C-478-524.5-478.3-524.8-478.7-525.1z"/>
	<path id="Path_18_00000015334129812562962580000012942345480330908047_" class="st7" d="M-492.9-513.5c-4.7-2.7-10.7-1.3-13.7,3.3
		c-2.6,4.7-1.2,10.7,3.3,13.7c4.7,2.6,10.7,1.2,13.7-3.3C-487-504.5-488.5-510.4-492.9-513.5z"/>
	<path id="Path_19_00000147213396136536085410000012282694093985565350_" class="st7" d="M-426.2-551.2c-1.3,0-2.6,0.3-3.8,0.8
		c-2.2,0.9-3.9,2.7-4.8,4.8c-1.6,4.6,0.7,9.6,5.1,11.5c4.6,1.6,9.6-0.7,11.5-5.1c1.6-4.6-0.7-9.6-5.1-11.5
		C-424.2-551-425.2-551.2-426.2-551.2z M-424.2-538.6c-2.6,1.5-6.5-0.7-6.6-3.7s3.9-5.6,6.7-3.8
		C-421.4-544.6-421.5-540.1-424.2-538.6L-424.2-538.6z"/>
	<path id="Path_20_00000138558378246278138170000017852708582967673525_" class="st8" d="M-365.6-528.3c-1.6-1-3.8-0.6-4.8,1.1
		c-0.2,0.3-0.4,0.7-0.5,1.1c-0.1,0.9,0.2,1.8,0.8,2.5c-0.9,1.1-2.1,1.9-3.4,2.3c-2.1,0.8-4.4,0.7-6.4-0.4c-7.4-4.1-16.2-4.6-24-1.4
		c-0.1-1.4-0.6-2.7-1.4-3.8c-0.1-0.1-0.1-0.1-0.2-0.2c7.4-3.4,15.8-3.8,23.5-1.2c2.9,0.9,6,0.4,8.4-1.3c1.8-1.2,3.2-3,3.9-5.1
		c0.7,0.1,1.5-0.1,2.1-0.5c1.6-1.3,1.9-3.7,0.6-5.3c-0.3-0.3-0.6-0.6-0.9-0.8c-2.6-1.4-5.6,1.1-5.3,3.6c0.2,1.2,1,2.3,2.2,2.7
		c-0.6,1.8-1.8,3.3-3.4,4.4c-2.1,1.5-4.8,2-7.2,1.2c-8.1-2.8-17-2.3-24.8,1.4c-8.6-9.5-24.5,1.8-30.1,4.8
		c-11.2,5.9-22.9,11.4-30.7,20.8c-1.2,1.4-1,3.5,0.5,4.7c0.6,0.5,1.3,0.8,2.1,0.8c14.7-0.3,28.3-7.9,36.3-20.3
		c4.4-6.8,13.2-8.7,14.1-5c0,0.1,0,0.3,0,0.4c-1.9,5,8.5,10.7,10.3,0.7c0-0.1,0-0.3,0-0.4c7.5-3.4,16.2-3,23.3,1.1
		c2.3,1.3,5,1.4,7.5,0.5c1.5-0.5,2.9-1.5,4-2.7c0.8,0.5,1.7,0.6,2.6,0.3c1.7-0.8,2.5-2.8,1.8-4.5
		C-364.9-527.6-365.2-528-365.6-528.3z"/>
	<path id="Path_21_00000068646224129183734120000002672281670042387643_" class="st9" d="M-430.5-551.5c-2.5,1.1-4.5,3.1-5.5,5.6
		c-1.8,5.3,0.8,11,5.9,13.2c1.1,0.4,2.2,0.6,3.3,0.6c4.3,0,8.2-2.6,9.9-6.5c1.8-5.3-0.8-11-5.9-13.2
		C-425.3-552.8-428.1-552.7-430.5-551.5z M-418.1-539.1c-1.9,4.5-6.9,6.7-11.5,5.1c-4.5-1.9-6.7-6.9-5.1-11.5
		c0.9-2.2,2.6-3.9,4.8-4.8c1.2-0.5,2.5-0.8,3.8-0.8c1,0,2,0.2,2.9,0.5C-418.8-548.7-416.5-543.7-418.1-539.1z"/>
	<path id="Path_22_00000132776050470203255260000011289027135258128550_" class="st10" d="M-516.1-523.5c3.4-1.2,4.2-5.6,3.1-9
		c-1-3.2-3.3-5.8-4.8-8.8s-2.1-6.9,0.1-9.4c1.5-1.8,4.2-2,6-0.4c0.9,0.7,1.4,1.8,1.5,2.9c0.4,3.8,3.3,6.9,7,7.5c4.1,0.4,7.9-2.1,9-6
		c0.9-4-1.1-8.1-4.9-9.7c-1.9-0.8-3-2.7-2.7-4.7c0.4-2,2-3.5,4-3.6c3.8-0.4,6.6-3.9,6.2-7.8c0-0.3-0.1-0.5-0.1-0.8
		c-1.3-3.7-5.3-5.6-8.9-4.3c-0.3,0.1-0.5,0.2-0.8,0.3c-7.2,4-14.4,8.1-21.4,12.5c-1.6,1-2.4,2.8-2.1,4.6c0.6,4-0.9,8-4,10.5
		c-3.1,2.2-7,2.9-10.6,1.8c-2.2-0.6-4.6,0.6-5.4,2.8c-2.7,6.9-3.6,14.4-2.5,21.7c0.4,2.5,2.6,4.2,5,4.2c2.5-0.1,4.5-2.1,4.8-4.5
		c0.3-3.9,1.2-7.9,3.6-11s6.7-5,10.3-3.7c3.5,1.3,5.4,6.1,3.3,9.1c-1.2,1.6-0.9,4,0.8,5.2C-518.5-523.3-517.2-523.1-516.1-523.5z"/>
	<path id="Path_23_00000162351457507689849060000013983810977559809415_" class="st6" d="M-524.2-530.3c-0.2-1.9-1.6-3.4-3.4-3.9
		c-2.7-0.6-5.4,1.9-5.5,4.5c-0.1,3.6-0.4,8.4-3.1,11.5c-2.5,2.7-2.4,7,0.4,9.5c0,0,0,0,0,0c1.1,1,2.5,1.5,4,1.6
		c3.1,0.1,5.9-2.4,6.9-5.5c0.4-1.9,0.1-3.9-1-5.5c-1.9-2.7-1.7-6.4,0.5-8.9C-524.5-527.8-524.1-529-524.2-530.3z"/>
	<path id="Path_24_00000003072297657037515690000011037271069688147082_" class="st11" d="M-468.3-507.5c5.8-2.5,7.5-10.7,4.4-16.1
		c-3.1-5.4-9.6-8.2-15.8-8.3c-3.7,0-7.4,0.7-10.8,2c-4,1.6-8.1,2.9-12.3,3.9c-8.9,2.1-16.5,9.8-17.8,18.9
		c-1.5,11.2,6.7,22.8,17.7,25.1c11,2.3,23.2-5,26.3-15.8C-475.4-502.1-472.4-505.7-468.3-507.5z M-472.2-523.9c0.8,0.3,1.3,1.1,1,2
		c-0.1,0.2-0.2,0.4-0.4,0.6c-0.7,0.5-1.7,0.4-2.2-0.3c-0.1-0.1-0.2-0.3-0.2-0.5c-0.1-0.9,0.4-1.7,1.3-1.8
		C-472.6-523.9-472.4-523.9-472.2-523.9L-472.2-523.9z M-489.7-499.8c-3,4.5-9,5.9-13.7,3.3c-4.5-3-5.9-8.9-3.3-13.7
		c3-4.6,9-6,13.7-3.3C-488.5-510.4-487-504.5-489.7-499.8L-489.7-499.8z M-478.8-518.8c-1.9,0.9-4.2,0-5.1-1.9
		c-0.2-0.4-0.3-0.8-0.3-1.2c0-2.5,3.2-4.7,5.6-3.1c1.7,1.3,2,3.7,0.8,5.4C-478.2-519.4-478.5-519.1-478.8-518.8L-478.8-518.8z
		 M-477.2-515.3c0.6-1.4,2.3-2,3.7-1.5c1.4,0.6,2.1,2.3,1.5,3.8c-0.7,1.4-2.3,2-3.7,1.4C-477.1-512.2-477.8-513.8-477.2-515.3
		L-477.2-515.3z"/>
	<path id="Path_25_00000129907080485047345850000002067356682762907565_" class="st10" d="M-430.8-542.3c0.1,3,4,5.3,6.6,3.7
		s2.7-6,0.1-7.6C-426.9-547.9-430.8-545.4-430.8-542.3z"/>
	<path id="Path_26_00000021840054219037378980000005044049529034815368_" class="st10" d="M-462.1-527.2c-0.3,0.3-0.3,0.7-0.1,1
		c0.1,0.1,0.3,0.2,0.4,0.2l6.9,1.1c0.3,0,0.5,0.3,0.6,0.6l1.4,5.5c0.1,0.4,0.5,0.6,0.9,0.5c0.2,0,0.3-0.1,0.4-0.3l4.1-5.6
		c0.1-0.2,0.3-0.3,0.6-0.3c2.3-0.1,4.7-0.1,6.9-0.2c0.4,0,0.7-0.3,0.7-0.7c0-0.1,0-0.2-0.1-0.4c-1.1-2-2.1-3.9-3-6
		c-0.1-0.1-0.1-0.2-0.1-0.4l0.4-6.4c0-0.4-0.3-0.8-0.7-0.8c-0.1,0-0.2,0-0.3,0.1l-6.4,2.7c-0.2,0.1-0.4,0.1-0.6,0
		c-1.9-0.9-3.9-1.6-5.9-2.3c-0.4-0.1-0.8,0.1-0.9,0.5c0,0.1,0,0.2,0,0.3l0.3,5.5c0,0.2-0.1,0.4-0.2,0.6L-462.1-527.2z"/>
	<path id="Path_27_00000017493714577504561100000003109872516425835658_" class="st10" d="M-457.1-495.3c-1.7,0.3-3.3,0.7-4.9,1.2
		c-0.5,0.1-0.8,0.7-0.8,1.2c1.5,9.3,10.6,17.2,19.9,16.8c0.3,0,0.6,0,0.8-0.1c8.3-0.8,15.9-8.1,17.4-16.7c0.1-0.5-0.2-1-0.8-1.2
		c-0.9-0.3-1.8-0.5-2.8-0.7c-0.6-0.1-1.1,0.2-1.3,0.8c0,0,0,0,0,0c-1.1,5.9-6.2,11-11.9,11.5c-0.2,0-0.3,0-0.5,0
		c-3.7,0.1-7.2-1.3-9.7-3.9c-2.2-2.2-3.7-5-4.2-8.1C-455.9-494.9-456.5-495.3-457.1-495.3C-457.1-495.3-457.1-495.3-457.1-495.3z"/>
	<path id="Path_28_00000173161642282819464470000012318807521445057152_" class="st6" d="M-442-484.6c5-0.3,9.4-4.6,10.3-9.7
		c0.1-0.6-0.3-1.2-0.9-1.3c0,0,0,0,0,0c-6.6-1.1-13.4-1.2-20.1-0.4c-0.6,0.1-1,0.6-0.9,1.2c0,0,0,0,0,0c0.4,2.6,1.7,5,3.6,6.8
		C-447.9-485.7-445-484.6-442-484.6z"/>
	<path id="Path_29_00000167376767109795189590000013952571615814320526_" class="st8" d="M-416.4-490.7c-1.5-0.7-3.1-1.3-4.7-1.9
		c-0.6-0.2-1.2,0.1-1.4,0.6c0,0,0,0.1,0,0.1c-1.8,9.4-10,17.1-19.2,18c-0.3,0-0.6,0.1-1,0.1c-10.4,0.5-20.2-7.8-22.2-18
		c-0.1-0.6-0.7-0.9-1.3-0.8c-0.1,0-0.1,0-0.2,0c-1.3,0.5-2.6,1-3.8,1.6c-0.5,0.2-0.7,0.7-0.6,1.2c2.8,12.5,14.8,22.4,27.6,22.5
		s25.1-9.5,27.3-22.3C-415.7-490.1-416-490.5-416.4-490.7z"/>
	<path id="Path_30_00000163058485014618441230000004513310554733997747_" class="st10" d="M-465.4-472.1c-3.1-3.8-5.5-8.1-7.1-12.7
		c-1.1-3-5.7-2.3-5.7,0.9v0.1c0,2.4,1.4,4.6,2.8,6.6c1.3,1.9,2.6,3.9,3,6.1c0.1,1,0.6,2,1.2,2.7c1.3,1.6,3.7,1.8,5.3,0.5
		c0.1-0.1,0.2-0.2,0.3-0.3C-464.6-469.3-464.5-471-465.4-472.1z"/>
	<path id="Path_31_00000015352970530916540290000004560125487064631482_" class="st12" d="M-450.2-462.2c-0.2-1-0.8-1.9-1.7-2.3
		c-0.9-0.4-1.9-0.6-2.9-0.7c-1-0.1-1.9-0.6-2.8-0.6c-1,0-2.1-0.2-3.1-0.4c-1-0.2-2.1-0.3-3.1-0.1c-1,0.2-1.9,0.9-2.3,1.9
		c-0.3,1,0.2,2.1,1.2,2.5c4.3,1.1,8.6,1.6,13,1.6C-450.8-460.3-450.1-461.2-450.2-462.2C-450.2-462.2-450.2-462.2-450.2-462.2z"/>
	<path id="Path_32_00000148636141465039805380000013707485449806133633_" class="st9" d="M-452.1-457.3c-0.9,0.1-1.9,0-2.8-0.3
		l-0.2-0.1c-2.2-0.6-4.5,0.7-5.1,3c-0.3,1-0.2,2,0.3,2.9l4.3,8.9l0,0.1c2.8,5.7,6.5,5.4,8.3-0.7c1.2-4.1,0.7-8.5-1.5-12.1
		C-449.5-456.8-450.8-457.5-452.1-457.3z"/>
	<path id="Path_33_00000032610498987801080950000002056872769525787564_" class="st12" d="M-413.1-503c-1.6,0.3-3.2-0.5-3.9-2
		c-0.5-1.9,0.6-3.9,2.5-4.5c0.5-0.2,1-0.2,1.5-0.2c1,0.1,1.9-0.7,2-1.7c0.1-0.9-0.6-1.8-1.5-2l-0.1,0c-5.2-0.9-10.6,0.2-15.1,3
		c-2,1.2-3.7,2.7-5.2,4.5c-1.4,1.7-1.2,4.1,0.5,5.5c0.7,0.6,1.6,0.9,2.5,0.9c4.7,0,9.2,1.6,12.8,4.7c2.3,1.9,5.6,1.5,7.5-0.8
		c0.1-0.1,0.2-0.3,0.3-0.4c1-1.9,0.8-4.3-0.6-5.9C-410.7-502.8-411.9-503.2-413.1-503z"/>
	<path id="Path_34_00000067232108311971351430000007815757566852171940_" class="st13" d="M-488.9-562.5c-1.5-0.6-3.3,0-4.2,1.4
		c-0.9,1.6-0.4,3.6,1.2,4.6c1.6,0.9,3.6,0.4,4.6-1.2c0.7-1.3,0.5-2.9-0.5-4c2-2.8,4.2-5.5,6.5-8.1c1.3,0.2,2.5,0.6,3.5,1.4
		c-0.1,0.1-0.2,0.3-0.3,0.4c-1.9,2.8-1.2,6.5,1.5,8.5c2.8,1.7,6.4,1.1,8.3-1.6c1.8-2.7,1.1-6.4-1.5-8.4c-2.1-1.4-4.9-1.4-7,0.1
		c-1-0.8-2.2-1.3-3.4-1.6c7.2-7.8,15.6-14.5,24.9-19.7c2.2,1.8,5.3,1.7,7.4-0.2c2.1-2.2,2.1-5.6,0.1-7.8c-2.2-2.1-5.6-2.1-7.8-0.1
		c-1.8,1.9-2,4.9-0.6,7.1c-4.2,2.4-8.2,5-12.1,8c-2.3-4.6-6.4-8.2-11.3-9.9c0.1-0.2,0.3-0.4,0.4-0.7c0.6-1.9-0.4-3.8-2.2-4.6
		c-1.9-0.6-3.9,0.4-4.6,2.2c-0.6,1.9,0.4,3.8,2.2,4.5c1.1,0.3,2.2,0.2,3.1-0.5c4.9,1.5,9,5,11.3,9.6c-2.1,1.7-4.1,3.4-6.1,5.2
		c-0.9-2.2-2.6-3.9-4.8-4.8c0-0.1,0.1-0.1,0.1-0.2c0.5-1.8-0.4-3.7-2.2-4.3c-1.8-0.6-3.8,0.5-4.4,2.3c-0.5,1.8,0.5,3.7,2.3,4.3
		c1.2,0.3,2.6,0,3.5-0.9c2.2,0.8,3.8,2.5,4.5,4.7C-481.1-572.3-485.2-567.6-488.9-562.5z"/>
	<path id="Path_35_00000072964904864620073350000016397865763214671274_" class="st9" d="M-463.2-572.6c-1.3,1.1-1.7,3-0.8,4.5
		c2,4.3,0.8,9.5-3,12.4c-3.5,2.5-8.6,2.1-12-0.3c-1.6-1.2-3.9-0.9-5.1,0.8c0,0-0.1,0.1-0.1,0.1c-1.1,1.6-2.1,3.2-3.1,4.7
		c-0.3,0.4-0.3,1,0.1,1.4c0.4,0.5,0.6,1.2,0.5,1.8c-0.1,0.8-0.7,1.4-1.4,1.7c-0.5,0.2-1,0.2-1.4,0.1c-0.5-0.2-1.1,0-1.4,0.5
		c-2.8,4.2,0.4,10,5.1,10.3c2,0.2,4,0.1,5.9-0.2c5.4-0.9,10.8-4.6,12-9.9c0.6-2.4,2.8-4,5.2-4c2.5,0.1,4.5,1.9,4.9,4.4
		c0.8,5.1,10.2,7.2,11-0.8c0.2-2.2-1.1-4.2-3.1-5.1c-3.2-1.4-2.8-7.5,1.4-7.6c2.3-0.1,4.2,1.6,4.3,3.9c0,0.4,0,0.7-0.1,1.1
		c-0.6,3.4,3.9,6.5,6.9,4.6c2.8-1.8,2-6.9-1.1-8c-1.8-0.8-2.7-2.9-1.9-4.7c0.3-0.8,1-1.5,1.8-1.9c2.3-1,5.1-0.2,7.6,0.5
		c2.6,0.8,5.7,1.4,7.9-0.3c2.6-1.9,0.9-6-2.3-5.8c-6.9,0.4-13.7-1.5-19.5-5.2C-450.4-577.4-458.2-576.7-463.2-572.6z M-480.7-542.1
		c-0.1,0.8-0.7,1.5-1.5,1.8c-1.2,0.4-2.5-0.2-2.9-1.4c-0.1-0.4-0.2-0.7-0.1-1.1c0.1-0.8,0.7-1.5,1.5-1.8c1.2-0.4,2.5,0.2,2.9,1.4
		C-480.7-542.8-480.7-542.5-480.7-542.1L-480.7-542.1z"/>
</g>
<g id="Group_55_00000043448806730858776800000000478876068388416436_" transform="translate(1132.622 1.181)">
	<path id="Path_175" class="st12" d="M-102.6,246.6c0.9,0,1.6-0.7,1.6-1.6c0-0.9-0.7-1.6-1.6-1.6c-0.9,0-1.6,0.7-1.6,1.6l0,0
		C-104.2,245.9-103.5,246.6-102.6,246.6z"/>
	<path id="Path_176" class="st12" d="M-103.2,235.5c-0.4,0.4-0.9,0.8-1.4,1.1c1.4,1.4,2.4,3.3,2.8,5.3c1.8,0.4,2.9,2.2,2.5,4
		c-0.4,1.8-2.2,2.9-4,2.5c-1.8-0.4-2.9-2.2-2.5-4c0.3-1.2,1.1-2.1,2.3-2.4c-0.4-1.7-1.3-3.2-2.6-4.4c-4.5,2.4-9.9,2.5-14.4,0.1
		c-1.5,2.2-2.4,4.8-2.6,7.5c2.8,0.4,4.9,2.9,4.9,5.7v3.9c0,0.5-0.4,0.8-0.8,0.8h-2.7c-0.5,0-0.8-0.4-0.8-0.8c0-0.5,0.4-0.8,0.8-0.9
		c0,0,0,0,0,0h1.8v-3c0-2.3-1.8-4.1-4.1-4.1c-2.3,0-4.1,1.8-4.1,4.1c0,0,0,0,0,0v3h1.8c0.5,0,0.8,0.4,0.8,0.9c0,0.5-0.4,0.8-0.8,0.8
		h-2.7c-0.5,0-0.8-0.4-0.8-0.8v-3.9c0-2.9,2.1-5.3,5-5.7c0.2-3,1.2-5.8,2.8-8.3c-0.6-0.4-1.1-0.8-1.7-1.3c-6.5,1.9-11,7.9-11,14.7
		v9.6c0,1.8,1.5,3.3,3.3,3.3c0,0,0,0,0,0h36c1.8,0,3.3-1.5,3.3-3.3l0,0v-9.6C-92.2,243.3-96.7,237.4-103.2,235.5z M-103.5,256.2
		c0,0.3-0.2,0.5-0.5,0.5h-2.2v2.2c0,0.3-0.2,0.5-0.5,0.5h-1.9c-0.3,0-0.5-0.2-0.5-0.5v-2.2h-2.2c-0.3,0-0.5-0.2-0.5-0.5v-1.9
		c0-0.3,0.2-0.5,0.5-0.5h2.2v-2.2c0-0.3,0.2-0.5,0.5-0.5h1.9c0.3,0,0.5,0.2,0.5,0.5v2.2h2.2c0.3,0,0.5,0.2,0.5,0.5L-103.5,256.2z"/>
	<path id="Path_177" class="st12" d="M-113.4,235.7c6.6,0,11.9-5.3,11.9-11.9s-5.3-11.9-11.9-11.9c-6.6,0-11.9,5.3-11.9,11.9
		c0,0,0,0,0,0C-125.4,230.4-120,235.7-113.4,235.7z"/>
</g>
<path id="Path_279" class="st12" d="M936.7,222.2c-6.4,0-11.6,5.2-11.6,11.6c0,10.8,10.5,21.4,11.6,21.4s11.6-10.6,11.6-21.4
	C948.3,227.4,943.1,222.2,936.7,222.2z M936.7,246.7c-2.5-3.3-5.5-8.4-5.5-13c0-3.1,2.5-5.5,5.6-5.5c3.1,0,5.5,2.5,5.5,5.5
	C942.2,238.3,939.2,243.5,936.7,246.7L936.7,246.7z"/>
<path id="Path_288" class="st10" d="M244.7,1311.9c-0.3,0.3-0.3,0.7-0.1,1c0.1,0.1,0.3,0.2,0.4,0.2l6.9,1.1c0.3,0,0.5,0.3,0.6,0.6
	l1.4,5.5c0.1,0.4,0.5,0.6,0.9,0.5c0.2,0,0.3-0.1,0.4-0.3l4.1-5.6c0.1-0.2,0.3-0.3,0.6-0.3c2.3-0.1,4.7-0.1,6.9-0.1
	c0.4,0,0.7-0.3,0.7-0.7c0-0.1,0-0.2-0.1-0.4c-1.1-2-2.1-3.9-3-6c-0.1-0.1-0.1-0.2-0.1-0.4l0.4-6.4c0-0.4-0.3-0.8-0.7-0.8
	c-0.1,0-0.2,0-0.3,0.1l-6.4,2.7c-0.2,0.1-0.4,0.1-0.6,0c-1.9-0.9-3.9-1.6-5.9-2.3c-0.4-0.1-0.8,0.1-0.9,0.5c0,0.1,0,0.2,0,0.3
	l0.3,5.5c0,0.2-0.1,0.4-0.2,0.6L244.7,1311.9z"/>
<rect x="-1" class="st10" width="110.3" height="129.5"/>
<rect x="109.3" class="st11" width="110.3" height="129.5"/>
<rect x="219.6" class="st12" width="110.3" height="129.5"/>
<rect x="329.9" class="st9" width="110.3" height="129.5"/>
<rect x="440.3" class="st8" width="110.3" height="129.5"/>
<rect x="550.6" class="st23" width="110.3" height="129.5"/>
<rect x="660.9" class="st6" width="110.3" height="129.5"/>
<rect x="1025.4" class="st13" width="55" height="129.5"/>
<rect x="970.4" class="st15" width="55" height="129.5"/>
<rect x="915.3" class="st24" width="55" height="129.5"/>
<g>
	<path class="st24" d="M116.6,440.4h8.4v2.2h-11.1v-19.5h2.6V440.4z"/>
	<path class="st24" d="M137.7,442.6h-1.1c-0.2,0-0.4,0-0.6-0.1c-0.1-0.1-0.2-0.2-0.3-0.5l-0.3-1.3c-0.4,0.3-0.7,0.6-1.1,0.9
		s-0.7,0.5-1.1,0.7c-0.4,0.2-0.8,0.3-1.2,0.4c-0.4,0.1-0.9,0.1-1.4,0.1c-0.5,0-1-0.1-1.5-0.2c-0.5-0.2-0.9-0.4-1.2-0.7
		s-0.6-0.7-0.8-1.1c-0.2-0.5-0.3-1-0.3-1.6c0-0.5,0.1-1.1,0.4-1.6c0.3-0.5,0.8-1,1.5-1.3c0.7-0.4,1.5-0.7,2.6-1
		c1.1-0.3,2.4-0.4,4-0.4v-1.1c0-1.1-0.2-1.9-0.7-2.4c-0.5-0.6-1.1-0.8-2-0.8c-0.6,0-1.1,0.1-1.5,0.2s-0.8,0.3-1,0.5
		c-0.3,0.2-0.5,0.4-0.8,0.5c-0.2,0.1-0.4,0.2-0.6,0.2c-0.2,0-0.3,0-0.4-0.1c-0.1-0.1-0.2-0.2-0.3-0.3l-0.4-0.8
		c0.8-0.7,1.6-1.3,2.5-1.6s1.9-0.5,2.9-0.5c0.8,0,1.5,0.1,2.1,0.4c0.6,0.3,1.1,0.6,1.5,1.1c0.4,0.5,0.7,1,0.9,1.6
		c0.2,0.6,0.3,1.4,0.3,2.1V442.6z M131.4,441.1c0.4,0,0.8,0,1.2-0.1c0.4-0.1,0.7-0.2,1-0.4c0.3-0.2,0.6-0.4,0.9-0.6
		c0.3-0.2,0.6-0.5,0.8-0.8v-2.8c-1.1,0-2.1,0.1-2.8,0.2c-0.8,0.1-1.4,0.3-1.9,0.6s-0.8,0.5-1.1,0.8s-0.3,0.7-0.3,1
		c0,0.4,0.1,0.7,0.2,0.9s0.3,0.5,0.5,0.7c0.2,0.2,0.4,0.3,0.7,0.4C130.8,441.1,131.1,441.1,131.4,441.1z"/>
	<path class="st24" d="M145.6,442.8c-1.1,0-1.9-0.3-2.5-0.9s-0.9-1.5-0.9-2.6v-8.4h-1.7c-0.1,0-0.3,0-0.4-0.1
		c-0.1-0.1-0.1-0.2-0.1-0.4v-1l2.3-0.3l0.6-4.3c0-0.1,0.1-0.2,0.2-0.3c0.1-0.1,0.2-0.1,0.4-0.1h1.2v4.8h4v1.8h-4v8.3
		c0,0.6,0.1,1,0.4,1.3c0.3,0.3,0.6,0.4,1.1,0.4c0.3,0,0.5,0,0.7-0.1c0.2-0.1,0.3-0.1,0.5-0.2s0.3-0.2,0.3-0.2
		c0.1-0.1,0.2-0.1,0.3-0.1c0.1,0,0.2,0.1,0.3,0.2l0.7,1.2c-0.4,0.4-0.9,0.7-1.5,0.9C146.8,442.7,146.2,442.8,145.6,442.8z"/>
	<path class="st24" d="M157.1,428.6c1,0,1.9,0.2,2.7,0.5s1.5,0.8,2.1,1.4c0.6,0.6,1,1.4,1.3,2.2c0.3,0.9,0.5,1.9,0.5,2.9
		c0,1.1-0.2,2.1-0.5,2.9s-0.7,1.6-1.3,2.2c-0.6,0.6-1.3,1.1-2.1,1.4c-0.8,0.3-1.7,0.5-2.7,0.5c-1,0-1.9-0.2-2.7-0.5
		c-0.8-0.3-1.5-0.8-2.1-1.4c-0.6-0.6-1-1.4-1.3-2.2c-0.3-0.9-0.5-1.9-0.5-2.9c0-1.1,0.2-2.1,0.5-2.9c0.3-0.9,0.7-1.6,1.3-2.2
		c0.6-0.6,1.3-1.1,2.1-1.4S156.1,428.6,157.1,428.6z M157.1,440.9c1.4,0,2.4-0.5,3.1-1.4c0.7-0.9,1-2.2,1-3.8c0-1.6-0.3-2.9-1-3.8
		c-0.7-0.9-1.7-1.4-3.1-1.4c-0.7,0-1.3,0.1-1.8,0.4s-0.9,0.6-1.3,1c-0.3,0.4-0.6,1-0.8,1.6c-0.2,0.6-0.3,1.4-0.3,2.2
		s0.1,1.5,0.3,2.2c0.2,0.6,0.4,1.2,0.8,1.6c0.3,0.4,0.8,0.8,1.3,1S156.4,440.9,157.1,440.9z"/>
	<path class="st24" d="M175.3,434.4v8.1h-2.6v-19.5h5.5c1.2,0,2.3,0.1,3.2,0.4s1.6,0.6,2.2,1.1s1,1,1.3,1.7c0.3,0.7,0.4,1.4,0.4,2.2
		c0,0.7-0.1,1.3-0.3,1.9c-0.2,0.6-0.5,1.1-0.9,1.6c-0.4,0.5-0.9,0.9-1.5,1.2c-0.6,0.3-1.3,0.6-2,0.8c0.3,0.2,0.6,0.5,0.9,0.8
		l5.7,7.8h-2.3c-0.5,0-0.8-0.2-1.1-0.6l-5.1-7c-0.2-0.2-0.3-0.4-0.5-0.5s-0.5-0.1-0.8-0.1H175.3z M175.3,432.5h2.8
		c0.8,0,1.5-0.1,2-0.3s1.1-0.5,1.5-0.8c0.4-0.3,0.7-0.7,0.9-1.2c0.2-0.5,0.3-1,0.3-1.6c0-1.2-0.4-2-1.2-2.6s-1.9-0.9-3.4-0.9h-2.9
		V432.5z"/>
	<path class="st24" d="M195,428.6c0.8,0,1.6,0.1,2.3,0.4c0.7,0.3,1.3,0.7,1.8,1.2c0.5,0.5,0.9,1.2,1.2,1.9c0.3,0.8,0.4,1.6,0.4,2.6
		c0,0.4,0,0.6-0.1,0.8c-0.1,0.1-0.2,0.2-0.5,0.2h-9.2c0,0.9,0.1,1.6,0.4,2.3c0.2,0.6,0.5,1.2,0.9,1.6c0.4,0.4,0.8,0.8,1.4,1
		c0.5,0.2,1.1,0.3,1.8,0.3c0.6,0,1.1-0.1,1.6-0.2c0.4-0.1,0.8-0.3,1.1-0.5c0.3-0.2,0.6-0.3,0.8-0.5c0.2-0.1,0.4-0.2,0.6-0.2
		c0.2,0,0.4,0.1,0.5,0.2l0.7,0.9c-0.3,0.4-0.7,0.7-1.1,0.9c-0.4,0.3-0.9,0.5-1.3,0.7s-1,0.3-1.5,0.4c-0.5,0.1-1,0.1-1.5,0.1
		c-1,0-1.8-0.2-2.6-0.5c-0.8-0.3-1.5-0.8-2.1-1.4c-0.6-0.6-1-1.4-1.4-2.3c-0.3-0.9-0.5-2-0.5-3.2c0-1,0.1-1.9,0.4-2.7
		c0.3-0.8,0.7-1.6,1.3-2.2c0.6-0.6,1.2-1.1,2-1.4C193.1,428.7,194,428.6,195,428.6z M195,430.3c-1.2,0-2.1,0.3-2.8,1
		c-0.7,0.7-1.1,1.6-1.3,2.8h7.5c0-0.6-0.1-1.1-0.2-1.5c-0.2-0.5-0.4-0.9-0.7-1.2c-0.3-0.3-0.7-0.6-1.1-0.8
		C196.1,430.4,195.6,430.3,195,430.3z"/>
	<path class="st24" d="M208.4,428.5c0.6,0,1.2,0.1,1.7,0.2c0.5,0.1,1,0.3,1.4,0.6h3.7v0.9c0,0.3-0.2,0.5-0.6,0.6l-1.6,0.2
		c0.3,0.6,0.5,1.2,0.5,2c0,0.7-0.1,1.3-0.4,1.8c-0.3,0.5-0.6,1-1.1,1.4c-0.5,0.4-1,0.7-1.6,0.9s-1.3,0.3-2.1,0.3
		c-0.6,0-1.3-0.1-1.8-0.2c-0.3,0.2-0.5,0.4-0.7,0.6c-0.1,0.2-0.2,0.4-0.2,0.6c0,0.3,0.1,0.6,0.4,0.8c0.3,0.2,0.6,0.3,1,0.4
		s0.9,0.1,1.5,0.1s1.1,0,1.7,0c0.6,0,1.1,0,1.7,0.2s1,0.3,1.5,0.5c0.4,0.2,0.8,0.5,1,1s0.4,0.9,0.4,1.6c0,0.6-0.1,1.2-0.4,1.7
		c-0.3,0.6-0.7,1.1-1.3,1.5c-0.6,0.4-1.2,0.8-2,1c-0.8,0.3-1.7,0.4-2.7,0.4c-1,0-1.9-0.1-2.7-0.3c-0.8-0.2-1.4-0.5-1.9-0.8
		c-0.5-0.3-0.9-0.7-1.1-1.2c-0.2-0.4-0.4-0.9-0.4-1.4c0-0.7,0.2-1.3,0.6-1.7c0.4-0.5,1-0.9,1.8-1.1c-0.4-0.2-0.7-0.4-0.9-0.7
		c-0.2-0.3-0.3-0.7-0.3-1.2c0-0.2,0-0.4,0.1-0.6s0.2-0.4,0.3-0.6s0.3-0.4,0.6-0.6c0.2-0.2,0.5-0.4,0.8-0.5c-0.7-0.4-1.2-0.9-1.6-1.5
		c-0.4-0.6-0.6-1.4-0.6-2.2c0-0.7,0.1-1.3,0.4-1.8c0.3-0.5,0.6-1,1.1-1.4c0.5-0.4,1-0.7,1.7-0.9C207,428.7,207.7,428.5,208.4,428.5z
		 M212.8,443.3c0-0.4-0.1-0.6-0.3-0.8c-0.2-0.2-0.4-0.4-0.8-0.5c-0.3-0.1-0.7-0.2-1.1-0.3c-0.4-0.1-0.9-0.1-1.3-0.1
		c-0.5,0-1,0-1.4,0c-0.5,0-1-0.1-1.4-0.2c-0.5,0.2-0.9,0.5-1.3,0.9c-0.3,0.4-0.5,0.8-0.5,1.3c0,0.3,0.1,0.6,0.2,0.9
		c0.2,0.3,0.4,0.5,0.7,0.7c0.3,0.2,0.7,0.4,1.2,0.5s1.1,0.2,1.8,0.2c0.7,0,1.2-0.1,1.8-0.2c0.5-0.1,1-0.3,1.3-0.5
		c0.4-0.2,0.6-0.5,0.8-0.8C212.7,444,212.8,443.7,212.8,443.3z M208.4,435.8c0.5,0,0.9-0.1,1.3-0.2c0.4-0.1,0.7-0.3,0.9-0.6
		c0.3-0.2,0.4-0.5,0.6-0.9c0.1-0.3,0.2-0.7,0.2-1.1c0-0.8-0.3-1.5-0.8-2c-0.5-0.5-1.3-0.8-2.2-0.8c-1,0-1.7,0.2-2.2,0.8
		s-0.8,1.2-0.8,2c0,0.4,0.1,0.8,0.2,1.1c0.1,0.3,0.3,0.6,0.6,0.9s0.6,0.4,0.9,0.6C207.5,435.8,208,435.8,208.4,435.8z"/>
	<path class="st24" d="M219.8,428.8v8.8c0,1,0.2,1.9,0.7,2.4c0.5,0.6,1.2,0.9,2.2,0.9c0.7,0,1.4-0.2,2-0.5c0.6-0.3,1.2-0.8,1.7-1.4
		v-10.2h2.4v13.8h-1.4c-0.3,0-0.6-0.2-0.7-0.5l-0.2-1.5c-0.6,0.7-1.3,1.2-2,1.6c-0.7,0.4-1.6,0.6-2.6,0.6c-0.8,0-1.4-0.1-2-0.4
		c-0.6-0.2-1.1-0.6-1.5-1.1c-0.4-0.5-0.7-1-0.9-1.6c-0.2-0.6-0.3-1.4-0.3-2.1v-8.8H219.8z"/>
	<path class="st24" d="M235.6,422.5v20.1h-2.4v-20.1H235.6z"/>
	<path class="st24" d="M250,442.6h-1.1c-0.2,0-0.4,0-0.6-0.1c-0.1-0.1-0.2-0.2-0.3-0.5l-0.3-1.3c-0.4,0.3-0.7,0.6-1.1,0.9
		s-0.7,0.5-1.1,0.7c-0.4,0.2-0.8,0.3-1.2,0.4c-0.4,0.1-0.9,0.1-1.4,0.1c-0.5,0-1-0.1-1.5-0.2c-0.5-0.2-0.9-0.4-1.2-0.7
		s-0.6-0.7-0.8-1.1c-0.2-0.5-0.3-1-0.3-1.6c0-0.5,0.1-1.1,0.4-1.6c0.3-0.5,0.8-1,1.5-1.3c0.7-0.4,1.5-0.7,2.6-1
		c1.1-0.3,2.4-0.4,4-0.4v-1.1c0-1.1-0.2-1.9-0.7-2.4c-0.5-0.6-1.1-0.8-2-0.8c-0.6,0-1.1,0.1-1.5,0.2s-0.8,0.3-1,0.5
		c-0.3,0.2-0.5,0.4-0.8,0.5c-0.2,0.1-0.4,0.2-0.6,0.2c-0.2,0-0.3,0-0.4-0.1c-0.1-0.1-0.2-0.2-0.3-0.3l-0.4-0.8
		c0.8-0.7,1.6-1.3,2.5-1.6s1.9-0.5,2.9-0.5c0.8,0,1.5,0.1,2.1,0.4c0.6,0.3,1.1,0.6,1.5,1.1c0.4,0.5,0.7,1,0.9,1.6
		c0.2,0.6,0.3,1.4,0.3,2.1V442.6z M243.7,441.1c0.4,0,0.8,0,1.2-0.1c0.4-0.1,0.7-0.2,1-0.4c0.3-0.2,0.6-0.4,0.9-0.6
		c0.3-0.2,0.6-0.5,0.8-0.8v-2.8c-1.1,0-2.1,0.1-2.8,0.2c-0.8,0.1-1.4,0.3-1.9,0.6s-0.8,0.5-1.1,0.8s-0.3,0.7-0.3,1
		c0,0.4,0.1,0.7,0.2,0.9s0.3,0.5,0.5,0.7c0.2,0.2,0.4,0.3,0.7,0.4C243.1,441.1,243.4,441.1,243.7,441.1z"/>
	<path class="st24" d="M253.7,442.6v-13.8h1.4c0.3,0,0.4,0,0.5,0.1c0.1,0.1,0.2,0.3,0.2,0.5l0.2,2.2c0.5-1,1.1-1.7,1.8-2.3
		c0.7-0.5,1.5-0.8,2.4-0.8c0.4,0,0.7,0,1,0.1c0.3,0.1,0.6,0.2,0.9,0.4l-0.3,1.8c-0.1,0.2-0.2,0.3-0.4,0.3c-0.1,0-0.3,0-0.6-0.1
		c-0.3-0.1-0.6-0.1-1.1-0.1c-0.8,0-1.6,0.2-2.1,0.7s-1,1.2-1.4,2.1v8.8H253.7z"/>
</g>
<g>
	<path class="st15" d="M116.6,407.1h8.4v2.2h-11.1v-19.5h2.6V407.1z"/>
	<path class="st15" d="M137.7,409.3h-1.1c-0.2,0-0.4,0-0.6-0.1c-0.1-0.1-0.2-0.2-0.3-0.5l-0.3-1.3c-0.4,0.3-0.7,0.6-1.1,0.9
		c-0.3,0.3-0.7,0.5-1.1,0.7c-0.4,0.2-0.8,0.3-1.2,0.4c-0.4,0.1-0.9,0.1-1.4,0.1c-0.5,0-1-0.1-1.5-0.2c-0.5-0.2-0.9-0.4-1.2-0.7
		c-0.3-0.3-0.6-0.7-0.8-1.1c-0.2-0.5-0.3-1-0.3-1.6c0-0.5,0.1-1.1,0.4-1.6c0.3-0.5,0.8-1,1.5-1.3c0.7-0.4,1.5-0.7,2.6-1
		c1.1-0.3,2.4-0.4,4-0.4v-1.1c0-1.1-0.2-1.9-0.7-2.4c-0.5-0.6-1.1-0.8-2-0.8c-0.6,0-1.1,0.1-1.5,0.2c-0.4,0.1-0.8,0.3-1,0.5
		c-0.3,0.2-0.5,0.4-0.8,0.5c-0.2,0.1-0.4,0.2-0.6,0.2c-0.2,0-0.3,0-0.4-0.1s-0.2-0.2-0.3-0.3l-0.4-0.8c0.8-0.7,1.6-1.3,2.5-1.6
		s1.9-0.5,2.9-0.5c0.8,0,1.5,0.1,2.1,0.4s1.1,0.6,1.5,1.1c0.4,0.5,0.7,1,0.9,1.6c0.2,0.6,0.3,1.4,0.3,2.1V409.3z M131.4,407.8
		c0.4,0,0.8,0,1.2-0.1c0.4-0.1,0.7-0.2,1-0.4c0.3-0.2,0.6-0.4,0.9-0.6c0.3-0.2,0.6-0.5,0.8-0.8v-2.8c-1.1,0-2.1,0.1-2.8,0.2
		c-0.8,0.1-1.4,0.3-1.9,0.6c-0.5,0.2-0.8,0.5-1.1,0.8c-0.2,0.3-0.3,0.7-0.3,1c0,0.4,0.1,0.7,0.2,0.9c0.1,0.3,0.3,0.5,0.5,0.7
		c0.2,0.2,0.4,0.3,0.7,0.4C130.8,407.8,131.1,407.8,131.4,407.8z"/>
	<path class="st15" d="M145.6,409.5c-1.1,0-1.9-0.3-2.5-0.9c-0.6-0.6-0.9-1.5-0.9-2.6v-8.4h-1.7c-0.1,0-0.3,0-0.4-0.1
		c-0.1-0.1-0.1-0.2-0.1-0.4v-1l2.3-0.3l0.6-4.3c0-0.1,0.1-0.2,0.2-0.3c0.1-0.1,0.2-0.1,0.4-0.1h1.2v4.8h4v1.8h-4v8.3
		c0,0.6,0.1,1,0.4,1.3c0.3,0.3,0.6,0.4,1.1,0.4c0.3,0,0.5,0,0.7-0.1c0.2-0.1,0.3-0.1,0.5-0.2c0.1-0.1,0.3-0.2,0.3-0.2
		c0.1-0.1,0.2-0.1,0.3-0.1c0.1,0,0.2,0.1,0.3,0.2l0.7,1.2c-0.4,0.4-0.9,0.7-1.5,0.9C146.8,409.4,146.2,409.5,145.6,409.5z"/>
	<path class="st15" d="M157.1,395.3c1,0,1.9,0.2,2.7,0.5s1.5,0.8,2.1,1.4s1,1.4,1.3,2.2s0.5,1.9,0.5,2.9c0,1.1-0.2,2.1-0.5,2.9
		s-0.7,1.6-1.3,2.2s-1.3,1.1-2.1,1.4s-1.7,0.5-2.7,0.5c-1,0-1.9-0.2-2.7-0.5s-1.5-0.8-2.1-1.4s-1-1.4-1.3-2.2
		c-0.3-0.9-0.5-1.9-0.5-2.9c0-1.1,0.2-2.1,0.5-2.9c0.3-0.9,0.7-1.6,1.3-2.2s1.3-1.1,2.1-1.4S156.1,395.3,157.1,395.3z M157.1,407.6
		c1.4,0,2.4-0.5,3.1-1.4c0.7-0.9,1-2.2,1-3.8c0-1.6-0.3-2.9-1-3.8c-0.7-0.9-1.7-1.4-3.1-1.4c-0.7,0-1.3,0.1-1.8,0.4s-0.9,0.6-1.3,1
		c-0.3,0.4-0.6,1-0.8,1.6c-0.2,0.6-0.3,1.4-0.3,2.2c0,0.8,0.1,1.5,0.3,2.2c0.2,0.6,0.4,1.2,0.8,1.6c0.3,0.4,0.8,0.8,1.3,1
		S156.4,407.6,157.1,407.6z"/>
	<path class="st15" d="M175.3,401.2v8.1h-2.6v-19.5h5.5c1.2,0,2.3,0.1,3.2,0.4s1.6,0.6,2.2,1.1c0.6,0.5,1,1,1.3,1.7
		c0.3,0.7,0.4,1.4,0.4,2.2c0,0.7-0.1,1.3-0.3,1.9c-0.2,0.6-0.5,1.1-0.9,1.6c-0.4,0.5-0.9,0.9-1.5,1.2c-0.6,0.3-1.3,0.6-2,0.8
		c0.3,0.2,0.6,0.5,0.9,0.8l5.7,7.8h-2.3c-0.5,0-0.8-0.2-1.1-0.6l-5.1-7c-0.2-0.2-0.3-0.4-0.5-0.5c-0.2-0.1-0.5-0.1-0.8-0.1H175.3z
		 M175.3,399.3h2.8c0.8,0,1.5-0.1,2-0.3c0.6-0.2,1.1-0.4,1.5-0.8c0.4-0.3,0.7-0.7,0.9-1.2c0.2-0.5,0.3-1,0.3-1.6
		c0-1.2-0.4-2-1.2-2.6c-0.8-0.6-1.9-0.9-3.4-0.9h-2.9V399.3z"/>
	<path class="st15" d="M195,395.3c0.8,0,1.6,0.1,2.3,0.4c0.7,0.3,1.3,0.7,1.8,1.2c0.5,0.5,0.9,1.2,1.2,1.9c0.3,0.8,0.4,1.6,0.4,2.6
		c0,0.4,0,0.6-0.1,0.8c-0.1,0.1-0.2,0.2-0.5,0.2h-9.2c0,0.9,0.1,1.6,0.4,2.3c0.2,0.6,0.5,1.2,0.9,1.6c0.4,0.4,0.8,0.8,1.4,1
		s1.1,0.3,1.8,0.3c0.6,0,1.1-0.1,1.6-0.2c0.4-0.1,0.8-0.3,1.1-0.5c0.3-0.2,0.6-0.3,0.8-0.5c0.2-0.1,0.4-0.2,0.6-0.2
		c0.2,0,0.4,0.1,0.5,0.2l0.7,0.9c-0.3,0.4-0.7,0.7-1.1,0.9s-0.9,0.5-1.3,0.7c-0.5,0.2-1,0.3-1.5,0.4c-0.5,0.1-1,0.1-1.5,0.1
		c-1,0-1.8-0.2-2.6-0.5c-0.8-0.3-1.5-0.8-2.1-1.4c-0.6-0.6-1-1.4-1.4-2.3c-0.3-0.9-0.5-2-0.5-3.2c0-1,0.1-1.9,0.4-2.7
		c0.3-0.8,0.7-1.6,1.3-2.2c0.6-0.6,1.2-1.1,2-1.4C193.1,395.5,194,395.3,195,395.3z M195,397.1c-1.2,0-2.1,0.3-2.8,1
		c-0.7,0.7-1.1,1.6-1.3,2.8h7.5c0-0.6-0.1-1.1-0.2-1.5c-0.2-0.5-0.4-0.9-0.7-1.2c-0.3-0.3-0.7-0.6-1.1-0.8
		C196.1,397.2,195.6,397.1,195,397.1z"/>
	<path class="st15" d="M208.4,395.3c0.6,0,1.2,0.1,1.7,0.2c0.5,0.1,1,0.3,1.4,0.6h3.7v0.9c0,0.3-0.2,0.5-0.6,0.6l-1.6,0.2
		c0.3,0.6,0.5,1.2,0.5,2c0,0.7-0.1,1.3-0.4,1.8c-0.3,0.5-0.6,1-1.1,1.4c-0.5,0.4-1,0.7-1.6,0.9s-1.3,0.3-2.1,0.3
		c-0.6,0-1.3-0.1-1.8-0.2c-0.3,0.2-0.5,0.4-0.7,0.6c-0.1,0.2-0.2,0.4-0.2,0.6c0,0.3,0.1,0.6,0.4,0.8c0.3,0.2,0.6,0.3,1,0.4
		s0.9,0.1,1.5,0.1s1.1,0,1.7,0c0.6,0,1.1,0.1,1.7,0.2c0.6,0.1,1,0.3,1.5,0.5s0.8,0.5,1,1c0.3,0.4,0.4,0.9,0.4,1.6
		c0,0.6-0.1,1.2-0.4,1.7c-0.3,0.6-0.7,1.1-1.3,1.5c-0.6,0.4-1.2,0.8-2,1s-1.7,0.4-2.7,0.4c-1,0-1.9-0.1-2.7-0.3
		c-0.8-0.2-1.4-0.5-1.9-0.8c-0.5-0.3-0.9-0.7-1.1-1.2c-0.2-0.4-0.4-0.9-0.4-1.4c0-0.7,0.2-1.3,0.6-1.7c0.4-0.5,1-0.9,1.8-1.1
		c-0.4-0.2-0.7-0.4-0.9-0.7c-0.2-0.3-0.3-0.7-0.3-1.2c0-0.2,0-0.4,0.1-0.6c0.1-0.2,0.2-0.4,0.3-0.6c0.1-0.2,0.3-0.4,0.6-0.6
		c0.2-0.2,0.5-0.4,0.8-0.5c-0.7-0.4-1.2-0.9-1.6-1.5c-0.4-0.6-0.6-1.4-0.6-2.2c0-0.7,0.1-1.3,0.4-1.8c0.3-0.5,0.6-1,1.1-1.4
		c0.5-0.4,1-0.7,1.7-0.9C207,395.4,207.7,395.3,208.4,395.3z M212.8,410c0-0.4-0.1-0.6-0.3-0.8c-0.2-0.2-0.4-0.4-0.8-0.5
		s-0.7-0.2-1.1-0.3c-0.4-0.1-0.9-0.1-1.3-0.1c-0.5,0-1,0-1.4,0c-0.5,0-1-0.1-1.4-0.2c-0.5,0.2-0.9,0.5-1.3,0.9
		c-0.3,0.4-0.5,0.8-0.5,1.3c0,0.3,0.1,0.6,0.2,0.9c0.2,0.3,0.4,0.5,0.7,0.7c0.3,0.2,0.7,0.4,1.2,0.5c0.5,0.1,1.1,0.2,1.8,0.2
		c0.7,0,1.2-0.1,1.8-0.2c0.5-0.1,1-0.3,1.3-0.5s0.6-0.5,0.8-0.8C212.7,410.7,212.8,410.4,212.8,410z M208.4,402.6
		c0.5,0,0.9-0.1,1.3-0.2s0.7-0.3,0.9-0.6c0.3-0.2,0.4-0.5,0.6-0.9c0.1-0.3,0.2-0.7,0.2-1.1c0-0.8-0.3-1.5-0.8-2
		c-0.5-0.5-1.3-0.7-2.2-0.7c-1,0-1.7,0.2-2.2,0.7c-0.5,0.5-0.8,1.2-0.8,2c0,0.4,0.1,0.8,0.2,1.1c0.1,0.3,0.3,0.6,0.6,0.9
		s0.6,0.4,0.9,0.6C207.5,402.5,208,402.6,208.4,402.6z"/>
	<path class="st15" d="M219.8,395.5v8.8c0,1,0.2,1.9,0.7,2.4c0.5,0.6,1.2,0.9,2.2,0.9c0.7,0,1.4-0.2,2-0.5c0.6-0.3,1.2-0.8,1.7-1.4
		v-10.2h2.4v13.8h-1.4c-0.3,0-0.6-0.2-0.7-0.5l-0.2-1.5c-0.6,0.7-1.3,1.2-2,1.6c-0.7,0.4-1.6,0.6-2.6,0.6c-0.8,0-1.4-0.1-2-0.4
		c-0.6-0.2-1.1-0.6-1.5-1.1c-0.4-0.5-0.7-1-0.9-1.6c-0.2-0.6-0.3-1.4-0.3-2.1v-8.8H219.8z"/>
	<path class="st15" d="M235.6,389.3v20.1h-2.4v-20.1H235.6z"/>
	<path class="st15" d="M250,409.3h-1.1c-0.2,0-0.4,0-0.6-0.1c-0.1-0.1-0.2-0.2-0.3-0.5l-0.3-1.3c-0.4,0.3-0.7,0.6-1.1,0.9
		c-0.3,0.3-0.7,0.5-1.1,0.7c-0.4,0.2-0.8,0.3-1.2,0.4c-0.4,0.1-0.9,0.1-1.4,0.1c-0.5,0-1-0.1-1.5-0.2c-0.5-0.2-0.9-0.4-1.2-0.7
		c-0.3-0.3-0.6-0.7-0.8-1.1c-0.2-0.5-0.3-1-0.3-1.6c0-0.5,0.1-1.1,0.4-1.6c0.3-0.5,0.8-1,1.5-1.3c0.7-0.4,1.5-0.7,2.6-1
		c1.1-0.3,2.4-0.4,4-0.4v-1.1c0-1.1-0.2-1.9-0.7-2.4c-0.5-0.6-1.1-0.8-2-0.8c-0.6,0-1.1,0.1-1.5,0.2c-0.4,0.1-0.8,0.3-1,0.5
		c-0.3,0.2-0.5,0.4-0.8,0.5c-0.2,0.1-0.4,0.2-0.6,0.2c-0.2,0-0.3,0-0.4-0.1s-0.2-0.2-0.3-0.3l-0.4-0.8c0.8-0.7,1.6-1.3,2.5-1.6
		s1.9-0.5,2.9-0.5c0.8,0,1.5,0.1,2.1,0.4s1.1,0.6,1.5,1.1c0.4,0.5,0.7,1,0.9,1.6c0.2,0.6,0.3,1.4,0.3,2.1V409.3z M243.7,407.8
		c0.4,0,0.8,0,1.2-0.1c0.4-0.1,0.7-0.2,1-0.4c0.3-0.2,0.6-0.4,0.9-0.6c0.3-0.2,0.6-0.5,0.8-0.8v-2.8c-1.1,0-2.1,0.1-2.8,0.2
		c-0.8,0.1-1.4,0.3-1.9,0.6c-0.5,0.2-0.8,0.5-1.1,0.8c-0.2,0.3-0.3,0.7-0.3,1c0,0.4,0.1,0.7,0.2,0.9c0.1,0.3,0.3,0.5,0.5,0.7
		c0.2,0.2,0.4,0.3,0.7,0.4C243.1,407.8,243.4,407.8,243.7,407.8z"/>
	<path class="st15" d="M253.7,409.3v-13.8h1.4c0.3,0,0.4,0,0.5,0.1s0.2,0.3,0.2,0.5l0.2,2.2c0.5-1,1.1-1.7,1.8-2.3s1.5-0.8,2.4-0.8
		c0.4,0,0.7,0,1,0.1c0.3,0.1,0.6,0.2,0.9,0.4l-0.3,1.8c-0.1,0.2-0.2,0.3-0.4,0.3c-0.1,0-0.3,0-0.6-0.1c-0.3-0.1-0.6-0.1-1.1-0.1
		c-0.8,0-1.6,0.2-2.1,0.7c-0.6,0.5-1,1.2-1.4,2.1v8.8H253.7z"/>
</g>
<g>
	<path class="st6" d="M117.8,472.3h7.4v3.7h-12v-19.9h4.6V472.3z"/>
	<path class="st6" d="M137.1,476c-0.4,0-0.7-0.1-0.9-0.2c-0.2-0.1-0.4-0.3-0.5-0.7l-0.3-0.8c-0.4,0.3-0.7,0.6-1,0.8s-0.7,0.4-1,0.6
		c-0.3,0.2-0.7,0.3-1.1,0.4c-0.4,0.1-0.8,0.1-1.3,0.1c-0.6,0-1.2-0.1-1.8-0.3c-0.5-0.2-1-0.4-1.3-0.7c-0.4-0.3-0.7-0.7-0.9-1.2
		c-0.2-0.5-0.3-1.1-0.3-1.7c0-0.5,0.1-1,0.4-1.5c0.3-0.5,0.7-1,1.3-1.4c0.6-0.4,1.5-0.8,2.5-1.1c1.1-0.3,2.4-0.4,4-0.4v-0.6
		c0-0.8-0.2-1.4-0.5-1.8c-0.3-0.4-0.8-0.6-1.5-0.6c-0.5,0-0.9,0.1-1.2,0.2c-0.3,0.1-0.6,0.2-0.9,0.4c-0.2,0.1-0.5,0.3-0.7,0.4
		c-0.2,0.1-0.5,0.2-0.8,0.2c-0.3,0-0.5-0.1-0.7-0.2c-0.2-0.1-0.4-0.3-0.5-0.5l-0.8-1.3c0.9-0.8,1.8-1.3,2.8-1.7
		c1-0.4,2.2-0.6,3.3-0.6c0.9,0,1.6,0.1,2.3,0.4c0.7,0.3,1.3,0.7,1.7,1.2c0.5,0.5,0.8,1.1,1.1,1.8s0.4,1.4,0.4,2.2v8.8H137.1z
		 M132.3,473.4c0.5,0,1-0.1,1.4-0.3c0.4-0.2,0.8-0.5,1.2-0.9v-1.9c-0.8,0-1.5,0.1-2.1,0.2c-0.5,0.1-1,0.2-1.3,0.4s-0.5,0.4-0.7,0.6
		c-0.1,0.2-0.2,0.4-0.2,0.7c0,0.5,0.1,0.8,0.4,1C131.4,473.3,131.8,473.4,132.3,473.4z"/>
	<path class="st6" d="M147,476.2c-0.7,0-1.3-0.1-1.8-0.3c-0.5-0.2-0.9-0.5-1.3-0.8s-0.6-0.8-0.8-1.3c-0.2-0.5-0.3-1.1-0.3-1.7v-7.3
		h-1.2c-0.2,0-0.4-0.1-0.6-0.2c-0.2-0.1-0.2-0.3-0.2-0.6v-1.6l2.2-0.4l0.8-3.4c0.1-0.4,0.4-0.7,0.9-0.7h2.2v4.1h3.4v2.9h-3.4v7
		c0,0.3,0.1,0.6,0.2,0.8c0.2,0.2,0.4,0.3,0.7,0.3c0.2,0,0.3,0,0.4,0c0.1,0,0.2-0.1,0.3-0.1s0.1-0.1,0.2-0.1c0.1,0,0.1,0,0.2,0
		c0.1,0,0.2,0,0.3,0.1c0.1,0.1,0.2,0.2,0.2,0.3l1.3,2c-0.5,0.4-1.2,0.7-1.8,0.9C148.4,476.1,147.7,476.2,147,476.2z"/>
	<path class="st6" d="M159.2,461.6c1.1,0,2,0.2,2.9,0.5s1.6,0.8,2.3,1.4s1.1,1.4,1.5,2.3c0.3,0.9,0.5,1.9,0.5,3c0,1.1-0.2,2.1-0.5,3
		c-0.4,0.9-0.8,1.7-1.5,2.3s-1.4,1.1-2.3,1.5s-1.9,0.5-2.9,0.5c-1.1,0-2.1-0.2-3-0.5s-1.6-0.8-2.3-1.5c-0.6-0.6-1.1-1.4-1.5-2.3
		c-0.4-0.9-0.5-1.9-0.5-3c0-1.1,0.2-2.1,0.5-3c0.3-0.9,0.8-1.7,1.5-2.3c0.6-0.6,1.4-1.1,2.3-1.4S158.2,461.6,159.2,461.6z
		 M159.2,473c1,0,1.7-0.3,2.1-1c0.5-0.7,0.7-1.7,0.7-3.1s-0.2-2.4-0.7-3.1c-0.5-0.7-1.2-1-2.1-1c-1,0-1.7,0.3-2.2,1
		c-0.5,0.7-0.7,1.7-0.7,3.1s0.2,2.4,0.7,3.1S158.2,473,159.2,473z"/>
	<path class="st6" d="M174,476v-19.9h7.3c1.4,0,2.5,0.1,3.5,0.4c1,0.3,1.7,0.6,2.4,1.1c0.6,0.5,1.1,1,1.3,1.7
		c0.3,0.7,0.4,1.4,0.4,2.2c0,0.4-0.1,0.9-0.2,1.3c-0.1,0.4-0.3,0.8-0.6,1.2s-0.6,0.7-1,1c-0.4,0.3-0.9,0.6-1.5,0.8
		c1.3,0.3,2.3,0.8,2.9,1.5c0.6,0.7,0.9,1.6,0.9,2.7c0,0.8-0.2,1.6-0.5,2.4c-0.3,0.7-0.8,1.4-1.4,1.9c-0.6,0.5-1.4,1-2.3,1.3
		c-0.9,0.3-2,0.5-3.2,0.5H174z M178.6,464.5h2.4c0.5,0,1,0,1.4-0.1s0.8-0.2,1-0.4c0.3-0.2,0.5-0.4,0.7-0.7c0.1-0.3,0.2-0.7,0.2-1.2
		c0-0.5-0.1-0.9-0.2-1.2c-0.1-0.3-0.3-0.6-0.5-0.8c-0.2-0.2-0.6-0.3-0.9-0.4c-0.4-0.1-0.8-0.1-1.3-0.1h-2.7V464.5z M178.6,467.5v4.9
		h3.2c0.6,0,1.1-0.1,1.5-0.2c0.4-0.2,0.7-0.4,0.9-0.6c0.2-0.2,0.4-0.5,0.4-0.8c0.1-0.3,0.1-0.6,0.1-0.9c0-0.4,0-0.7-0.1-1
		c-0.1-0.3-0.3-0.5-0.5-0.7c-0.2-0.2-0.5-0.4-0.9-0.5s-0.9-0.2-1.4-0.2H178.6z"/>
	<path class="st6" d="M196.2,455.6V476H192v-20.4H196.2z"/>
	<path class="st6" d="M209.4,476c-0.4,0-0.7-0.1-0.9-0.2c-0.2-0.1-0.4-0.3-0.5-0.7l-0.3-0.8c-0.4,0.3-0.7,0.6-1,0.8s-0.7,0.4-1,0.6
		c-0.3,0.2-0.7,0.3-1.1,0.4c-0.4,0.1-0.8,0.1-1.3,0.1c-0.6,0-1.2-0.1-1.8-0.3c-0.5-0.2-1-0.4-1.3-0.7c-0.4-0.3-0.7-0.7-0.9-1.2
		c-0.2-0.5-0.3-1.1-0.3-1.7c0-0.5,0.1-1,0.4-1.5c0.3-0.5,0.7-1,1.3-1.4c0.6-0.4,1.5-0.8,2.5-1.1c1.1-0.3,2.4-0.4,4-0.4v-0.6
		c0-0.8-0.2-1.4-0.5-1.8c-0.3-0.4-0.8-0.6-1.5-0.6c-0.5,0-0.9,0.1-1.2,0.2c-0.3,0.1-0.6,0.2-0.9,0.4c-0.2,0.1-0.5,0.3-0.7,0.4
		c-0.2,0.1-0.5,0.2-0.8,0.2c-0.3,0-0.5-0.1-0.7-0.2c-0.2-0.1-0.4-0.3-0.5-0.5l-0.8-1.3c0.9-0.8,1.8-1.3,2.8-1.7
		c1-0.4,2.2-0.6,3.3-0.6c0.9,0,1.6,0.1,2.3,0.4c0.7,0.3,1.3,0.7,1.7,1.2c0.5,0.5,0.8,1.1,1.1,1.8s0.4,1.4,0.4,2.2v8.8H209.4z
		 M204.6,473.4c0.5,0,1-0.1,1.4-0.3c0.4-0.2,0.8-0.5,1.2-0.9v-1.9c-0.8,0-1.5,0.1-2.1,0.2c-0.5,0.1-1,0.2-1.3,0.4s-0.5,0.4-0.7,0.6
		c-0.1,0.2-0.2,0.4-0.2,0.7c0,0.5,0.1,0.8,0.4,1C203.7,473.3,204.1,473.4,204.6,473.4z"/>
	<path class="st6" d="M224.5,465.2c-0.1,0.2-0.2,0.3-0.4,0.4s-0.3,0.1-0.5,0.1c-0.2,0-0.4,0-0.6-0.1c-0.2-0.1-0.4-0.2-0.6-0.3
		s-0.5-0.2-0.7-0.3c-0.3-0.1-0.6-0.1-1-0.1c-0.5,0-1,0.1-1.3,0.3c-0.4,0.2-0.7,0.5-0.9,0.8c-0.2,0.4-0.4,0.8-0.5,1.3
		c-0.1,0.5-0.2,1.1-0.2,1.7c0,1.4,0.3,2.4,0.8,3.1c0.5,0.7,1.2,1.1,2.2,1.1c0.5,0,0.9-0.1,1.2-0.2s0.5-0.3,0.7-0.4
		c0.2-0.1,0.4-0.3,0.6-0.4c0.2-0.1,0.4-0.2,0.6-0.2c0.3,0,0.6,0.1,0.8,0.4l1.2,1.5c-0.4,0.5-0.9,0.9-1.4,1.2c-0.5,0.3-1,0.6-1.5,0.7
		c-0.5,0.2-1,0.3-1.5,0.4c-0.5,0.1-1,0.1-1.5,0.1c-0.9,0-1.7-0.2-2.5-0.5c-0.8-0.3-1.5-0.8-2.1-1.4c-0.6-0.6-1.1-1.4-1.4-2.3
		c-0.4-0.9-0.5-1.9-0.5-3.1c0-1,0.2-2,0.5-2.9s0.8-1.7,1.3-2.3c0.6-0.6,1.3-1.2,2.2-1.5c0.9-0.4,1.9-0.6,3-0.6
		c1.1,0,2.1,0.2,2.9,0.5c0.8,0.4,1.6,0.9,2.3,1.6L224.5,465.2z"/>
	<path class="st6" d="M231.8,455.6V467h0.6c0.3,0,0.5,0,0.6-0.1c0.1-0.1,0.3-0.2,0.4-0.4l2.7-4c0.2-0.2,0.3-0.4,0.6-0.5
		s0.5-0.2,0.8-0.2h3.9l-3.7,5c-0.2,0.2-0.4,0.4-0.6,0.6c-0.2,0.2-0.4,0.3-0.7,0.5c0.4,0.3,0.8,0.7,1.1,1.2l4,6.8h-3.8
		c-0.3,0-0.6-0.1-0.8-0.2c-0.2-0.1-0.4-0.3-0.6-0.6l-2.7-5c-0.1-0.2-0.3-0.4-0.4-0.4c-0.1-0.1-0.3-0.1-0.6-0.1h-0.8v6.3h-4.2v-20.4
		H231.8z"/>
</g>
<rect x="284.3" y="389.3" class="st15" width="199.5" height="25"/>
<rect x="284.3" y="419.7" class="st24" width="199.5" height="25"/>
<rect x="284.3" y="450.2" class="st6" width="199.5" height="25"/>
</svg>
